SplineFontDB: 3.2
FontName: Tektur-KSM-Medium
FullName: Tektur KSM Medium
FamilyName: Tektur KSM Medium
Weight: Medium
Copyright: Copyright 2023 The Tektur Project Authors (https://www.github.com/hyvyys/Tektur)\nModified for K-Shoot MANIA
Version: 1.005;gftools[0.9.30]
ItalicAngle: 0
UnderlinePosition: -125
UnderlineWidth: 50
Ascent: 800
Descent: 200
InvalidEm: 0
sfntRevision: 0x00010148
LayerCount: 2
Layer: 0 1 "+gMyXYgAA" 1
Layer: 1 1 "+Uk2XYgAA" 0
XUID: [1021 133 1718725000 31248]
StyleMap: 0x0040
FSType: 0
OS2Version: 4
OS2_WeightWidthSlopeOnly: 0
OS2_UseTypoMetrics: 1
CreationTime: 1602124380
ModificationTime: 1704305500
PfmFamily: 81
TTFWeight: 500
TTFWidth: 5
LineGap: 0
VLineGap: 0
Panose: 0 0 0 0 0 0 0 0 0 0
OS2TypoAscent: 1000
OS2TypoAOffset: 0
OS2TypoDescent: -300
OS2TypoDOffset: 0
OS2TypoLinegap: 0
OS2WinAscent: 1000
OS2WinAOffset: 0
OS2WinDescent: 300
OS2WinDOffset: 0
HheadAscent: 1000
HheadAOffset: 0
HheadDescent: -300
HheadDOffset: 0
OS2SubXSize: 650
OS2SubYSize: 600
OS2SubXOff: 0
OS2SubYOff: 75
OS2SupXSize: 650
OS2SupYSize: 600
OS2SupXOff: 0
OS2SupYOff: 350
OS2StrikeYSize: 50
OS2StrikeYPos: 300
OS2CapHeight: 700
OS2XHeight: 560
OS2Vendor: 'Adam'
OS2CodePages: 2000009f.00000000
OS2UnicodeRanges: a00006ff.4000206b.00000000.00000000
Lookup: 6 0 0 "'ccmp' +MLAw6jDVVAhiEAAA-/+UgaJ4wAA lookup 0" { "'ccmp' +MLAw6jDVVAhiEAAA-/+UgaJ4wAA lookup 0 contextual 0"  "'ccmp' +MLAw6jDVVAhiEAAA-/+UgaJ4wAA lookup 0 contextual 1"  "'ccmp' +MLAw6jDVVAhiEAAA-/+UgaJ4wAA lookup 0 contextual 2"  } ['ccmp' ('DFLT' <'dflt' > 'cyrl' <'BGR ' 'SRB ' 'dflt' > 'grek' <'dflt' > 'latn' <'CAT ' 'NLD ' 'dflt' > ) ]
Lookup: 1 0 0 "+U1h9FH9uY9sA lookup 1" { "+U1h9FH9uY9sA lookup 1 +MLUw1jDGMPww1jDr"  } []
Lookup: 6 0 0 "'locl' +Vv0w+1cwV99W+mcJMG5bV19i in +MOkwxjDzZYdbVwAA lookup 2" { "'locl' +Vv0w+1cwV99W+mcJMG5bV19i in +MOkwxjDzZYdbVwAA lookup 2 +MLUw1jDGMPww1jDr"  } ['locl' ('latn' <'CAT ' > ) ]
Lookup: 1 0 0 "+U1h9FH9uY9sA lookup 3" { "+U1h9FH9uY9sA lookup 3 +MLUw1jDGMPww1jDr"  } []

StartChar: .notdef
Encoding: 65536 -1 0
Width: 580
GlyphClass: 1
Flags: W
LayerCount: 2
Fore
SplineSet
30 0 m 1,0,-1
 30 700 l 1,1,-1
 550 700 l 1,2,-1
 550 0 l 1,3,-1
 30 0 l 1,0,-1
290 413 m 1,4,-1
 435 620 l 1,5,-1
 145 620 l 1,6,-1
 290 413 l 1,4,-1
120 170 m 1,7,-1
 246 350 l 1,8,-1
 120 531 l 1,9,-1
 120 170 l 1,7,-1
460 170 m 1,10,-1
 460 531 l 1,11,-1
 334 350 l 1,12,-1
 460 170 l 1,10,-1
145 80 m 1,13,-1
 435 80 l 1,14,-1
 290 288 l 1,15,-1
 145 80 l 1,13,-1
EndSplineSet
EndChar

StartChar: A
Encoding: 65 65 2
Width: 678
GlyphClass: 2
Flags: W
AnchorPoint: "Anchor-2" 339 700 basechar 0
AnchorPoint: "Anchor-1" 583 0 basechar 0
AnchorPoint: "Anchor-0" 339 0 basechar 0
LayerCount: 2
Fore
SplineSet
30 0 m 1,0,-1
 203 700 l 1,1,-1
 475 700 l 1,2,-1
 648 0 l 1,3,-1
 527 0 l 1,4,-1
 487 170 l 1,5,-1
 191 170 l 1,6,-1
 151 0 l 1,7,-1
 30 0 l 1,0,-1
211 262 m 1,8,-1
 467 262 l 1,9,-1
 385 604 l 1,10,-1
 293 604 l 1,11,-1
 211 262 l 1,8,-1
EndSplineSet
Substitution2: "'ss01' +MLkwvzCkMOswuzDDMMgA-1 lookup 23 +MLUw1jDGMPww1jDr" A.ss01
EndChar

StartChar: A.ss01
Encoding: 65537 -1 3
Width: 660
GlyphClass: 2
Flags: W
AnchorPoint: "Anchor-2" 330 700 basechar 0
AnchorPoint: "Anchor-1" 550 0 basechar 0
AnchorPoint: "Anchor-0" 330 0 basechar 0
LayerCount: 2
Fore
SplineSet
604 606 m 1,0,-1
 604 0 l 1,1,-1
 488 0 l 1,2,-1
 488 220 l 1,3,-1
 172 220 l 1,4,-1
 172 0 l 1,5,-1
 56 0 l 1,6,-1
 56 606 l 1,7,-1
 150 700 l 1,8,-1
 510 700 l 1,9,-1
 604 606 l 1,0,-1
172 596 m 1,10,-1
 172 320 l 1,11,-1
 488 320 l 1,12,-1
 488 596 l 1,13,-1
 172 596 l 1,10,-1
EndSplineSet
EndChar

StartChar: B
Encoding: 66 66 4
Width: 690
GlyphClass: 2
Flags: W
AnchorPoint: "Anchor-2" 312 700 basechar 0
AnchorPoint: "Anchor-0" 312 0 basechar 0
LayerCount: 2
Fore
SplineSet
185 409 m 1,0,-1
 484 409 l 1,1,-1
 484 602 l 1,2,-1
 185 602 l 1,3,-1
 185 409 l 1,0,-1
185 98 m 1,4,-1
 503 98 l 1,5,-1
 503 317 l 1,6,-1
 185 317 l 1,7,-1
 185 98 l 1,4,-1
601 608 m 1,8,-1
 601 419 l 1,9,-1
 550 374 l 1,10,-1
 621 312 l 1,11,-1
 621 92 l 1,12,-1
 529 0 l 1,13,-1
 69 0 l 1,14,-1
 69 700 l 1,15,-1
 509 700 l 1,16,-1
 601 608 l 1,8,-1
EndSplineSet
EndChar

StartChar: C
Encoding: 67 67 5
Width: 680
GlyphClass: 2
Flags: W
AnchorPoint: "Anchor-2" 376 700 basechar 0
AnchorPoint: "Anchor-0" 376 0 basechar 0
LayerCount: 2
Fore
SplineSet
68 94 m 1,0,-1
 68 606 l 1,1,-1
 162 700 l 1,2,-1
 639 700 l 5,3,-1
 589 594 l 5,4,-1
 186 594 l 1,5,-1
 186 106 l 1,6,-1
 614 106 l 5,7,-1
 614 0 l 5,8,-1
 162 0 l 1,9,-1
 68 94 l 1,0,-1
EndSplineSet
Substitution2: "'ss03' +MLkwvzCkMOswuzDDMMgA-3 lookup 25 +MLUw1jDGMPww1jDr" C.ss03
Substitution2: "'ss02' +MLkwvzCkMOswuzDDMMgA-2 lookup 24 +MLUw1jDGMPww1jDr" C.ss02
EndChar

StartChar: C.ss02
Encoding: 65538 -1 6
Width: 646
GlyphClass: 2
Flags: W
AnchorPoint: "Anchor-2" 331 700 basechar 0
AnchorPoint: "Anchor-0" 331 0 basechar 0
LayerCount: 2
Fore
SplineSet
149 0 m 1,0,-1
 55 94 l 1,1,-1
 55 606 l 1,2,-1
 149 700 l 1,3,-1
 590 700 l 1,4,-1
 590 448 l 1,5,-1
 486 448 l 1,6,-1
 486 598 l 1,7,-1
 173 598 l 1,8,-1
 173 102 l 1,9,-1
 486 102 l 1,10,-1
 486 252 l 1,11,-1
 590 252 l 1,12,-1
 590 0 l 1,13,-1
 149 0 l 1,0,-1
EndSplineSet
EndChar

StartChar: C.ss03
Encoding: 65539 -1 7
Width: 658
GlyphClass: 2
Flags: W
AnchorPoint: "Anchor-2" 329 700 basechar 0
AnchorPoint: "Anchor-0" 329 0 basechar 0
LayerCount: 2
Fore
SplineSet
55 92 m 1,0,-1
 55 608 l 1,1,-1
 147 700 l 1,2,-1
 522 700 l 1,3,-1
 603 619 l 1,4,-1
 603 450 l 1,5,-1
 488 450 l 1,6,-1
 488 598 l 1,7,-1
 173 598 l 1,8,-1
 173 102 l 1,9,-1
 488 102 l 1,10,-1
 488 250 l 1,11,-1
 603 250 l 1,12,-1
 603 81 l 1,13,-1
 522 0 l 1,14,-1
 147 0 l 1,15,-1
 55 92 l 1,0,-1
EndSplineSet
EndChar

StartChar: D
Encoding: 68 68 8
Width: 730
GlyphClass: 2
Flags: W
AnchorPoint: "Anchor-2" 320 700 basechar 0
AnchorPoint: "Anchor-0" 320 0 basechar 0
LayerCount: 2
Fore
SplineSet
194 102 m 1,0,-1
 456 102 l 1,1,-1
 536 162 l 1,2,3
 536 162 536 162 536 538 c 1,4,5
 536 538 536 538 456 598 c 1,6,-1
 194 598 l 1,7,-1
 194 102 l 1,0,-1
78 0 m 1,8,-1
 78 700 l 1,9,-1
 498 700 l 1,10,-1
 652 586 l 1,11,-1
 652 114 l 1,12,-1
 498 0 l 1,13,-1
 78 0 l 1,8,-1
EndSplineSet
EndChar

StartChar: E
Encoding: 69 69 9
Width: 640
GlyphClass: 2
Flags: W
AnchorPoint: "Anchor-2" 320 700 basechar 0
AnchorPoint: "Anchor-1" 437 0 basechar 0
AnchorPoint: "Anchor-0" 320 0 basechar 0
LayerCount: 2
Fore
SplineSet
73 0 m 1,0,-1
 73 700 l 1,1,-1
 557 700 l 1,2,-1
 557 600 l 1,3,-1
 189 600 l 1,4,-1
 189 408 l 1,5,-1
 507 408 l 1,6,-1
 507 310 l 1,7,-1
 189 310 l 1,8,-1
 189 100 l 1,9,-1
 567 100 l 1,10,-1
 567 0 l 1,11,-1
 73 0 l 1,0,-1
EndSplineSet
EndChar

StartChar: F
Encoding: 70 70 10
Width: 630
GlyphClass: 2
Flags: W
AnchorPoint: "Anchor-2" 302 700 basechar 0
AnchorPoint: "Anchor-0" 302 0 basechar 0
LayerCount: 2
Fore
SplineSet
75 0 m 1,0,-1
 75 700 l 1,1,-1
 555 700 l 1,2,-1
 555 596 l 1,3,-1
 191 596 l 1,4,-1
 191 398 l 1,5,-1
 535 398 l 1,6,-1
 535 296 l 1,7,-1
 191 296 l 1,8,-1
 191 0 l 1,9,-1
 75 0 l 1,0,-1
EndSplineSet
EndChar

StartChar: G
Encoding: 71 71 11
Width: 720
GlyphClass: 2
Flags: W
AnchorPoint: "Anchor-2" 396 700 basechar 0
AnchorPoint: "Anchor-0" 396 0 basechar 0
LayerCount: 2
Fore
SplineSet
71 94 m 1,0,-1
 71 606 l 1,1,-1
 165 700 l 1,2,-1
 615 700 l 5,3,-1
 615 598 l 5,4,-1
 187 598 l 1,5,-1
 187 102 l 1,6,-1
 542 102 l 5,7,-1
 542 315 l 5,8,-1
 351 315 l 5,9,-1
 351 411 l 5,10,-1
 649 411 l 5,11,-1
 649 0 l 5,12,-1
 165 0 l 1,13,-1
 71 94 l 1,0,-1
EndSplineSet
Substitution2: "'ss03' +MLkwvzCkMOswuzDDMMgA-3 lookup 25 +MLUw1jDGMPww1jDr" G.ss03
Substitution2: "'ss02' +MLkwvzCkMOswuzDDMMgA-2 lookup 24 +MLUw1jDGMPww1jDr" G.ss02
EndChar

StartChar: G.ss02
Encoding: 65540 -1 12
Width: 649
GlyphClass: 2
Flags: W
AnchorPoint: "Anchor-2" 340 700 basechar 0
AnchorPoint: "Anchor-0" 340 0 basechar 0
LayerCount: 2
Fore
SplineSet
55 94 m 1,0,-1
 55 606 l 1,1,-1
 149 700 l 1,2,-1
 593 700 l 1,3,-1
 593 474 l 1,4,-1
 489 474 l 1,5,-1
 489 598 l 1,6,-1
 171 598 l 1,7,-1
 171 102 l 1,8,-1
 484 102 l 1,9,-1
 484 293 l 1,10,-1
 295 293 l 1,11,-1
 295 384 l 1,12,-1
 593 384 l 1,13,-1
 593 0 l 1,14,-1
 149 0 l 1,15,-1
 55 94 l 1,0,-1
EndSplineSet
EndChar

StartChar: G.ss03
Encoding: 65541 -1 13
Width: 650
GlyphClass: 2
Flags: W
AnchorPoint: "Anchor-2" 340 700 basechar 0
AnchorPoint: "Anchor-0" 340 0 basechar 0
LayerCount: 2
Fore
SplineSet
55 94 m 1,0,-1
 55 606 l 1,1,-1
 149 700 l 1,2,-1
 514 700 l 1,3,-1
 595 619 l 1,4,-1
 595 474 l 1,5,-1
 483 474 l 1,6,-1
 483 598 l 1,7,-1
 171 598 l 1,8,-1
 171 102 l 1,9,-1
 486 102 l 1,10,-1
 486 293 l 1,11,-1
 295 293 l 1,12,-1
 295 384 l 1,13,-1
 595 384 l 1,14,-1
 595 0 l 1,15,-1
 149 0 l 1,16,-1
 55 94 l 1,0,-1
EndSplineSet
EndChar

StartChar: H
Encoding: 72 72 14
Width: 740
GlyphClass: 2
Flags: W
AnchorPoint: "Anchor-2" 370 700 basechar 0
AnchorPoint: "Anchor-0" 370 0 basechar 0
LayerCount: 2
Fore
SplineSet
73 0 m 1,0,-1
 73 700 l 1,1,-1
 189 700 l 1,2,-1
 189 412 l 1,3,-1
 551 412 l 5,4,-1
 551 700 l 5,5,-1
 667 700 l 5,6,-1
 667 0 l 5,7,-1
 551 0 l 5,8,-1
 551 308 l 5,9,-1
 189 308 l 1,10,-1
 189 0 l 1,11,-1
 73 0 l 1,0,-1
EndSplineSet
EndChar

StartChar: I
Encoding: 73 73 15
Width: 502
GlyphClass: 2
Flags: W
AnchorPoint: "Anchor-2" 251 700 basechar 0
AnchorPoint: "Anchor-0" 251 0 basechar 0
LayerCount: 2
Fore
SplineSet
81 -4 m 1,0,-1
 81 93 l 1,1,-1
 193 98 l 1,2,-1
 193 602 l 1,3,-1
 81 607 l 1,4,-1
 81 704 l 1,5,-1
 251 696 l 1,6,-1
 421 704 l 1,7,-1
 421 607 l 1,8,-1
 309 602 l 1,9,-1
 309 98 l 1,10,-1
 421 93 l 1,11,-1
 421 -4 l 1,12,-1
 251 4 l 1,13,-1
 81 -4 l 1,0,-1
EndSplineSet
EndChar

StartChar: J
Encoding: 74 74 16
Width: 630
GlyphClass: 2
Flags: W
AnchorPoint: "Anchor-2" 322 700 basechar 0
AnchorPoint: "Anchor-0" 330 0 basechar 0
LayerCount: 2
Fore
SplineSet
35 102 m 1,0,-1
 35 310 l 1,1,-1
 151 310 l 1,2,-1
 151 104 l 1,3,-1
 459 104 l 5,4,-1
 459 598 l 5,5,-1
 319 598 l 5,6,-1
 319 700 l 5,7,-1
 575 700 l 5,8,-1
 575 102 l 5,9,-1
 473 0 l 5,10,-1
 137 0 l 1,11,-1
 35 102 l 1,0,-1
EndSplineSet
Substitution2: "+U1h9FH9uY9sA lookup 6 +MLUw1jDGMPww1jDr" Jacute
EndChar

StartChar: K
Encoding: 75 75 17
Width: 710
GlyphClass: 2
Flags: W
AnchorPoint: "Anchor-2" 337.5 700 basechar 0
AnchorPoint: "Anchor-0" 337.5 0 basechar 0
LayerCount: 2
Fore
SplineSet
76.5 0 m 1,0,-1
 76.5 700 l 1,1,-1
 192.5 700 l 1,2,-1
 192.5 406 l 1,3,-1
 335.5 406 l 1,4,-1
 506.5 700 l 1,5,-1
 638.5 700 l 1,6,-1
 440.5 370 l 1,7,-1
 653.5 0 l 1,8,-1
 521.5 0 l 1,9,-1
 347.5 304 l 1,10,-1
 192.5 304 l 1,11,-1
 192.5 0 l 1,12,-1
 76.5 0 l 1,0,-1
EndSplineSet
EndChar

StartChar: L
Encoding: 76 76 18
Width: 600
GlyphClass: 2
Flags: W
AnchorPoint: "Anchor-2" 196 700 basechar 0
AnchorPoint: "Anchor-0" 321 0 basechar 0
LayerCount: 2
Fore
SplineSet
574 0 m 17,0,-1
 66 0 l 1,1,-1
 66 700 l 1,2,-1
 182 700 l 1,3,-1
 182 100 l 1,4,-1
 524 100 l 9,5,-1
 574 0 l 17,0,-1
EndSplineSet
Substitution2: "'ss05' +MLkwvzCkMOswuzDDMMgA-5 lookup 27 +MLUw1jDGMPww1jDr" L.ss05
EndChar

StartChar: L.ss05
Encoding: 65542 -1 19
Width: 525
GlyphClass: 2
Flags: W
AnchorPoint: "Anchor-2" 186 700 basechar 0
AnchorPoint: "Anchor-0" 276 0 basechar 0
LayerCount: 2
Fore
SplineSet
56 0 m 1,0,-1
 56 700 l 1,1,-1
 172 700 l 1,2,-1
 172 104 l 1,3,-1
 496 104 l 1,4,-1
 496 0 l 1,5,-1
 56 0 l 1,0,-1
EndSplineSet
EndChar

StartChar: M
Encoding: 77 77 20
Width: 840
GlyphClass: 2
Flags: W
AnchorPoint: "Anchor-2" 420 700 basechar 0
AnchorPoint: "Anchor-0" 420 0 basechar 0
LayerCount: 2
Fore
SplineSet
76 0 m 1,0,-1
 76 700 l 1,1,-1
 219 700 l 1,2,-1
 420 349 l 1,3,-1
 621 700 l 5,4,-1
 764 700 l 5,5,-1
 764 0 l 5,6,-1
 650 0 l 5,7,-1
 650 555 l 5,8,-1
 452 212 l 1,9,-1
 388 212 l 1,10,-1
 190 555 l 1,11,-1
 190 0 l 1,12,-1
 76 0 l 1,0,-1
EndSplineSet
Substitution2: "'ss04' +MLkwvzCkMOswuzDDMMgA-4 lookup 26 +MLUw1jDGMPww1jDr" M.ss04
EndChar

StartChar: M.ss04
Encoding: 65543 -1 21
Width: 856
GlyphClass: 2
Flags: W
AnchorPoint: "Anchor-2" 428 700 basechar 0
AnchorPoint: "Anchor-0" 428 0 basechar 0
LayerCount: 2
Fore
SplineSet
56 0 m 1,0,-1
 56 700 l 1,1,-1
 250 700 l 1,2,-1
 428 214 l 1,3,-1
 606 700 l 1,4,-1
 800 700 l 1,5,-1
 800 0 l 1,6,-1
 686 0 l 1,7,-1
 686 584 l 1,8,-1
 671 584 l 1,9,-1
 480 76 l 1,10,-1
 376 76 l 1,11,-1
 185 584 l 1,12,-1
 170 584 l 1,13,-1
 170 0 l 1,14,-1
 56 0 l 1,0,-1
EndSplineSet
EndChar

StartChar: N
Encoding: 78 78 22
Width: 740
GlyphClass: 2
Flags: W
AnchorPoint: "Anchor-2" 370 700 basechar 0
AnchorPoint: "Anchor-0" 370 0 basechar 0
LayerCount: 2
Fore
SplineSet
76 0 m 1,0,-1
 76 700 l 1,1,-1
 214 700 l 1,2,-1
 552 155 l 5,3,-1
 552 700 l 5,4,-1
 664 700 l 5,5,-1
 664 0 l 5,6,-1
 526 0 l 5,7,-1
 188 545 l 1,8,-1
 188 0 l 1,9,-1
 76 0 l 1,0,-1
EndSplineSet
EndChar

StartChar: O
Encoding: 79 79 23
Width: 720
GlyphClass: 2
Flags: W
AnchorPoint: "Anchor-2" 360 700 basechar 0
AnchorPoint: "Anchor-0" 360 0 basechar 0
LayerCount: 2
Fore
SplineSet
75 94 m 1,0,-1
 75 606 l 1,1,-1
 169 700 l 1,2,-1
 551 700 l 1,3,-1
 645 606 l 1,4,-1
 645 94 l 1,5,-1
 551 0 l 1,6,-1
 169 0 l 1,7,-1
 75 94 l 1,0,-1
193 598 m 1,8,-1
 193 102 l 1,9,-1
 527 102 l 1,10,-1
 527 598 l 1,11,-1
 193 598 l 1,8,-1
EndSplineSet
EndChar

StartChar: P
Encoding: 80 80 24
Width: 662
GlyphClass: 2
Flags: W
AnchorPoint: "Anchor-2" 306 700 basechar 0
AnchorPoint: "Anchor-0" 226 0 basechar 0
LayerCount: 2
Fore
SplineSet
182 298 m 1,0,-1
 480 298 l 1,1,-1
 480 602 l 1,2,-1
 182 602 l 1,3,-1
 182 298 l 1,0,-1
596 606 m 1,4,-1
 596 294 l 1,5,-1
 502 200 l 1,6,-1
 182 200 l 1,7,-1
 182 0 l 1,8,-1
 66 0 l 1,9,-1
 66 700 l 1,10,-1
 502 700 l 1,11,-1
 596 606 l 1,4,-1
EndSplineSet
EndChar

StartChar: Q
Encoding: 81 81 25
Width: 720
GlyphClass: 2
Flags: W
AnchorPoint: "Anchor-2" 343 700 basechar 0
AnchorPoint: "Anchor-0" 343 0 basechar 0
LayerCount: 2
Fore
SplineSet
58 94 m 1,0,-1
 58 606 l 1,1,-1
 152 700 l 1,2,-1
 534 700 l 1,3,-1
 628 606 l 1,4,-1
 628 89 l 1,5,-1
 510 5 l 1,6,-1
 510 598 l 1,7,-1
 176 598 l 1,8,-1
 176 98 l 1,9,-1
 662 14 l 1,10,-1
 662 -92 l 1,11,-1
 152 0 l 1,12,-1
 58 94 l 1,0,-1
EndSplineSet
EndChar

StartChar: R
Encoding: 82 82 26
Width: 692
GlyphClass: 2
Flags: W
AnchorPoint: "Anchor-2" 310 700 basechar 0
AnchorPoint: "Anchor-0" 326 0 basechar 0
LayerCount: 2
Fore
SplineSet
166 324 m 1,0,-1
 476 324 l 1,1,-1
 476 602 l 1,2,-1
 166 602 l 1,3,-1
 166 324 l 1,0,-1
592 606 m 1,4,-1
 592 322 l 1,5,-1
 520 250 l 1,6,-1
 642 0 l 1,7,-1
 515 0 l 1,8,-1
 410 226 l 1,9,-1
 166 226 l 1,10,-1
 166 0 l 1,11,-1
 50 0 l 1,12,-1
 50 700 l 1,13,-1
 498 700 l 1,14,-1
 592 606 l 1,4,-1
EndSplineSet
EndChar

StartChar: S
Encoding: 83 83 27
Width: 680
GlyphClass: 2
Flags: WO
AnchorPoint: "Anchor-2" 356 700 basechar 0
AnchorPoint: "Anchor-0" 324 0 basechar 0
LayerCount: 2
Fore
SplineSet
60 0 m 1,0,-1
 110 102 l 1,1,-1
 489 102 l 1,2,-1
 489 294 l 1,3,-1
 75 327 l 1,4,-1
 75 608 l 1,5,-1
 167 700 l 1,6,-1
 595 700 l 1,7,-1
 595 598 l 1,8,-1
 191 598 l 1,9,-1
 191 416 l 1,10,-1
 605 383 l 1,11,-1
 605 92 l 1,12,-1
 513 0 l 1,13,-1
 60 0 l 1,0,-1
EndSplineSet
Substitution2: "'ss03' +MLkwvzCkMOswuzDDMMgA-3 lookup 25 +MLUw1jDGMPww1jDr" S.ss03
Substitution2: "'ss02' +MLkwvzCkMOswuzDDMMgA-2 lookup 24 +MLUw1jDGMPww1jDr" S.ss02
EndChar

StartChar: S.ss02
Encoding: 65544 -1 28
Width: 656
GlyphClass: 2
Flags: W
AnchorPoint: "Anchor-2" 342 700 basechar 0
AnchorPoint: "Anchor-0" 310 0 basechar 0
LayerCount: 2
Fore
SplineSet
57 0 m 1,0,-1
 57 206 l 1,1,-1
 161 206 l 1,2,-1
 161 100 l 1,3,-1
 485 100 l 1,4,-1
 485 296 l 1,5,-1
 55 329 l 1,6,-1
 55 608 l 1,7,-1
 147 700 l 1,8,-1
 587 700 l 1,9,-1
 587 494 l 1,10,-1
 483 494 l 1,11,-1
 483 600 l 1,12,-1
 171 600 l 1,13,-1
 171 417 l 1,14,-1
 601 384 l 1,15,-1
 601 92 l 1,16,-1
 509 0 l 1,17,-1
 57 0 l 1,0,-1
EndSplineSet
EndChar

StartChar: S.ss03
Encoding: 65545 -1 29
Width: 654
GlyphClass: 2
Flags: W
AnchorPoint: "Anchor-2" 337 700 basechar 0
AnchorPoint: "Anchor-0" 311 0 basechar 0
LayerCount: 2
Fore
SplineSet
55 90 m 1,0,-1
 55 208 l 1,1,-1
 163 208 l 1,2,-1
 163 100 l 1,3,-1
 483 100 l 1,4,-1
 483 297 l 1,5,-1
 55 330 l 1,6,-1
 55 610 l 1,7,-1
 145 700 l 1,8,-1
 509 700 l 1,9,-1
 599 610 l 1,10,-1
 599 492 l 1,11,-1
 491 492 l 1,12,-1
 491 600 l 1,13,-1
 171 600 l 1,14,-1
 171 416 l 1,15,-1
 599 383 l 1,16,-1
 599 90 l 1,17,-1
 509 0 l 1,18,-1
 145 0 l 1,19,-1
 55 90 l 1,0,-1
EndSplineSet
EndChar

StartChar: T
Encoding: 84 84 30
Width: 644
GlyphClass: 2
Flags: W
AnchorPoint: "Anchor-2" 322 700 basechar 0
AnchorPoint: "Anchor-0" 322 0 basechar 0
LayerCount: 2
Fore
SplineSet
264 0 m 1,0,-1
 264 598 l 1,1,-1
 40 598 l 1,2,-1
 40 700 l 1,3,-1
 604 700 l 1,4,-1
 604 598 l 1,5,-1
 380 598 l 1,6,-1
 380 0 l 1,7,-1
 264 0 l 1,0,-1
EndSplineSet
EndChar

StartChar: U
Encoding: 85 85 31
Width: 740
GlyphClass: 2
Flags: W
AnchorPoint: "Anchor-2" 370 700 basechar 0
AnchorPoint: "Anchor-1" 413 0 basechar 0
AnchorPoint: "Anchor-0" 370 0 basechar 0
LayerCount: 2
Fore
SplineSet
86 94 m 1,0,-1
 86 700 l 1,1,-1
 202 700 l 1,2,-1
 202 104 l 1,3,-1
 538 104 l 1,4,-1
 538 700 l 1,5,-1
 654 700 l 1,6,-1
 654 94 l 1,7,-1
 560 0 l 1,8,-1
 180 0 l 1,9,-1
 86 94 l 1,0,-1
EndSplineSet
EndChar

StartChar: V
Encoding: 86 86 32
Width: 692
GlyphClass: 2
Flags: W
AnchorPoint: "Anchor-2" 346 700 basechar 0
AnchorPoint: "Anchor-0" 346 0 basechar 0
LayerCount: 2
Fore
SplineSet
210 0 m 1,0,-1
 37 700 l 1,1,-1
 159 700 l 1,2,-1
 300 104 l 1,3,-1
 392 104 l 1,4,-1
 533 700 l 1,5,-1
 655 700 l 1,6,-1
 482 0 l 1,7,-1
 210 0 l 1,0,-1
EndSplineSet
EndChar

StartChar: W
Encoding: 87 87 33
Width: 898
GlyphClass: 2
Flags: W
AnchorPoint: "Anchor-2" 449 700 basechar 0
AnchorPoint: "Anchor-0" 449 0 basechar 0
LayerCount: 2
Fore
SplineSet
148 0 m 1,0,-1
 36 700 l 1,1,-1
 155 700 l 1,2,-1
 244 112 l 1,3,-1
 297 112 l 1,4,-1
 387 590 l 1,5,-1
 511 590 l 1,6,-1
 601 112 l 1,7,-1
 654 112 l 1,8,-1
 743 700 l 1,9,-1
 862 700 l 1,10,-1
 750 0 l 1,11,-1
 532 0 l 1,12,-1
 449 450 l 1,13,-1
 366 0 l 1,14,-1
 148 0 l 1,0,-1
EndSplineSet
EndChar

StartChar: X
Encoding: 88 88 34
Width: 700
GlyphClass: 2
Flags: W
AnchorPoint: "Anchor-2" 350 700 basechar 0
AnchorPoint: "Anchor-0" 350 0 basechar 0
LayerCount: 2
Fore
SplineSet
36 0 m 1,0,-1
 208 370 l 1,1,-1
 51 700 l 1,2,-1
 176 700 l 1,3,-1
 307 412 l 1,4,-1
 393 412 l 1,5,-1
 524 700 l 1,6,-1
 649 700 l 1,7,-1
 492 370 l 1,8,-1
 664 0 l 1,9,-1
 538 0 l 1,10,-1
 402 308 l 1,11,-1
 298 308 l 1,12,-1
 162 0 l 1,13,-1
 36 0 l 1,0,-1
EndSplineSet
EndChar

StartChar: Y
Encoding: 89 89 35
Width: 680
GlyphClass: 2
Flags: W
AnchorPoint: "Anchor-2" 340 700 basechar 0
AnchorPoint: "Anchor-0" 340 0 basechar 0
LayerCount: 2
Fore
SplineSet
282 0 m 1,0,-1
 282 310 l 1,1,-1
 195 310 l 1,2,-1
 41 700 l 1,3,-1
 164 700 l 1,4,-1
 279 410 l 1,5,-1
 401 410 l 1,6,-1
 516 700 l 1,7,-1
 639 700 l 1,8,-1
 485 310 l 1,9,-1
 398 310 l 1,10,-1
 398 0 l 1,11,-1
 282 0 l 1,0,-1
EndSplineSet
EndChar

StartChar: Z
Encoding: 90 90 36
Width: 673
GlyphClass: 2
Flags: W
AnchorPoint: "Anchor-2" 336 700 basechar 0
AnchorPoint: "Anchor-0" 336 0 basechar 0
LayerCount: 2
Fore
SplineSet
70 0 m 1,0,-1
 70 88 l 1,1,-1
 469 600 l 1,2,-1
 71 600 l 1,3,-1
 71 700 l 1,4,-1
 602 700 l 1,5,-1
 602 612 l 1,6,-1
 203 100 l 1,7,-1
 603 100 l 1,8,-1
 603 0 l 1,9,-1
 70 0 l 1,0,-1
EndSplineSet
EndChar

StartChar: a
Encoding: 97 97 37
Width: 640
GlyphClass: 2
Flags: W
AnchorPoint: "Anchor-2" 306 560 basechar 0
AnchorPoint: "Anchor-1" 488 0 basechar 0
AnchorPoint: "Anchor-0" 306 0 basechar 0
LayerCount: 2
Fore
SplineSet
68 100 m 1,0,-1
 68 320 l 1,1,-1
 450 330 l 1,2,-1
 450 460 l 1,3,-1
 88 460 l 1,4,-1
 88 560 l 1,5,-1
 466 560 l 1,6,-1
 566 460 l 1,7,-1
 566 0 l 1,8,-1
 168 0 l 1,9,-1
 68 100 l 1,0,-1
184 236 m 1,10,-1
 184 98 l 1,11,-1
 450 98 l 1,12,-1
 450 256 l 1,13,-1
 184 236 l 1,10,-1
EndSplineSet
EndChar

StartChar: b
Encoding: 98 98 38
Width: 652
GlyphClass: 2
Flags: W
AnchorPoint: "Anchor-2" 295 700 basechar 0
AnchorPoint: "Anchor-0" 295 0 basechar 0
LayerCount: 2
Fore
SplineSet
75 0 m 1,0,-1
 75 700 l 1,1,-1
 191 700 l 1,2,-1
 191 520 l 1,3,-1
 487 520 l 1,4,-1
 589 418 l 1,5,-1
 589 102 l 1,6,-1
 487 0 l 1,7,-1
 75 0 l 1,0,-1
191 100 m 1,8,-1
 473 100 l 1,9,-1
 473 420 l 1,10,-1
 191 420 l 1,11,-1
 191 100 l 1,8,-1
EndSplineSet
EndChar

StartChar: c
Encoding: 99 99 39
Width: 580
GlyphClass: 2
Flags: W
AnchorPoint: "Anchor-2" 339 560 basechar 0
AnchorPoint: "Anchor-0" 339 0 basechar 0
LayerCount: 2
Fore
SplineSet
59 98 m 1,0,-1
 59 462 l 1,1,-1
 157 560 l 1,2,-1
 546 560 l 1,3,-1
 496 456 l 1,4,-1
 175 456 l 1,5,-1
 175 104 l 1,6,-1
 521 104 l 1,7,-1
 521 0 l 1,8,-1
 157 0 l 1,9,-1
 59 98 l 1,0,-1
EndSplineSet
EndChar

StartChar: d
Encoding: 100 100 40
Width: 646
GlyphClass: 2
Flags: W
AnchorPoint: "Anchor-2" 353 700 basechar 0
AnchorPoint: "Anchor-0" 353 0 basechar 0
LayerCount: 2
Fore
SplineSet
573 700 m 1,0,-1
 573 0 l 1,1,-1
 161 0 l 1,2,-1
 59 102 l 1,3,-1
 59 458 l 1,4,-1
 161 560 l 1,5,-1
 457 560 l 1,6,-1
 457 700 l 1,7,-1
 573 700 l 1,0,-1
175 100 m 1,8,-1
 457 100 l 1,9,-1
 457 460 l 1,10,-1
 175 460 l 1,11,-1
 175 100 l 1,8,-1
EndSplineSet
EndChar

StartChar: e
Encoding: 101 101 41
Width: 630
GlyphClass: 2
Flags: W
AnchorPoint: "Anchor-2" 325 560 basechar 0
AnchorPoint: "Anchor-1" 441 0 basechar 0
AnchorPoint: "Anchor-0" 325 0 basechar 0
LayerCount: 2
Fore
SplineSet
65 98 m 1,0,-1
 65 462 l 1,1,-1
 163 560 l 1,2,-1
 555 560 l 1,3,-1
 555 248 l 1,4,-1
 181 248 l 1,5,-1
 181 100 l 1,6,-1
 535 100 l 1,7,-1
 535 0 l 1,8,-1
 163 0 l 1,9,-1
 65 98 l 1,0,-1
181 322 m 1,10,-1
 450 332 l 1,11,-1
 450 464 l 1,12,-1
 181 464 l 1,13,-1
 181 322 l 1,10,-1
EndSplineSet
EndChar

StartChar: f
Encoding: 102 102 42
Width: 554
GlyphClass: 2
Flags: W
AnchorPoint: "Anchor-2" 338 700 basechar 0
AnchorPoint: "Anchor-0" 338 0 basechar 0
LayerCount: 2
Fore
SplineSet
158 330 m 1,0,-1
 54 330 l 1,1,-1
 54 430 l 1,2,-1
 158 430 l 1,3,-1
 158 602 l 1,4,-1
 256 700 l 1,5,-1
 500 700 l 1,6,-1
 500 598 l 1,7,-1
 274 598 l 1,8,-1
 274 430 l 1,9,-1
 500 430 l 1,10,-1
 500 330 l 1,11,-1
 274 330 l 1,12,-1
 274 0 l 1,13,-1
 158 0 l 1,14,-1
 158 330 l 1,0,-1
EndSplineSet
EndChar

StartChar: g
Encoding: 103 103 43
Width: 650
GlyphClass: 2
Flags: W
AnchorPoint: "Anchor-2" 339 560 basechar 0
AnchorPoint: "Anchor-0" 309 -160 basechar 0
LayerCount: 2
Fore
SplineSet
107 -140 m 1,0,-1
 107 -40 l 1,1,-1
 461 -40 l 1,2,-1
 461 80 l 1,3,-1
 171 80 l 1,4,-1
 73 178 l 1,5,-1
 73 462 l 1,6,-1
 179 560 l 1,7,-1
 577 560 l 1,8,-1
 577 -32 l 1,9,-1
 469 -140 l 1,10,-1
 107 -140 l 1,0,-1
189 460 m 1,11,-1
 189 178 l 1,12,-1
 461 178 l 1,13,-1
 461 460 l 1,14,-1
 189 460 l 1,11,-1
EndSplineSet
EndChar

StartChar: h
Encoding: 104 104 44
Width: 660
GlyphClass: 2
Flags: W
AnchorPoint: "Anchor-2" 264 700 basechar 0
AnchorPoint: "Anchor-0" 330 0 basechar 0
LayerCount: 2
Fore
SplineSet
76 0 m 1,0,-1
 76 700 l 1,1,-1
 192 700 l 1,2,-1
 192 520 l 1,3,-1
 484 520 l 1,4,-1
 584 420 l 1,5,-1
 584 0 l 1,6,-1
 468 0 l 1,7,-1
 468 420 l 1,8,-1
 192 420 l 1,9,-1
 192 0 l 1,10,-1
 76 0 l 1,0,-1
EndSplineSet
EndChar

StartChar: i
Encoding: 105 105 45
Width: 288
GlyphClass: 2
Flags: W
AnchorPoint: "Anchor-2" 144 714 basechar 0
AnchorPoint: "Anchor-0" 144 0 basechar 0
LayerCount: 2
Fore
SplineSet
86 0 m 1,0,-1
 86 530 l 1,1,-1
 202 530 l 1,2,-1
 202 0 l 1,3,-1
 86 0 l 1,0,-1
86 624 m 1,4,-1
 86 714 l 1,5,-1
 202 714 l 1,6,-1
 202 624 l 1,7,-1
 86 624 l 1,4,-1
EndSplineSet
Substitution2: "+U1h9FH9uY9sA lookup 1 +MLUw1jDGMPww1jDr" dotlessi
EndChar

StartChar: j
Encoding: 106 106 46
Width: 350
GlyphClass: 2
Flags: W
AnchorPoint: "Anchor-2" 180 714 basechar 0
AnchorPoint: "Anchor-0" 81 -134 basechar 0
LayerCount: 2
Fore
SplineSet
123 536 m 17,0,-1
 239 536 l 1,1,-1
 239 59 l 1,2,3
 239 59 239 59 139 -134 c 1,4,-1
 23 -134 l 1,5,-1
 123 59 l 9,6,7
 123 59 123 59 123 536 c 17,0,-1
122 624 m 1,8,-1
 122 714 l 1,9,-1
 238 714 l 1,10,-1
 238 624 l 1,11,-1
 122 624 l 1,8,-1
EndSplineSet
Substitution2: "+U1h9FH9uY9sA lookup 6 +MLUw1jDGMPww1jDr" jacute
Substitution2: "+U1h9FH9uY9sA lookup 1 +MLUw1jDGMPww1jDr" uni0237
EndChar

StartChar: k
Encoding: 107 107 47
Width: 644
GlyphClass: 2
Flags: W
AnchorPoint: "Anchor-2" 282 700 basechar 0
AnchorPoint: "Anchor-0" 307 0 basechar 0
LayerCount: 2
Fore
SplineSet
62 0 m 1,0,-1
 62 700 l 1,1,-1
 178 700 l 1,2,-1
 178 341 l 1,3,-1
 329 341 l 1,4,-1
 461 560 l 1,5,-1
 593 560 l 1,6,-1
 426 302 l 1,7,-1
 602 0 l 1,8,-1
 471 0 l 1,9,-1
 336 241 l 1,10,-1
 178 241 l 1,11,-1
 178 0 l 1,12,-1
 62 0 l 1,0,-1
EndSplineSet
EndChar

StartChar: l
Encoding: 108 108 48
Width: 272
GlyphClass: 2
Flags: W
AnchorPoint: "Anchor-2" 136 700 basechar 0
AnchorPoint: "Anchor-0" 136 0 basechar 0
LayerCount: 2
Fore
SplineSet
78 0 m 1,0,-1
 78 700 l 1,1,-1
 194 700 l 1,2,-1
 194 0 l 1,3,-1
 78 0 l 1,0,-1
EndSplineSet
EndChar

StartChar: m
Encoding: 109 109 49
Width: 960
GlyphClass: 2
Flags: W
AnchorPoint: "Anchor-2" 480 560 basechar 0
AnchorPoint: "Anchor-0" 480 0 basechar 0
LayerCount: 2
Fore
SplineSet
76 560 m 1,0,-1
 776 560 l 1,1,-1
 884 452 l 1,2,-1
 884 0 l 1,3,-1
 769 0 l 1,4,-1
 769 461 l 1,5,-1
 537 461 l 1,6,-1
 537 0 l 1,7,-1
 423 0 l 1,8,-1
 423 461 l 1,9,-1
 191 461 l 1,10,-1
 191 0 l 1,11,-1
 76 0 l 1,12,-1
 76 560 l 1,0,-1
EndSplineSet
EndChar

StartChar: n
Encoding: 110 110 50
Width: 680
GlyphClass: 2
Flags: W
AnchorPoint: "Anchor-2" 340 560 basechar 0
AnchorPoint: "Anchor-0" 340 0 basechar 0
LayerCount: 2
Fore
SplineSet
76 0 m 1,0,-1
 76 560 l 1,1,-1
 504 560 l 1,2,-1
 604 460 l 1,3,-1
 604 0 l 1,4,-1
 488 0 l 1,5,-1
 488 458 l 1,6,-1
 192 458 l 1,7,-1
 192 0 l 1,8,-1
 76 0 l 1,0,-1
EndSplineSet
EndChar

StartChar: o
Encoding: 111 111 51
Width: 640
GlyphClass: 2
Flags: W
AnchorPoint: "Anchor-2" 320 560 basechar 0
AnchorPoint: "Anchor-0" 320 0 basechar 0
LayerCount: 2
Fore
SplineSet
50 98 m 1,0,-1
 50 462 l 1,1,-1
 148 560 l 1,2,-1
 492 560 l 1,3,-1
 590 462 l 1,4,-1
 590 98 l 1,5,-1
 492 0 l 1,6,-1
 148 0 l 1,7,-1
 50 98 l 1,0,-1
166 98 m 1,8,-1
 474 98 l 1,9,-1
 474 462 l 1,10,-1
 166 462 l 1,11,-1
 166 98 l 1,8,-1
EndSplineSet
EndChar

StartChar: p
Encoding: 112 112 52
Width: 660
GlyphClass: 2
Flags: W
AnchorPoint: "Anchor-2" 313 560 basechar 0
AnchorPoint: "Anchor-0" 293 -140 basechar 0
LayerCount: 2
Fore
SplineSet
73 -140 m 1,0,-1
 73 560 l 1,1,-1
 485 560 l 1,2,-1
 587 458 l 1,3,-1
 587 102 l 1,4,-1
 485 0 l 1,5,-1
 189 0 l 1,6,-1
 189 -140 l 1,7,-1
 73 -140 l 1,0,-1
471 460 m 1,8,-1
 189 460 l 1,9,-1
 189 100 l 1,10,-1
 471 100 l 1,11,-1
 471 460 l 1,8,-1
EndSplineSet
EndChar

StartChar: q
Encoding: 113 113 53
Width: 660
GlyphClass: 2
Flags: W
AnchorPoint: "Anchor-2" 347 560 basechar 0
AnchorPoint: "Anchor-0" 367 -140 basechar 0
LayerCount: 2
Fore
SplineSet
587 560 m 1,0,-1
 587 -140 l 1,1,-1
 471 -140 l 1,2,-1
 471 0 l 1,3,-1
 175 0 l 1,4,-1
 73 102 l 1,5,-1
 73 458 l 1,6,-1
 175 560 l 1,7,-1
 587 560 l 1,0,-1
471 460 m 1,8,-1
 189 460 l 1,9,-1
 189 100 l 1,10,-1
 471 100 l 1,11,-1
 471 460 l 1,8,-1
EndSplineSet
EndChar

StartChar: r
Encoding: 114 114 54
Width: 484
GlyphClass: 2
Flags: W
AnchorPoint: "Anchor-2" 260 560 basechar 0
AnchorPoint: "Anchor-0" 116 0 basechar 0
LayerCount: 2
Fore
SplineSet
58 0 m 1,0,-1
 58 460 l 1,1,-1
 158 560 l 1,2,-1
 452 560 l 1,3,-1
 452 456 l 1,4,-1
 174 456 l 1,5,-1
 174 0 l 1,6,-1
 58 0 l 1,0,-1
EndSplineSet
EndChar

StartChar: s
Encoding: 115 115 55
Width: 636
GlyphClass: 2
Flags: W
AnchorPoint: "Anchor-2" 338 560 basechar 0
AnchorPoint: "Anchor-0" 298 0 basechar 0
LayerCount: 2
Fore
SplineSet
70 0 m 1,0,-1
 70 98 l 1,1,-1
 450 98 l 1,2,-1
 450 242 l 1,3,-1
 70 242 l 1,4,-1
 70 462 l 1,5,-1
 168 560 l 1,6,-1
 566 560 l 1,7,-1
 566 462 l 1,8,-1
 186 462 l 1,9,-1
 186 326 l 1,10,-1
 566 326 l 1,11,-1
 566 95 l 1,12,-1
 471 0 l 1,13,-1
 70 0 l 1,0,-1
EndSplineSet
EndChar

StartChar: t
Encoding: 116 116 56
Width: 538
GlyphClass: 2
Flags: W
AnchorPoint: "Anchor-2" 343.5 700 basechar 0
AnchorPoint: "Anchor-0" 341.5 0 basechar 0
LayerCount: 2
Fore
SplineSet
141.5 700 m 1,0,-1
 257.5 700 l 1,1,-1
 257.5 540 l 1,2,-1
 455.5 540 l 1,3,-1
 455.5 440 l 1,4,-1
 257.5 440 l 1,5,-1
 257.5 100 l 1,6,-1
 445.5 100 l 1,7,-1
 495.5 0 l 1,8,-1
 241.5 0 l 1,9,-1
 141.5 100 l 1,10,-1
 141.5 440 l 1,11,-1
 50.5 440 l 1,12,-1
 50.5 540 l 1,13,-1
 141.5 540 l 1,14,-1
 141.5 700 l 1,0,-1
EndSplineSet
EndChar

StartChar: u
Encoding: 117 117 57
Width: 660
GlyphClass: 2
Flags: W
AnchorPoint: "Anchor-2" 330 560 basechar 0
AnchorPoint: "Anchor-1" 498 0 basechar 0
AnchorPoint: "Anchor-0" 330 0 basechar 0
LayerCount: 2
Fore
SplineSet
584 560 m 1,0,-1
 584 0 l 1,1,-1
 176 0 l 1,2,-1
 76 100 l 1,3,-1
 76 560 l 1,4,-1
 192 560 l 1,5,-1
 192 102 l 1,6,-1
 468 102 l 1,7,-1
 468 560 l 1,8,-1
 584 560 l 1,0,-1
EndSplineSet
EndChar

StartChar: v
Encoding: 118 118 58
Width: 620
GlyphClass: 2
Flags: W
AnchorPoint: "Anchor-2" 310 560 basechar 0
AnchorPoint: "Anchor-0" 310 0 basechar 0
LayerCount: 2
Fore
SplineSet
177 0 m 1,0,-1
 30 560 l 1,1,-1
 148 560 l 1,2,-1
 262 100 l 1,3,-1
 359 100 l 1,4,-1
 473 560 l 1,5,-1
 590 560 l 1,6,-1
 443 0 l 1,7,-1
 177 0 l 1,0,-1
EndSplineSet
EndChar

StartChar: w
Encoding: 119 119 59
Width: 880
GlyphClass: 2
Flags: W
AnchorPoint: "Anchor-2" 440 560 basechar 0
AnchorPoint: "Anchor-0" 440 0 basechar 0
LayerCount: 2
Fore
SplineSet
144 0 m 1,0,-1
 55 560 l 1,1,-1
 171 560 l 1,2,-1
 240 100 l 1,3,-1
 285 100 l 1,4,-1
 373 508 l 1,5,-1
 507 508 l 1,6,-1
 595 100 l 1,7,-1
 640 100 l 1,8,-1
 709 560 l 1,9,-1
 825 560 l 1,10,-1
 736 0 l 1,11,-1
 523 0 l 1,12,-1
 440 384 l 1,13,-1
 357 0 l 1,14,-1
 144 0 l 1,0,-1
EndSplineSet
EndChar

StartChar: x
Encoding: 120 120 60
Width: 670
GlyphClass: 2
Flags: W
AnchorPoint: "Anchor-2" 335 560 basechar 0
AnchorPoint: "Anchor-0" 335 0 basechar 0
LayerCount: 2
Fore
SplineSet
42 0 m 1,0,-1
 194 298 l 1,1,-1
 55 560 l 1,2,-1
 185 560 l 1,3,-1
 293 338 l 1,4,-1
 377 338 l 1,5,-1
 485 560 l 1,6,-1
 615 560 l 1,7,-1
 476 298 l 1,8,-1
 628 0 l 1,9,-1
 498 0 l 1,10,-1
 386 238 l 1,11,-1
 284 238 l 1,12,-1
 172 0 l 1,13,-1
 42 0 l 1,0,-1
EndSplineSet
EndChar

StartChar: y
Encoding: 121 121 61
Width: 640
GlyphClass: 2
Flags: W
AnchorPoint: "Anchor-2" 320 560 basechar 0
AnchorPoint: "Anchor-0" 255 -160 basechar 0
LayerCount: 2
Fore
SplineSet
61 -140 m 1,0,-1
 61 -40 l 1,1,-1
 318 -40 l 1,2,-1
 354 80 l 1,3,-1
 182 80 l 1,4,-1
 30 560 l 1,5,-1
 148 560 l 1,6,-1
 266 178 l 1,7,-1
 380 178 l 1,8,-1
 493 560 l 1,9,-1
 610 560 l 1,10,-1
 400 -140 l 1,11,-1
 61 -140 l 1,0,-1
EndSplineSet
EndChar

StartChar: z
Encoding: 122 122 62
Width: 570
GlyphClass: 2
Flags: W
AnchorPoint: "Anchor-2" 285 560 basechar 0
AnchorPoint: "Anchor-0" 285 0 basechar 0
LayerCount: 2
Fore
SplineSet
48 0 m 1,0,-1
 48 80 l 1,1,-1
 374 460 l 1,2,-1
 54 460 l 1,3,-1
 54 560 l 1,4,-1
 518 560 l 1,5,-1
 518 480 l 1,6,-1
 192 100 l 1,7,-1
 522 100 l 1,8,-1
 522 0 l 1,9,-1
 48 0 l 1,0,-1
EndSplineSet
EndChar

StartChar: AE
Encoding: 198 198 91
Width: 921
GlyphClass: 2
Flags: W
AnchorPoint: "Anchor-2" 558 700 basechar 0
AnchorPoint: "Anchor-0" 460 0 basechar 0
LayerCount: 2
Fore
SplineSet
17 0 m 1,0,-1
 221 700 l 1,1,-1
 881 700 l 1,2,-1
 881 600 l 1,3,-1
 561 600 l 1,4,-1
 561 408 l 1,5,-1
 831 408 l 1,6,-1
 831 310 l 1,7,-1
 561 310 l 1,8,-1
 561 100 l 1,9,-1
 891 100 l 1,10,-1
 891 0 l 1,11,-1
 447 0 l 1,12,-1
 447 170 l 1,13,-1
 186 170 l 1,14,-1
 138 0 l 1,15,-1
 17 0 l 1,0,-1
209 262 m 1,16,-1
 449 262 l 1,17,-1
 449 604 l 1,18,-1
 307 604 l 1,19,-1
 209 262 l 1,16,-1
EndSplineSet
Substitution2: "'ss01' +MLkwvzCkMOswuzDDMMgA-1 lookup 23 +MLUw1jDGMPww1jDr" AE.ss01
EndChar

StartChar: ae
Encoding: 230 230 92
Width: 920
GlyphClass: 2
Flags: W
AnchorPoint: "Anchor-2" 460 560 basechar 0
AnchorPoint: "Anchor-0" 460 0 basechar 0
LayerCount: 2
Fore
SplineSet
46 100 m 1,0,-1
 46 320 l 1,1,-1
 404 330 l 1,2,-1
 404 460 l 1,3,-1
 66 460 l 1,4,-1
 66 560 l 1,5,-1
 400 560 l 1,6,-1
 462 498 l 1,7,-1
 524 560 l 1,8,-1
 870 560 l 1,9,-1
 870 248 l 1,10,-1
 520 248 l 1,11,-1
 520 98 l 1,12,-1
 850 98 l 1,13,-1
 850 0 l 1,14,-1
 146 0 l 1,15,-1
 46 100 l 1,0,-1
520 322 m 1,16,-1
 762 332 l 1,17,-1
 762 464 l 1,18,-1
 520 464 l 1,19,-1
 520 322 l 1,16,-1
162 236 m 1,20,-1
 162 96 l 1,21,-1
 404 96 l 1,22,-1
 404 256 l 1,23,-1
 162 236 l 1,20,-1
EndSplineSet
EndChar

StartChar: uni0181
Encoding: 385 385 97
Width: 795
GlyphClass: 2
Flags: W
AnchorPoint: "Anchor-2" 451 700 basechar 0
AnchorPoint: "Anchor-0" 451 0 basechar 0
LayerCount: 2
Fore
SplineSet
115 602 m 1,0,-1
 115 444 l 1,1,-1
 10 444 l 1,2,-1
 10 604 l 1,3,-1
 106 700 l 1,4,-1
 647 700 l 1,5,-1
 739 608 l 1,6,-1
 739 419 l 1,7,-1
 688 374 l 1,8,-1
 759 312 l 1,9,-1
 759 92 l 1,10,-1
 667 0 l 1,11,-1
 209 0 l 1,12,-1
 209 602 l 1,13,-1
 115 602 l 1,0,-1
325 409 m 1,14,-1
 622 409 l 1,15,-1
 622 602 l 1,16,-1
 325 602 l 1,17,-1
 325 409 l 1,14,-1
325 98 m 1,18,-1
 641 98 l 1,19,-1
 641 317 l 1,20,-1
 325 317 l 1,21,-1
 325 98 l 1,18,-1
EndSplineSet
EndChar

StartChar: uni0253
Encoding: 595 595 98
Width: 620
GlyphClass: 1
Flags: W
LayerCount: 2
Fore
SplineSet
172 100 m 1,0,-1
 454 100 l 1,1,-1
 454 430 l 1,2,-1
 172 430 l 1,3,-1
 172 100 l 1,0,-1
56 0 m 1,4,-1
 56 602 l 1,5,-1
 154 700 l 1,6,-1
 326 700 l 1,7,-1
 326 604 l 1,8,-1
 172 604 l 1,9,-1
 172 524 l 1,10,-1
 468 524 l 1,11,-1
 570 422 l 1,12,-1
 570 102 l 1,13,-1
 468 0 l 1,14,-1
 56 0 l 1,4,-1
EndSplineSet
EndChar

StartChar: dcroat
Encoding: 273 273 116
Width: 620
GlyphClass: 2
Flags: W
AnchorPoint: "Anchor-2" 344 700 basechar 0
AnchorPoint: "Anchor-0" 344 0 basechar 0
LayerCount: 2
Fore
SplineSet
564 700 m 1,0,-1
 564 0 l 1,1,-1
 152 0 l 1,2,-1
 50 102 l 1,3,-1
 50 384 l 1,4,-1
 152 486 l 1,5,-1
 448 486 l 1,6,-1
 448 700 l 1,7,-1
 564 700 l 1,0,-1
166 100 m 1,8,-1
 448 100 l 1,9,-1
 448 386 l 1,10,-1
 166 386 l 1,11,-1
 166 100 l 1,8,-1
191 553 m 1,12,-1
 191 624 l 1,13,-1
 551 624 l 1,14,-1
 551 553 l 1,15,-1
 191 553 l 1,12,-1
EndSplineSet
EndChar

StartChar: Eth
Encoding: 208 208 119
Width: 637
GlyphClass: 1
Flags: W
LayerCount: 2
Fore
SplineSet
10 304 m 1,0,-1
 10 396 l 1,1,-1
 324 396 l 1,2,-1
 324 304 l 1,3,-1
 10 304 l 1,0,-1
174 102 m 1,4,-1
 466 102 l 1,5,-1
 466 598 l 1,6,-1
 174 598 l 1,7,-1
 174 102 l 1,4,-1
58 0 m 1,8,-1
 58 700 l 1,9,-1
 488 700 l 1,10,-1
 582 606 l 1,11,-1
 582 94 l 1,12,-1
 488 0 l 1,13,-1
 58 0 l 1,8,-1
EndSplineSet
EndChar

StartChar: eth
Encoding: 240 240 120
Width: 640
GlyphClass: 1
Flags: W
LayerCount: 2
Fore
SplineSet
150 0 m 1,0,-1
 490 0 l 1,1,-1
 590 100 l 1,2,-1
 590 452 l 1,3,-1
 284 700 l 1,4,-1
 120 700 l 1,5,-1
 429 456 l 1,6,-1
 50 382 l 1,7,-1
 50 100 l 1,8,-1
 150 0 l 1,0,-1
474 385 m 1,9,-1
 474 100 l 1,10,-1
 166 100 l 1,11,-1
 166 321 l 1,12,-1
 474 385 l 1,9,-1
100 505 m 1,13,-1
 542 623 l 1,14,-1
 542 700 l 1,15,-1
 100 582 l 1,16,-1
 100 505 l 1,13,-1
EndSplineSet
EndChar

StartChar: uni0256
Encoding: 598 598 122
Width: 620
GlyphClass: 1
Flags: W
LayerCount: 2
Fore
SplineSet
564 -38 m 1,0,-1
 628 -38 l 1,1,-1
 628 -140 l 1,2,-1
 538 -140 l 1,3,-1
 448 -50 l 1,4,-1
 448 0 l 1,5,-1
 152 0 l 1,6,-1
 50 102 l 1,7,-1
 50 458 l 1,8,-1
 152 560 l 1,9,-1
 448 560 l 1,10,-1
 448 700 l 1,11,-1
 564 700 l 1,12,-1
 564 -38 l 1,0,-1
166 460 m 1,13,-1
 166 100 l 1,14,-1
 448 100 l 1,15,-1
 448 460 l 1,16,-1
 166 460 l 1,13,-1
EndSplineSet
EndChar

StartChar: uni018A
Encoding: 394 394 123
Width: 788
GlyphClass: 2
Flags: W
AnchorPoint: "Anchor-2" 451 700 basechar 0
AnchorPoint: "Anchor-0" 451 0 basechar 0
LayerCount: 2
Fore
SplineSet
115 602 m 1,0,-1
 115 444 l 1,1,-1
 10 444 l 1,2,-1
 10 604 l 1,3,-1
 106 700 l 1,4,-1
 639 700 l 1,5,-1
 733 606 l 1,6,-1
 733 94 l 1,7,-1
 639 0 l 1,8,-1
 209 0 l 1,9,-1
 209 602 l 1,10,-1
 115 602 l 1,0,-1
325 102 m 1,11,-1
 617 102 l 1,12,-1
 617 598 l 1,13,-1
 325 598 l 1,14,-1
 325 102 l 1,11,-1
EndSplineSet
EndChar

StartChar: uni0257
Encoding: 599 599 124
Width: 620
GlyphClass: 1
Flags: W
LayerCount: 2
Fore
SplineSet
166 100 m 1,0,-1
 448 100 l 1,1,-1
 448 460 l 1,2,-1
 166 460 l 1,3,-1
 166 100 l 1,0,-1
50 102 m 1,4,-1
 50 458 l 1,5,-1
 152 560 l 1,6,-1
 448 560 l 1,7,-1
 448 620 l 1,8,-1
 528 700 l 1,9,-1
 644 700 l 1,10,-1
 644 604 l 1,11,-1
 564 604 l 1,12,-1
 564 0 l 1,13,-1
 152 0 l 1,14,-1
 50 102 l 1,4,-1
EndSplineSet
EndChar

StartChar: uni018F
Encoding: 399 399 147
Width: 650
GlyphClass: 2
Flags: W
AnchorPoint: "Anchor-2" 313 700 basechar 0
AnchorPoint: "Anchor-0" 325 0 basechar 0
LayerCount: 2
Fore
SplineSet
595 598 m 1,0,-1
 595 102 l 1,1,-1
 493 0 l 1,2,-1
 157 0 l 1,3,-1
 55 102 l 1,4,-1
 55 416 l 1,5,-1
 479 416 l 1,6,-1
 479 600 l 1,7,-1
 75 600 l 1,8,-1
 75 700 l 1,9,-1
 493 700 l 1,10,-1
 595 598 l 1,0,-1
479 334 m 1,11,-1
 171 324 l 1,12,-1
 171 100 l 1,13,-1
 479 100 l 1,14,-1
 479 334 l 1,11,-1
EndSplineSet
EndChar

StartChar: uni0259
Encoding: 601 601 148
Width: 590
GlyphClass: 2
Flags: W
AnchorPoint: "Anchor-2" 278 560 basechar 0
AnchorPoint: "Anchor-0" 295 0 basechar 0
LayerCount: 2
Fore
SplineSet
540 458 m 1,0,-1
 540 102 l 1,1,-1
 438 0 l 1,2,-1
 152 0 l 1,3,-1
 50 102 l 1,4,-1
 50 312 l 1,5,-1
 424 312 l 1,6,-1
 424 460 l 1,7,-1
 70 460 l 1,8,-1
 70 560 l 1,9,-1
 438 560 l 1,10,-1
 540 458 l 1,0,-1
424 238 m 1,11,-1
 160 228 l 1,12,-1
 160 96 l 1,13,-1
 424 96 l 1,14,-1
 424 238 l 1,11,-1
EndSplineSet
EndChar

StartChar: uni0190
Encoding: 400 400 149
Width: 614
GlyphClass: 2
Flags: W
AnchorPoint: "Anchor-2" 355 700 basechar 0
AnchorPoint: "Anchor-0" 355 0 basechar 0
LayerCount: 2
Fore
SplineSet
128 0 m 1,0,-1
 36 92 l 1,1,-1
 36 304 l 1,2,-1
 115 366 l 1,3,-1
 56 411 l 1,4,-1
 56 608 l 1,5,-1
 148 700 l 1,6,-1
 574 700 l 1,7,-1
 574 600 l 1,8,-1
 174 600 l 1,9,-1
 174 408 l 1,10,-1
 524 408 l 1,11,-1
 524 310 l 1,12,-1
 154 310 l 1,13,-1
 154 100 l 1,14,-1
 584 100 l 1,15,-1
 584 0 l 1,16,-1
 128 0 l 1,0,-1
EndSplineSet
EndChar

StartChar: uni0191
Encoding: 401 401 153
Width: 566
GlyphClass: 1
Flags: W
LayerCount: 2
Fore
SplineSet
-8 0 m 1,0,-1
 -8 102 l 1,1,-1
 56 102 l 1,2,-1
 56 700 l 1,3,-1
 536 700 l 1,4,-1
 536 596 l 1,5,-1
 172 596 l 1,6,-1
 172 352 l 1,7,-1
 516 352 l 1,8,-1
 516 250 l 1,9,-1
 172 250 l 1,10,-1
 172 86 l 1,11,-1
 86 0 l 1,12,-1
 -8 0 l 1,0,-1
EndSplineSet
EndChar

StartChar: uni0192
Encoding: 402 402 154
Width: 418
GlyphClass: 1
Flags: W
LayerCount: 2
Fore
SplineSet
-36 -140 m 1,0,-1
 -36 -38 l 1,1,-1
 28 -38 l 1,2,-1
 28 602 l 1,3,-1
 126 700 l 1,4,-1
 398 700 l 1,5,-1
 398 598 l 1,6,-1
 144 598 l 1,7,-1
 144 396 l 1,8,-1
 398 396 l 1,9,-1
 398 296 l 1,10,-1
 144 296 l 1,11,-1
 144 -42 l 1,12,-1
 46 -140 l 1,13,-1
 -36 -140 l 1,0,-1
EndSplineSet
EndChar

StartChar: uni01E4
Encoding: 484 484 167
Width: 640
GlyphClass: 2
Flags: W
AnchorPoint: "Anchor-2" 340 700 basechar 0
AnchorPoint: "Anchor-0" 340 0 basechar 0
LayerCount: 2
Fore
SplineSet
55 94 m 1,0,-1
 55 606 l 1,1,-1
 149 700 l 1,2,-1
 543 700 l 1,3,-1
 543 596 l 1,4,-1
 171 596 l 1,5,-1
 171 102 l 1,6,-1
 475 102 l 1,7,-1
 475 323 l 1,8,-1
 293 323 l 1,9,-1
 293 411 l 1,10,-1
 585 411 l 1,11,-1
 585 0 l 1,12,-1
 149 0 l 1,13,-1
 55 94 l 1,0,-1
293 198 m 1,14,-1
 293 274 l 1,15,-1
 627 274 l 1,16,-1
 627 198 l 1,17,-1
 293 198 l 1,14,-1
EndSplineSet
EndChar

StartChar: uni01E5
Encoding: 485 485 168
Width: 610
GlyphClass: 2
Flags: W
AnchorPoint: "Anchor-2" 316 560 basechar 0
AnchorPoint: "Anchor-0" 286 -160 basechar 0
LayerCount: 2
Fore
SplineSet
84 -140 m 1,0,-1
 84 -42 l 1,1,-1
 438 -42 l 1,2,-1
 438 135 l 1,3,-1
 128 135 l 1,4,-1
 50 213 l 1,5,-1
 50 462 l 1,6,-1
 156 560 l 1,7,-1
 554 560 l 1,8,-1
 554 -32 l 1,9,-1
 446 -140 l 1,10,-1
 84 -140 l 1,0,-1
166 460 m 1,11,-1
 166 220 l 1,12,-1
 438 220 l 1,13,-1
 438 460 l 1,14,-1
 166 460 l 1,11,-1
118 12 m 1,15,-1
 118 86 l 1,16,-1
 605 86 l 1,17,-1
 605 12 l 1,18,-1
 118 12 l 1,15,-1
EndSplineSet
EndChar

StartChar: uni0193
Encoding: 403 403 169
Width: 640
GlyphClass: 1
Flags: W
LayerCount: 2
Fore
SplineSet
149 0 m 1,0,-1
 55 94 l 1,1,-1
 55 606 l 1,2,-1
 149 700 l 1,3,-1
 438 700 l 1,4,-1
 438 754 l 1,5,-1
 520 836 l 1,6,-1
 612 836 l 1,7,-1
 612 734 l 1,8,-1
 543 734 l 1,9,-1
 543 596 l 1,10,-1
 171 596 l 1,11,-1
 171 104 l 1,12,-1
 475 104 l 1,13,-1
 475 313 l 1,14,-1
 295 313 l 1,15,-1
 295 411 l 1,16,-1
 585 411 l 1,17,-1
 585 0 l 1,18,-1
 149 0 l 1,0,-1
EndSplineSet
EndChar

StartChar: uni0260
Encoding: 608 608 170
Width: 610
GlyphClass: 1
Flags: W
LayerCount: 2
Fore
SplineSet
166 178 m 1,0,-1
 438 178 l 1,1,-1
 438 460 l 1,2,-1
 166 460 l 1,3,-1
 166 178 l 1,0,-1
84 -140 m 1,4,-1
 84 -40 l 1,5,-1
 438 -40 l 1,6,-1
 438 80 l 1,7,-1
 148 80 l 1,8,-1
 50 178 l 1,9,-1
 50 462 l 1,10,-1
 156 560 l 1,11,-1
 438 560 l 1,12,-1
 438 620 l 1,13,-1
 518 700 l 1,14,-1
 632 700 l 1,15,-1
 632 604 l 1,16,-1
 552 604 l 1,17,-1
 552 -32 l 1,18,-1
 444 -140 l 1,19,-1
 84 -140 l 1,4,-1
EndSplineSet
EndChar

StartChar: uni0194
Encoding: 404 404 171
Width: 636
GlyphClass: 2
Flags: W
AnchorPoint: "Anchor-2" 318 700 basechar 0
AnchorPoint: "Anchor-0" 318 0 basechar 0
LayerCount: 2
Fore
SplineSet
153 0 m 1,0,-1
 55 98 l 1,1,-1
 55 285 l 1,2,-1
 236 443 l 1,3,-1
 5 700 l 1,4,-1
 156 700 l 1,5,-1
 314 501 l 1,6,-1
 322 501 l 1,7,-1
 480 700 l 1,8,-1
 631 700 l 1,9,-1
 400 443 l 1,10,-1
 581 285 l 1,11,-1
 581 98 l 1,12,-1
 483 0 l 1,13,-1
 153 0 l 1,0,-1
169 100 m 1,14,-1
 467 100 l 1,15,-1
 467 254 l 1,16,-1
 318 387 l 1,17,-1
 169 254 l 1,18,-1
 169 100 l 1,14,-1
EndSplineSet
EndChar

StartChar: uni0263
Encoding: 611 611 172
Width: 596
GlyphClass: 2
Flags: W
AnchorPoint: "Anchor-2" 298 560 basechar 0
AnchorPoint: "Anchor-0" 298 -140 basechar 0
LayerCount: 2
Fore
SplineSet
173 -140 m 1,0,-1
 75 -42 l 1,1,-1
 75 143 l 1,2,-1
 217 303 l 1,3,-1
 1 560 l 1,4,-1
 150 560 l 1,5,-1
 294 361 l 1,6,-1
 302 361 l 1,7,-1
 446 560 l 1,8,-1
 595 560 l 1,9,-1
 379 303 l 1,10,-1
 521 143 l 1,11,-1
 521 -42 l 1,12,-1
 423 -140 l 1,13,-1
 173 -140 l 1,0,-1
189 -40 m 1,14,-1
 407 -40 l 1,15,-1
 407 119 l 1,16,-1
 298 247 l 1,17,-1
 189 119 l 1,18,-1
 189 -40 l 1,14,-1
EndSplineSet
EndChar

StartChar: Hbar
Encoding: 294 294 177
Width: 650
GlyphClass: 2
Flags: W
AnchorPoint: "Anchor-2" 325 700 basechar 0
AnchorPoint: "Anchor-0" 325 0 basechar 0
LayerCount: 2
Fore
SplineSet
5 520 m 1,0,-1
 5 596 l 1,1,-1
 645 596 l 1,2,-1
 645 520 l 1,3,-1
 5 520 l 1,0,-1
56 0 m 1,4,-1
 56 700 l 1,5,-1
 172 700 l 1,6,-1
 172 412 l 1,7,-1
 494 412 l 1,8,-1
 494 700 l 1,9,-1
 610 700 l 1,10,-1
 610 0 l 1,11,-1
 494 0 l 1,12,-1
 494 308 l 1,13,-1
 172 308 l 1,14,-1
 172 0 l 1,15,-1
 56 0 l 1,4,-1
EndSplineSet
EndChar

StartChar: hbar
Encoding: 295 295 178
Width: 620
GlyphClass: 2
Flags: W
AnchorPoint: "Anchor-2" 244 700 basechar 0
AnchorPoint: "Anchor-0" 310 0 basechar 0
LayerCount: 2
Fore
SplineSet
56 0 m 1,0,-1
 56 700 l 1,1,-1
 172 700 l 1,2,-1
 172 486 l 1,3,-1
 464 486 l 1,4,-1
 564 386 l 1,5,-1
 564 0 l 1,6,-1
 448 0 l 1,7,-1
 448 386 l 1,8,-1
 172 386 l 1,9,-1
 172 0 l 1,10,-1
 56 0 l 1,0,-1
69 553 m 1,11,-1
 69 624 l 1,12,-1
 429 624 l 1,13,-1
 429 553 l 1,14,-1
 69 553 l 1,11,-1
EndSplineSet
EndChar

StartChar: itilde
Encoding: 297 297 194
Width: 228
GlyphClass: 2
Flags: W
AnchorPoint: "Anchor-2" 114 730 basechar 0
AnchorPoint: "Anchor-0" 114 0 basechar 0
LayerCount: 2
Fore
SplineSet
56 0 m 1,0,-1
 56 560 l 1,1,-1
 172 560 l 1,2,-1
 172 0 l 1,3,-1
 56 0 l 1,0,-1
-14 602 m 1,4,-1
 -14 687 l 1,5,-1
 58 745 l 1,6,-1
 181 689 l 1,7,-1
 250 742 l 1,8,-1
 250 657 l 1,9,-1
 178 599 l 1,10,-1
 55 655 l 1,11,-1
 -14 602 l 1,4,-1
EndSplineSet
EndChar

StartChar: dotlessi
Encoding: 305 305 196
Width: 228
GlyphClass: 2
Flags: W
AnchorPoint: "Anchor-2" 114 560 basechar 0
AnchorPoint: "Anchor-0" 114 0 basechar 0
LayerCount: 2
Fore
SplineSet
56 0 m 1,0,-1
 56 560 l 1,1,-1
 172 560 l 1,2,-1
 172 0 l 1,3,-1
 56 0 l 1,0,-1
EndSplineSet
EndChar

StartChar: imacron
Encoding: 299 299 201
Width: 228
GlyphClass: 2
Flags: W
AnchorPoint: "Anchor-2" 114 730 basechar 0
AnchorPoint: "Anchor-0" 114 0 basechar 0
LayerCount: 2
Fore
SplineSet
-6 643 m 1,0,-1
 -6 730 l 1,1,-1
 234 730 l 1,2,-1
 234 643 l 1,3,-1
 -6 643 l 1,0,-1
56 0 m 1,4,-1
 56 560 l 1,5,-1
 172 560 l 1,6,-1
 172 0 l 1,7,-1
 56 0 l 1,4,-1
EndSplineSet
EndChar

StartChar: IJ
Encoding: 306 306 206
Width: 912
GlyphClass: 1
Flags: W
LayerCount: 2
Fore
SplineSet
45 -4 m 1,0,-1
 45 93 l 1,1,-1
 131 98 l 1,2,-1
 131 602 l 1,3,-1
 45 607 l 1,4,-1
 45 704 l 1,5,-1
 189 696 l 1,6,-1
 333 704 l 1,7,-1
 333 607 l 1,8,-1
 247 602 l 1,9,-1
 247 98 l 1,10,-1
 333 93 l 1,11,-1
 333 -4 l 1,12,-1
 189 4 l 1,13,-1
 45 -4 l 1,0,-1
393 100 m 1,14,-1
 393 310 l 1,15,-1
 507 310 l 1,16,-1
 507 104 l 1,17,-1
 741 104 l 1,18,-1
 741 598 l 1,19,-1
 591 598 l 1,20,-1
 591 700 l 1,21,-1
 857 700 l 1,22,-1
 857 102 l 1,23,-1
 755 0 l 1,24,-1
 493 0 l 1,25,-1
 393 100 l 1,14,-1
EndSplineSet
EndChar

StartChar: I_J.loclNLD
Encoding: 65547 -1 207
Width: 912
GlyphClass: 1
Flags: W
LayerCount: 2
Fore
SplineSet
45 -4 m 1,0,-1
 45 93 l 1,1,-1
 131 98 l 1,2,-1
 131 602 l 1,3,-1
 45 607 l 1,4,-1
 45 704 l 1,5,-1
 189 696 l 1,6,-1
 333 704 l 1,7,-1
 333 607 l 1,8,-1
 247 602 l 1,9,-1
 247 98 l 1,10,-1
 333 93 l 1,11,-1
 333 -4 l 1,12,-1
 189 4 l 1,13,-1
 45 -4 l 1,0,-1
393 100 m 1,14,-1
 393 310 l 1,15,-1
 507 310 l 1,16,-1
 507 104 l 1,17,-1
 741 104 l 1,18,-1
 741 598 l 1,19,-1
 421 598 l 1,20,-1
 421 700 l 1,21,-1
 857 700 l 1,22,-1
 857 102 l 1,23,-1
 755 0 l 1,24,-1
 493 0 l 1,25,-1
 393 100 l 1,14,-1
EndSplineSet
Ligature2: "'liga' +ahluljBuVAhbVwAA in +MOkwxjDzZYdbVwAA lookup 16 +MLUw1jDGMPww1jDr" I J
EndChar

StartChar: uni0197
Encoding: 407 407 210
Width: 430
GlyphClass: 2
Flags: W
AnchorPoint: "Anchor-2" 215 700 basechar 0
AnchorPoint: "Anchor-0" 215 0 basechar 0
LayerCount: 2
Fore
SplineSet
45 -4 m 1,0,-1
 45 93 l 1,1,-1
 157 98 l 1,2,-1
 157 602 l 1,3,-1
 45 607 l 1,4,-1
 45 704 l 1,5,-1
 215 696 l 1,6,-1
 385 704 l 1,7,-1
 385 607 l 1,8,-1
 273 602 l 1,9,-1
 273 98 l 1,10,-1
 385 93 l 1,11,-1
 385 -4 l 1,12,-1
 215 4 l 1,13,-1
 45 -4 l 1,0,-1
55 308 m 1,14,-1
 55 392 l 1,15,-1
 375 392 l 1,16,-1
 375 308 l 1,17,-1
 55 308 l 1,14,-1
EndSplineSet
EndChar

StartChar: uni0268
Encoding: 616 616 211
Width: 228
GlyphClass: 1
Flags: W
LayerCount: 2
Fore
SplineSet
10 267 m 1,0,-1
 10 350 l 1,1,-1
 218 350 l 1,2,-1
 218 267 l 1,3,-1
 10 267 l 1,0,-1
56 0 m 1,4,-1
 56 560 l 1,5,-1
 172 560 l 1,6,-1
 172 0 l 1,7,-1
 56 0 l 1,4,-1
56 624 m 1,8,-1
 56 714 l 1,9,-1
 172 714 l 1,10,-1
 172 624 l 1,11,-1
 56 624 l 1,8,-1
EndSplineSet
Substitution2: "+U1h9FH9uY9sA lookup 1 +MLUw1jDGMPww1jDr" uni0268.dotless
EndChar

StartChar: uni0237
Encoding: 567 567 216
Width: 350
GlyphClass: 2
Flags: W
AnchorPoint: "Anchor-2" 211 560 basechar 0
AnchorPoint: "Anchor-0" 211 -140 basechar 0
LayerCount: 2
Fore
SplineSet
152 560 m 17,0,-1
 268 560 l 1,1,-1
 268 53 l 1,2,3
 268 53 268 53 168 -140 c 1,4,-1
 52 -140 l 1,5,-1
 152 53 l 9,6,7
 152 53 152 53 152 560 c 17,0,-1
EndSplineSet
EndChar

StartChar: uni0198
Encoding: 408 408 221
Width: 655
GlyphClass: 1
Flags: W
LayerCount: 2
Fore
SplineSet
56 0 m 1,0,-1
 56 700 l 1,1,-1
 172 700 l 1,2,-1
 172 406 l 1,3,-1
 355 406 l 1,4,-1
 428 632 l 1,5,-1
 496 700 l 1,6,-1
 650 700 l 1,7,-1
 650 598 l 1,8,-1
 534 598 l 1,9,-1
 463 382 l 1,10,-1
 650 0 l 1,11,-1
 517 0 l 1,12,-1
 372 304 l 1,13,-1
 172 304 l 1,14,-1
 172 0 l 1,15,-1
 56 0 l 1,0,-1
EndSplineSet
EndChar

StartChar: uni0199
Encoding: 409 409 222
Width: 620
GlyphClass: 1
Flags: W
LayerCount: 2
Fore
SplineSet
56 0 m 1,0,-1
 56 602 l 1,1,-1
 154 700 l 1,2,-1
 326 700 l 1,3,-1
 326 604 l 1,4,-1
 172 604 l 1,5,-1
 172 341 l 1,6,-1
 335 341 l 1,7,-1
 472 560 l 1,8,-1
 604 560 l 1,9,-1
 436 302 l 1,10,-1
 612 0 l 1,11,-1
 481 0 l 1,12,-1
 346 241 l 1,13,-1
 172 241 l 1,14,-1
 172 0 l 1,15,-1
 56 0 l 1,0,-1
EndSplineSet
EndChar

StartChar: Lslash
Encoding: 321 321 229
Width: 593
GlyphClass: 2
Flags: W
AnchorPoint: "Anchor-2" 153 700 basechar 0
AnchorPoint: "Anchor-0" 315 0 basechar 0
LayerCount: 2
Fore
SplineSet
125 296 m 1,0,-1
 125 396 l 1,1,-1
 457 524 l 1,2,-1
 457 424 l 1,3,-1
 125 296 l 1,0,-1
56 0 m 1,4,-1
 56 700 l 1,5,-1
 172 700 l 1,6,-1
 172 100 l 1,7,-1
 457 100 l 1,8,-1
 457 280 l 1,9,-1
 564 280 l 1,10,-1
 564 0 l 1,11,-1
 56 0 l 1,4,-1
EndSplineSet
Substitution2: "'ss05' +MLkwvzCkMOswuzDDMMgA-5 lookup 27 +MLUw1jDGMPww1jDr" Lslash.ss05
EndChar

StartChar: lslash
Encoding: 322 322 230
Width: 316
GlyphClass: 2
Flags: W
AnchorPoint: "Anchor-2" 158 700 basechar 0
AnchorPoint: "Anchor-0" 158 0 basechar 0
LayerCount: 2
Fore
SplineSet
21 232 m 1,0,-1
 21 342 l 1,1,-1
 295 496 l 1,2,-1
 295 386 l 1,3,-1
 21 232 l 1,0,-1
100 0 m 1,4,-1
 100 700 l 1,5,-1
 216 700 l 1,6,-1
 216 0 l 1,7,-1
 100 0 l 1,4,-1
EndSplineSet
EndChar

StartChar: uni019D
Encoding: 413 413 255
Width: 680
GlyphClass: 1
Flags: W
LayerCount: 2
Fore
SplineSet
-8 0 m 1,0,-1
 -8 102 l 1,1,-1
 56 102 l 1,2,-1
 56 700 l 1,3,-1
 194 700 l 1,4,-1
 512 155 l 1,5,-1
 512 700 l 1,6,-1
 624 700 l 1,7,-1
 624 0 l 1,8,-1
 486 0 l 1,9,-1
 168 545 l 1,10,-1
 168 82 l 1,11,-1
 86 0 l 1,12,-1
 -8 0 l 1,0,-1
EndSplineSet
EndChar

StartChar: uni0272
Encoding: 626 626 256
Width: 620
GlyphClass: 1
Flags: W
LayerCount: 2
Fore
SplineSet
-8 -140 m 1,0,-1
 -8 -38 l 1,1,-1
 56 -38 l 1,2,-1
 56 560 l 1,3,-1
 464 560 l 1,4,-1
 564 460 l 1,5,-1
 564 0 l 1,6,-1
 448 0 l 1,7,-1
 448 458 l 1,8,-1
 172 458 l 1,9,-1
 172 -42 l 1,10,-1
 74 -140 l 1,11,-1
 -8 -140 l 1,0,-1
EndSplineSet
EndChar

StartChar: Eng
Encoding: 330 330 257
Width: 680
GlyphClass: 2
Flags: W
AnchorPoint: "Anchor-2" 340 700 basechar 0
AnchorPoint: "Anchor-0" 340 -144 basechar 0
LayerCount: 2
Fore
SplineSet
56 0 m 1,0,-1
 56 700 l 1,1,-1
 193 700 l 1,2,-1
 512 177 l 1,3,-1
 512 700 l 1,4,-1
 624 700 l 1,5,-1
 624 -52 l 1,6,-1
 532 -144 l 1,7,-1
 418 -144 l 1,8,-1
 418 -50 l 1,9,-1
 516 -50 l 1,10,-1
 516 -26 l 1,11,-1
 168 545 l 1,12,-1
 168 0 l 1,13,-1
 56 0 l 1,0,-1
EndSplineSet
EndChar

StartChar: eng
Encoding: 331 331 258
Width: 620
GlyphClass: 2
Flags: W
AnchorPoint: "Anchor-2" 310 560 basechar 0
AnchorPoint: "Anchor-0" 310 -160 basechar 0
LayerCount: 2
Fore
SplineSet
56 0 m 1,0,-1
 56 560 l 1,1,-1
 464 560 l 1,2,-1
 564 460 l 1,3,-1
 564 -68 l 1,4,-1
 472 -160 l 1,5,-1
 358 -160 l 1,6,-1
 358 -66 l 1,7,-1
 448 -66 l 1,8,-1
 448 458 l 1,9,-1
 172 458 l 1,10,-1
 172 0 l 1,11,-1
 56 0 l 1,0,-1
EndSplineSet
EndChar

StartChar: Oslash
Encoding: 216 216 283
Width: 680
GlyphClass: 2
Flags: W
AnchorPoint: "Anchor-2" 340 700 basechar 0
AnchorPoint: "Anchor-0" 340 0 basechar 0
LayerCount: 2
Fore
SplineSet
55 110 m 1,0,-1
 55 606 l 1,1,-1
 149 700 l 1,2,-1
 515 700 l 1,3,-1
 625 590 l 1,4,-1
 625 94 l 1,5,-1
 531 0 l 1,6,-1
 165 0 l 1,7,-1
 55 110 l 1,0,-1
169 600 m 1,8,-1
 169 100 l 1,9,-1
 511 100 l 1,10,-1
 511 600 l 1,11,-1
 169 600 l 1,8,-1
37 0 m 1,12,-1
 571 700 l 1,13,-1
 643 700 l 1,14,-1
 109 0 l 1,15,-1
 37 0 l 1,12,-1
EndSplineSet
EndChar

StartChar: oslash
Encoding: 248 248 284
Width: 600
GlyphClass: 2
Flags: W
AnchorPoint: "Anchor-2" 300 560 basechar 0
AnchorPoint: "Anchor-0" 300 0 basechar 0
LayerCount: 2
Fore
SplineSet
50 106 m 1,0,-1
 50 462 l 1,1,-1
 148 560 l 1,2,-1
 444 560 l 1,3,-1
 550 454 l 1,4,-1
 550 98 l 1,5,-1
 452 0 l 1,6,-1
 156 0 l 1,7,-1
 50 106 l 1,0,-1
162 94 m 1,8,-1
 438 94 l 1,9,-1
 438 466 l 1,10,-1
 162 466 l 1,11,-1
 162 94 l 1,8,-1
30 0 m 1,12,-1
 495 560 l 1,13,-1
 570 560 l 1,14,-1
 105 0 l 1,15,-1
 30 0 l 1,12,-1
EndSplineSet
EndChar

StartChar: OE
Encoding: 338 338 295
Width: 919
GlyphClass: 2
Flags: W
AnchorPoint: "Anchor-2" 459 700 basechar 0
AnchorPoint: "Anchor-0" 459 0 basechar 0
LayerCount: 2
Fore
SplineSet
55 94 m 1,0,-1
 55 606 l 1,1,-1
 149 700 l 1,2,-1
 879 700 l 1,3,-1
 879 600 l 1,4,-1
 555 600 l 1,5,-1
 555 408 l 1,6,-1
 829 408 l 1,7,-1
 829 310 l 1,8,-1
 555 310 l 1,9,-1
 555 100 l 1,10,-1
 889 100 l 1,11,-1
 889 0 l 1,12,-1
 149 0 l 1,13,-1
 55 94 l 1,0,-1
171 596 m 1,14,-1
 171 104 l 1,15,-1
 439 104 l 1,16,-1
 439 596 l 1,17,-1
 171 596 l 1,14,-1
EndSplineSet
EndChar

StartChar: oe
Encoding: 339 339 296
Width: 926
GlyphClass: 2
Flags: W
AnchorPoint: "Anchor-2" 463 560 basechar 0
AnchorPoint: "Anchor-0" 463 0 basechar 0
LayerCount: 2
Fore
SplineSet
50 100 m 1,0,-1
 50 460 l 1,1,-1
 150 560 l 1,2,-1
 420 560 l 1,3,-1
 468 512 l 1,4,-1
 516 560 l 1,5,-1
 876 560 l 1,6,-1
 876 248 l 1,7,-1
 526 248 l 1,8,-1
 526 100 l 1,9,-1
 856 100 l 1,10,-1
 856 0 l 1,11,-1
 516 0 l 1,12,-1
 468 48 l 1,13,-1
 420 0 l 1,14,-1
 150 0 l 1,15,-1
 50 100 l 1,0,-1
166 98 m 1,16,-1
 410 98 l 1,17,-1
 410 462 l 1,18,-1
 166 462 l 1,19,-1
 166 98 l 1,16,-1
526 322 m 1,20,-1
 768 332 l 1,21,-1
 768 464 l 1,22,-1
 526 464 l 1,23,-1
 526 322 l 1,20,-1
EndSplineSet
EndChar

StartChar: uni0186
Encoding: 390 390 297
Width: 552
GlyphClass: 2
Flags: W
AnchorPoint: "Anchor-2" 229 700 basechar 0
AnchorPoint: "Anchor-0" 229 0 basechar 0
LayerCount: 2
Fore
SplineSet
497 606 m 1,0,-1
 497 94 l 1,1,-1
 403 0 l 1,2,-1
 39 0 l 1,3,-1
 39 106 l 1,4,-1
 379 106 l 1,5,-1
 379 594 l 1,6,-1
 29 594 l 1,7,-1
 29 700 l 1,8,-1
 403 700 l 1,9,-1
 497 606 l 1,0,-1
EndSplineSet
Substitution2: "'ss03' +MLkwvzCkMOswuzDDMMgA-3 lookup 25 +MLUw1jDGMPww1jDr" uni0186.ss03
Substitution2: "'ss02' +MLkwvzCkMOswuzDDMMgA-2 lookup 24 +MLUw1jDGMPww1jDr" uni0186.ss02
EndChar

StartChar: uni0254
Encoding: 596 596 298
Width: 540
GlyphClass: 2
Flags: W
AnchorPoint: "Anchor-2" 232 560 basechar 0
AnchorPoint: "Anchor-0" 232 0 basechar 0
LayerCount: 2
Fore
SplineSet
512 462 m 1,0,-1
 512 98 l 1,1,-1
 414 0 l 1,2,-1
 50 0 l 1,3,-1
 50 104 l 1,4,-1
 396 104 l 1,5,-1
 396 456 l 1,6,-1
 50 456 l 1,7,-1
 50 560 l 1,8,-1
 414 560 l 1,9,-1
 512 462 l 1,0,-1
EndSplineSet
EndChar

StartChar: kgreenlandic
Encoding: 312 312 301
Width: 620
GlyphClass: 2
Flags: W
AnchorPoint: "Anchor-2" 284 560 basechar 0
AnchorPoint: "Anchor-0" 326 0 basechar 0
LayerCount: 2
Fore
SplineSet
56 0 m 1,0,-1
 56 560 l 1,1,-1
 172 560 l 1,2,-1
 172 341 l 1,3,-1
 335 341 l 1,4,-1
 472 560 l 1,5,-1
 604 560 l 1,6,-1
 436 302 l 1,7,-1
 612 0 l 1,8,-1
 481 0 l 1,9,-1
 346 241 l 1,10,-1
 172 241 l 1,11,-1
 172 0 l 1,12,-1
 56 0 l 1,0,-1
EndSplineSet
EndChar

StartChar: longs
Encoding: 383 383 328
Width: 446
GlyphClass: 2
Flags: W
AnchorPoint: "Anchor-2" 236 700 basechar 0
AnchorPoint: "Anchor-0" 236 0 basechar 0
LayerCount: 2
Fore
SplineSet
56 0 m 1,0,-1
 56 602 l 1,1,-1
 154 700 l 1,2,-1
 426 700 l 1,3,-1
 426 598 l 1,4,-1
 172 598 l 1,5,-1
 172 0 l 1,6,-1
 56 0 l 1,0,-1
EndSplineSet
EndChar

StartChar: Germandbls
Encoding: 7838 7838 329
Width: 700
GlyphClass: 1
Flags: W
LayerCount: 2
Fore
SplineSet
639 700 m 1,0,-1
 639 439 l 1,1,-1
 585 386 l 1,2,-1
 664 324 l 1,3,-1
 664 102 l 1,4,-1
 562 0 l 1,5,-1
 288 0 l 1,6,-1
 288 102 l 1,7,-1
 548 102 l 1,8,-1
 548 325 l 1,9,-1
 354 325 l 1,10,-1
 354 417 l 1,11,-1
 524 417 l 1,12,-1
 524 600 l 1,13,-1
 172 600 l 1,14,-1
 172 0 l 1,15,-1
 56 0 l 1,16,-1
 56 600 l 1,17,-1
 156 700 l 1,18,-1
 639 700 l 1,0,-1
EndSplineSet
EndChar

StartChar: germandbls
Encoding: 223 223 330
Width: 630
GlyphClass: 1
Flags: W
LayerCount: 2
Fore
SplineSet
570 598 m 1,0,-1
 570 437 l 1,1,-1
 513 382 l 1,2,-1
 594 318 l 1,3,-1
 594 98 l 1,4,-1
 496 0 l 1,5,-1
 294 0 l 1,6,-1
 294 98 l 1,7,-1
 478 98 l 1,8,-1
 478 325 l 1,9,-1
 302 325 l 1,10,-1
 302 417 l 1,11,-1
 455 417 l 1,12,-1
 455 602 l 1,13,-1
 172 602 l 1,14,-1
 172 0 l 1,15,-1
 56 0 l 1,16,-1
 56 598 l 1,17,-1
 158 700 l 1,18,-1
 468 700 l 1,19,-1
 570 598 l 1,0,-1
EndSplineSet
EndChar

StartChar: tcaron
Encoding: 357 357 332
Width: 430
GlyphClass: 2
Flags: W
AnchorPoint: "Anchor-2" 258 700 basechar 0
AnchorPoint: "Anchor-0" 256 0 basechar 0
LayerCount: 2
Fore
SplineSet
351 580 m 1,0,-1
 351 770 l 1,1,-1
 409 770 l 1,2,-1
 409 580 l 1,3,-1
 351 580 l 1,0,-1
56 650 m 1,4,-1
 172 700 l 1,5,-1
 172 540 l 1,6,-1
 410 540 l 1,7,-1
 410 440 l 1,8,-1
 172 440 l 1,9,-1
 172 100 l 1,10,-1
 410 100 l 1,11,-1
 410 0 l 1,12,-1
 156 0 l 1,13,-1
 56 100 l 1,14,-1
 56 650 l 1,4,-1
EndSplineSet
EndChar

StartChar: Tbar
Encoding: 358 358 341
Width: 560
GlyphClass: 2
Flags: W
AnchorPoint: "Anchor-2" 280 700 basechar 0
AnchorPoint: "Anchor-0" 280 0 basechar 0
LayerCount: 2
Fore
SplineSet
76 287 m 1,0,-1
 76 378 l 1,1,-1
 484 378 l 1,2,-1
 484 287 l 1,3,-1
 76 287 l 1,0,-1
222 0 m 1,4,-1
 222 598 l 1,5,-1
 18 598 l 1,6,-1
 18 700 l 1,7,-1
 542 700 l 1,8,-1
 542 598 l 1,9,-1
 338 598 l 1,10,-1
 338 0 l 1,11,-1
 222 0 l 1,4,-1
EndSplineSet
EndChar

StartChar: tbar
Encoding: 359 359 342
Width: 430
GlyphClass: 2
Flags: W
AnchorPoint: "Anchor-2" 258 700 basechar 0
AnchorPoint: "Anchor-0" 256 0 basechar 0
LayerCount: 2
Fore
SplineSet
56 650 m 1,0,-1
 172 700 l 1,1,-1
 172 540 l 1,2,-1
 410 540 l 1,3,-1
 410 442 l 1,4,-1
 172 442 l 1,5,-1
 172 100 l 1,6,-1
 410 100 l 1,7,-1
 410 0 l 1,8,-1
 156 0 l 1,9,-1
 56 100 l 1,10,-1
 56 650 l 1,0,-1
13 275 m 1,11,-1
 13 351 l 1,12,-1
 410 351 l 1,13,-1
 410 275 l 1,14,-1
 13 275 l 1,11,-1
EndSplineSet
EndChar

StartChar: uni0244
Encoding: 580 580 377
Width: 650
GlyphClass: 2
Flags: W
AnchorPoint: "Anchor-2" 325 700 basechar 0
AnchorPoint: "Anchor-0" 325 0 basechar 0
LayerCount: 2
Fore
SplineSet
5 327 m 1,0,-1
 5 411 l 1,1,-1
 645 411 l 1,2,-1
 645 327 l 1,3,-1
 5 327 l 1,0,-1
56 94 m 1,4,-1
 56 700 l 1,5,-1
 172 700 l 1,6,-1
 172 104 l 1,7,-1
 478 104 l 1,8,-1
 478 700 l 1,9,-1
 594 700 l 1,10,-1
 594 94 l 1,11,-1
 500 0 l 1,12,-1
 150 0 l 1,13,-1
 56 94 l 1,4,-1
EndSplineSet
EndChar

StartChar: uni0289
Encoding: 649 649 378
Width: 620
GlyphClass: 2
Flags: W
AnchorPoint: "Anchor-2" 310 560 basechar 0
AnchorPoint: "Anchor-1" 466 0 basechar 0
AnchorPoint: "Anchor-0" 310 0 basechar 0
LayerCount: 2
Fore
SplineSet
9 277 m 1,0,-1
 9 360 l 1,1,-1
 611 360 l 1,2,-1
 611 277 l 1,3,-1
 9 277 l 1,0,-1
564 560 m 1,4,-1
 564 0 l 1,5,-1
 156 0 l 1,6,-1
 56 100 l 1,7,-1
 56 560 l 1,8,-1
 172 560 l 1,9,-1
 172 102 l 1,10,-1
 448 102 l 1,11,-1
 448 560 l 1,12,-1
 564 560 l 1,4,-1
EndSplineSet
EndChar

StartChar: uni01B2
Encoding: 434 434 381
Width: 650
GlyphClass: 2
Flags: W
AnchorPoint: "Anchor-2" 325 700 basechar 0
AnchorPoint: "Anchor-0" 325 0 basechar 0
LayerCount: 2
Fore
SplineSet
150 0 m 1,0,-1
 56 94 l 1,1,-1
 56 700 l 1,2,-1
 172 700 l 1,3,-1
 172 104 l 1,4,-1
 478 104 l 1,5,-1
 478 598 l 1,6,-1
 296 598 l 1,7,-1
 296 700 l 1,8,-1
 500 700 l 1,9,-1
 594 606 l 1,10,-1
 594 94 l 1,11,-1
 500 0 l 1,12,-1
 150 0 l 1,0,-1
EndSplineSet
EndChar

StartChar: uni028B
Encoding: 651 651 382
Width: 620
GlyphClass: 1
Flags: W
LayerCount: 2
Fore
SplineSet
148 0 m 1,0,-1
 56 92 l 1,1,-1
 56 560 l 1,2,-1
 172 560 l 1,3,-1
 172 102 l 1,4,-1
 448 102 l 1,5,-1
 448 460 l 1,6,-1
 296 460 l 1,7,-1
 296 560 l 1,8,-1
 470 560 l 1,9,-1
 564 466 l 1,10,-1
 564 92 l 1,11,-1
 472 0 l 1,12,-1
 148 0 l 1,0,-1
EndSplineSet
EndChar

StartChar: uni01B3
Encoding: 435 435 403
Width: 642
GlyphClass: 1
Flags: W
LayerCount: 2
Fore
SplineSet
262 0 m 1,0,-1
 262 210 l 1,1,-1
 175 210 l 1,2,-1
 21 700 l 1,3,-1
 144 700 l 1,4,-1
 259 310 l 1,5,-1
 381 310 l 1,6,-1
 458 632 l 1,7,-1
 526 700 l 1,8,-1
 637 700 l 1,9,-1
 637 598 l 1,10,-1
 568 598 l 1,11,-1
 465 210 l 1,12,-1
 378 210 l 1,13,-1
 378 0 l 1,14,-1
 262 0 l 1,0,-1
EndSplineSet
EndChar

StartChar: uni01B4
Encoding: 436 436 404
Width: 600
GlyphClass: 1
Flags: W
LayerCount: 2
Fore
SplineSet
41 -140 m 1,0,-1
 41 -40 l 1,1,-1
 305 -40 l 1,2,-1
 333 80 l 1,3,-1
 162 80 l 1,4,-1
 10 560 l 1,5,-1
 128 560 l 1,6,-1
 246 178 l 1,7,-1
 353 178 l 1,8,-1
 445 630 l 1,9,-1
 515 700 l 1,10,-1
 624 700 l 1,11,-1
 624 604 l 1,12,-1
 546 604 l 1,13,-1
 390 -140 l 1,14,-1
 41 -140 l 1,0,-1
EndSplineSet
EndChar

StartChar: uni01B7
Encoding: 439 439 413
Width: 610
GlyphClass: 1
Flags: W
LayerCount: 2
Fore
SplineSet
482 0 m 1,0,-1
 27 0 l 1,1,-1
 27 100 l 1,2,-1
 457 100 l 1,3,-1
 457 315 l 1,4,-1
 145 315 l 1,5,-1
 145 402 l 1,6,-1
 398 600 l 1,7,-1
 41 600 l 1,8,-1
 41 700 l 1,9,-1
 555 700 l 1,10,-1
 555 616 l 1,11,-1
 276 404 l 1,12,-1
 500 404 l 1,13,-1
 574 330 l 1,14,-1
 574 92 l 1,15,-1
 482 0 l 1,0,-1
EndSplineSet
EndChar

StartChar: uni0292
Encoding: 658 658 414
Width: 586
GlyphClass: 1
Flags: W
LayerCount: 2
Fore
SplineSet
458 -140 m 1,0,-1
 27 -140 l 1,1,-1
 27 -40 l 1,2,-1
 433 -40 l 1,3,-1
 433 165 l 1,4,-1
 121 165 l 1,5,-1
 121 252 l 1,6,-1
 374 460 l 1,7,-1
 41 460 l 1,8,-1
 41 560 l 1,9,-1
 531 560 l 1,10,-1
 531 476 l 1,11,-1
 252 254 l 1,12,-1
 476 254 l 1,13,-1
 550 180 l 1,14,-1
 550 -48 l 1,15,-1
 458 -140 l 1,0,-1
EndSplineSet
EndChar

StartChar: Thorn
Encoding: 222 222 417
Width: 640
GlyphClass: 1
Flags: W
LayerCount: 2
Fore
SplineSet
56 0 m 1,0,-1
 56 700 l 1,1,-1
 172 700 l 1,2,-1
 172 620 l 1,3,-1
 510 620 l 1,4,-1
 604 526 l 1,5,-1
 604 184 l 1,6,-1
 510 90 l 1,7,-1
 172 90 l 1,8,-1
 172 0 l 1,9,-1
 56 0 l 1,0,-1
172 188 m 1,10,-1
 488 188 l 1,11,-1
 488 522 l 1,12,-1
 172 522 l 1,13,-1
 172 188 l 1,10,-1
EndSplineSet
EndChar

StartChar: thorn
Encoding: 254 254 418
Width: 620
GlyphClass: 2
Flags: W
AnchorPoint: "Anchor-2" 276 700 basechar 0
AnchorPoint: "Anchor-0" 276 -140 basechar 0
LayerCount: 2
Fore
SplineSet
56 -140 m 1,0,-1
 56 700 l 1,1,-1
 172 700 l 1,2,-1
 172 560 l 1,3,-1
 468 560 l 1,4,-1
 570 458 l 1,5,-1
 570 102 l 1,6,-1
 468 0 l 1,7,-1
 172 0 l 1,8,-1
 172 -140 l 1,9,-1
 56 -140 l 1,0,-1
172 100 m 1,10,-1
 454 100 l 1,11,-1
 454 460 l 1,12,-1
 172 460 l 1,13,-1
 172 100 l 1,10,-1
EndSplineSet
EndChar

StartChar: uni0294
Encoding: 660 660 419
Width: 552
GlyphClass: 1
Flags: W
LayerCount: 2
Fore
SplineSet
246 0 m 1,0,-1
 134 0 l 1,1,-1
 134 360 l 1,2,-1
 425 435 l 1,3,-1
 425 598 l 1,4,-1
 15 598 l 1,5,-1
 15 700 l 1,6,-1
 437 700 l 1,7,-1
 537 600 l 1,8,-1
 537 364 l 1,9,-1
 246 287 l 1,10,-1
 246 0 l 1,0,-1
EndSplineSet
EndChar

StartChar: uniA78B
Encoding: 42891 42891 420
Width: 244
GlyphClass: 1
Flags: W
LayerCount: 2
Fore
SplineSet
77 200 m 1,0,-1
 55 700 l 1,1,-1
 189 700 l 1,2,-1
 167 200 l 1,3,-1
 77 200 l 1,0,-1
EndSplineSet
EndChar

StartChar: uniA78C
Encoding: 42892 42892 421
Width: 220
GlyphClass: 1
Flags: W
LayerCount: 2
Fore
SplineSet
65 300 m 1,0,-1
 45 700 l 1,1,-1
 175 700 l 1,2,-1
 155 300 l 1,3,-1
 65 300 l 1,0,-1
EndSplineSet
EndChar

StartChar: uni01C0
Encoding: 448 448 422
Width: 234
GlyphClass: 1
Flags: W
LayerCount: 2
Fore
SplineSet
65 -30 m 1,0,-1
 65 730 l 1,1,-1
 169 730 l 1,2,-1
 169 -30 l 1,3,-1
 65 -30 l 1,0,-1
EndSplineSet
EndChar

StartChar: uni01C2
Encoding: 450 450 424
Width: 600
GlyphClass: 1
Flags: W
LayerCount: 2
Fore
SplineSet
248 -30 m 1,0,-1
 248 194 l 1,1,-1
 40 194 l 1,2,-1
 40 292 l 1,3,-1
 248 292 l 1,4,-1
 248 408 l 1,5,-1
 40 408 l 1,6,-1
 40 506 l 1,7,-1
 248 506 l 1,8,-1
 248 730 l 1,9,-1
 352 730 l 1,10,-1
 352 506 l 1,11,-1
 560 506 l 1,12,-1
 560 408 l 1,13,-1
 352 408 l 1,14,-1
 352 292 l 1,15,-1
 560 292 l 1,16,-1
 560 194 l 1,17,-1
 352 194 l 1,18,-1
 352 -30 l 1,19,-1
 248 -30 l 1,0,-1
EndSplineSet
EndChar

StartChar: Ohorn
Encoding: 416 416 484
Width: 680
GlyphClass: 2
Flags: W
AnchorPoint: "Anchor-2" 339 700 basechar 0
AnchorPoint: "Anchor-0" 340 0 basechar 0
LayerCount: 2
Fore
SplineSet
55 94 m 1,0,-1
 55 606 l 1,1,-1
 149 700 l 1,2,-1
 602 700 l 1,3,-1
 602 780 l 1,4,-1
 701 780 l 1,5,-1
 701 688 l 1,6,-1
 625 612 l 1,7,-1
 625 94 l 1,8,-1
 531 0 l 1,9,-1
 149 0 l 1,10,-1
 55 94 l 1,0,-1
173 598 m 1,11,-1
 173 102 l 1,12,-1
 507 102 l 1,13,-1
 507 598 l 1,14,-1
 173 598 l 1,11,-1
EndSplineSet
EndChar

StartChar: ohorn
Encoding: 417 417 485
Width: 614
GlyphClass: 2
Flags: W
AnchorPoint: "Anchor-2" 292 560 basechar 0
AnchorPoint: "Anchor-0" 300 0 basechar 0
LayerCount: 2
Fore
SplineSet
50 98 m 1,0,-1
 50 462 l 1,1,-1
 148 560 l 1,2,-1
 524 560 l 1,3,-1
 524 640 l 1,4,-1
 626 640 l 1,5,-1
 626 548 l 1,6,-1
 550 472 l 1,7,-1
 550 98 l 1,8,-1
 452 0 l 1,9,-1
 148 0 l 1,10,-1
 50 98 l 1,0,-1
166 98 m 1,11,-1
 434 98 l 1,12,-1
 434 462 l 1,13,-1
 166 462 l 1,14,-1
 166 98 l 1,11,-1
EndSplineSet
EndChar

StartChar: Uhorn
Encoding: 431 431 500
Width: 650
GlyphClass: 2
Flags: W
AnchorPoint: "Anchor-2" 325 700 basechar 0
AnchorPoint: "Anchor-0" 325 0 basechar 0
LayerCount: 2
Fore
SplineSet
56 94 m 1,0,-1
 56 700 l 1,1,-1
 172 700 l 1,2,-1
 172 104 l 1,3,-1
 478 104 l 1,4,-1
 478 700 l 1,5,-1
 579 700 l 1,6,-1
 579 780 l 1,7,-1
 678 780 l 1,8,-1
 678 688 l 1,9,-1
 594 604 l 1,10,-1
 594 94 l 1,11,-1
 500 0 l 1,12,-1
 150 0 l 1,13,-1
 56 94 l 1,0,-1
EndSplineSet
EndChar

StartChar: uhorn
Encoding: 432 432 501
Width: 622
GlyphClass: 2
Flags: W
AnchorPoint: "Anchor-2" 311 560 basechar 0
AnchorPoint: "Anchor-1" 466 0 basechar 0
AnchorPoint: "Anchor-0" 311 0 basechar 0
LayerCount: 2
Fore
SplineSet
56 100 m 1,0,-1
 56 560 l 1,1,-1
 172 560 l 1,2,-1
 172 102 l 1,3,-1
 448 102 l 1,4,-1
 448 560 l 1,5,-1
 542 560 l 1,6,-1
 542 640 l 1,7,-1
 644 640 l 1,8,-1
 644 548 l 1,9,-1
 564 468 l 1,10,-1
 564 0 l 1,11,-1
 156 0 l 1,12,-1
 56 100 l 1,0,-1
EndSplineSet
EndChar

StartChar: uni1EF5
Encoding: 7925 7925 513
Width: 600
GlyphClass: 2
Flags: W
AnchorPoint: "Anchor-2" 300 560 basechar 0
AnchorPoint: "Anchor-0" 235 -160 basechar 0
LayerCount: 2
Fore
SplineSet
41 -101 m 1,0,-1
 41 -3 l 1,1,-1
 306 -3 l 1,2,-1
 333 84 l 1,3,-1
 160 84 l 1,4,-1
 10 560 l 1,5,-1
 127 560 l 1,6,-1
 243 180 l 1,7,-1
 360 180 l 1,8,-1
 473 560 l 1,9,-1
 590 560 l 1,10,-1
 384 -101 l 1,11,-1
 41 -101 l 1,0,-1
179 -250 m 1,12,-1
 179 -164 l 1,13,-1
 295 -164 l 1,14,-1
 295 -250 l 1,15,-1
 179 -250 l 1,12,-1
EndSplineSet
EndChar

StartChar: period
Encoding: 46 46 530
Width: 256
GlyphClass: 1
Flags: W
LayerCount: 2
Fore
SplineSet
72 0 m 1,0,-1
 72 120 l 1,1,-1
 184 120 l 1,2,-1
 184 0 l 1,3,-1
 72 0 l 1,0,-1
EndSplineSet
EndChar

StartChar: comma
Encoding: 44 44 531
Width: 256
GlyphClass: 1
Flags: W
LayerCount: 2
Fore
SplineSet
82 0 m 1,0,-1
 82 120 l 1,1,-1
 197 120 l 1,2,-1
 197 0 l 1,3,-1
 110 -140 l 1,4,-1
 28 -140 l 1,5,-1
 115 0 l 1,6,-1
 82 0 l 1,0,-1
EndSplineSet
EndChar

StartChar: exclam
Encoding: 33 33 535
Width: 306
GlyphClass: 1
Flags: W
LayerCount: 2
Fore
SplineSet
97 0 m 1,0,-1
 97 120 l 1,1,-1
 209 120 l 1,2,-1
 209 0 l 1,3,-1
 97 0 l 1,0,-1
108 226 m 1,4,-1
 86 700 l 1,5,-1
 220 700 l 1,6,-1
 198 226 l 1,7,-1
 108 226 l 1,4,-1
EndSplineSet
EndChar

StartChar: exclamdown
Encoding: 161 161 536
Width: 276
GlyphClass: 1
Flags: W
LayerCount: 2
Fore
SplineSet
194 560 m 1,0,-1
 194 440 l 1,1,-1
 82 440 l 1,2,-1
 82 560 l 1,3,-1
 194 560 l 1,0,-1
183 334 m 1,4,-1
 205 -140 l 1,5,-1
 71 -140 l 1,6,-1
 93 334 l 1,7,-1
 183 334 l 1,4,-1
EndSplineSet
EndChar

StartChar: question
Encoding: 63 63 537
Width: 552
GlyphClass: 1
Flags: W
LayerCount: 2
Fore
SplineSet
134 0 m 1,0,-1
 134 120 l 1,1,-1
 246 120 l 1,2,-1
 246 0 l 1,3,-1
 134 0 l 1,0,-1
246 222 m 1,4,-1
 134 222 l 1,5,-1
 134 360 l 1,6,-1
 425 435 l 1,7,-1
 425 598 l 1,8,-1
 15 598 l 1,9,-1
 15 700 l 1,10,-1
 437 700 l 1,11,-1
 537 600 l 1,12,-1
 537 364 l 1,13,-1
 246 287 l 1,14,-1
 246 222 l 1,4,-1
EndSplineSet
EndChar

StartChar: questiondown
Encoding: 191 191 538
Width: 552
GlyphClass: 1
Flags: W
LayerCount: 2
Fore
SplineSet
418 560 m 1,0,-1
 418 440 l 1,1,-1
 306 440 l 1,2,-1
 306 560 l 1,3,-1
 418 560 l 1,0,-1
306 338 m 1,4,-1
 418 338 l 1,5,-1
 418 200 l 1,6,-1
 127 125 l 1,7,-1
 127 -38 l 1,8,-1
 537 -38 l 1,9,-1
 537 -140 l 1,10,-1
 115 -140 l 1,11,-1
 15 -40 l 1,12,-1
 15 196 l 1,13,-1
 306 273 l 1,14,-1
 306 338 l 1,4,-1
EndSplineSet
EndChar

StartChar: quotesingle
Encoding: 39 39 539
Width: 220
GlyphClass: 1
Flags: W
LayerCount: 2
Fore
SplineSet
70 460 m 1,0,-1
 50 700 l 1,1,-1
 170 700 l 1,2,-1
 150 460 l 1,3,-1
 70 460 l 1,0,-1
EndSplineSet
EndChar

StartChar: quoteleft
Encoding: 8216 8216 541
Width: 256
GlyphClass: 1
Flags: W
LayerCount: 2
Fore
SplineSet
174 560 m 1,0,-1
 174 440 l 1,1,-1
 59 440 l 1,2,-1
 59 560 l 1,3,-1
 146 700 l 1,4,-1
 228 700 l 1,5,-1
 141 560 l 1,6,-1
 174 560 l 1,0,-1
EndSplineSet
EndChar

StartChar: quotedblleft
Encoding: 8220 8220 544
Width: 448
GlyphClass: 1
Flags: W
LayerCount: 2
Fore
SplineSet
366 560 m 1,0,-1
 366 440 l 1,1,-1
 251 440 l 1,2,-1
 251 560 l 1,3,-1
 338 700 l 1,4,-1
 420 700 l 1,5,-1
 333 560 l 1,6,-1
 366 560 l 1,0,-1
174 560 m 1,7,-1
 174 440 l 1,8,-1
 59 440 l 1,9,-1
 59 560 l 1,10,-1
 146 700 l 1,11,-1
 228 700 l 1,12,-1
 141 560 l 1,13,-1
 174 560 l 1,7,-1
EndSplineSet
EndChar

StartChar: quotedblright
Encoding: 8221 8221 545
Width: 448
GlyphClass: 1
Flags: W
LayerCount: 2
Fore
SplineSet
82 580 m 1,0,-1
 82 700 l 1,1,-1
 197 700 l 1,2,-1
 197 580 l 1,3,-1
 110 440 l 1,4,-1
 28 440 l 1,5,-1
 115 580 l 1,6,-1
 82 580 l 1,0,-1
274 580 m 1,7,-1
 274 700 l 1,8,-1
 389 700 l 1,9,-1
 389 580 l 1,10,-1
 302 440 l 1,11,-1
 220 440 l 1,12,-1
 307 580 l 1,13,-1
 274 580 l 1,7,-1
EndSplineSet
EndChar

StartChar: guilsinglleft
Encoding: 8249 8249 547
Width: 450
GlyphClass: 1
Flags: W
LayerCount: 2
Fore
SplineSet
20 267 m 1,0,-1
 20 293 l 1,1,-1
 278 560 l 1,2,-1
 422 560 l 1,3,-1
 157 280 l 1,4,-1
 422 0 l 1,5,-1
 278 0 l 1,6,-1
 20 267 l 1,0,-1
EndSplineSet
EndChar

StartChar: guilsinglright
Encoding: 8250 8250 548
Width: 450
GlyphClass: 1
Flags: W
LayerCount: 2
Fore
SplineSet
430 293 m 1,0,-1
 430 267 l 1,1,-1
 172 0 l 1,2,-1
 28 0 l 1,3,-1
 293 280 l 1,4,-1
 28 560 l 1,5,-1
 172 560 l 1,6,-1
 430 293 l 1,0,-1
EndSplineSet
EndChar

StartChar: guillemotleft
Encoding: 171 171 549
Width: 702
GlyphClass: 1
Flags: W
LayerCount: 2
Fore
SplineSet
20 267 m 1,0,-1
 20 293 l 1,1,-1
 278 560 l 1,2,-1
 422 560 l 1,3,-1
 157 280 l 1,4,-1
 422 0 l 1,5,-1
 278 0 l 1,6,-1
 20 267 l 1,0,-1
272 267 m 1,7,-1
 272 293 l 1,8,-1
 530 560 l 1,9,-1
 674 560 l 1,10,-1
 409 280 l 1,11,-1
 674 0 l 1,12,-1
 530 0 l 1,13,-1
 272 267 l 1,7,-1
EndSplineSet
EndChar

StartChar: guillemotright
Encoding: 187 187 550
Width: 702
GlyphClass: 1
Flags: W
LayerCount: 2
Fore
SplineSet
682 293 m 1,0,-1
 682 267 l 1,1,-1
 424 0 l 1,2,-1
 280 0 l 1,3,-1
 545 280 l 1,4,-1
 280 560 l 1,5,-1
 424 560 l 1,6,-1
 682 293 l 1,0,-1
430 293 m 1,7,-1
 430 267 l 1,8,-1
 172 0 l 1,9,-1
 28 0 l 1,10,-1
 293 280 l 1,11,-1
 28 560 l 1,12,-1
 172 560 l 1,13,-1
 430 293 l 1,7,-1
EndSplineSet
EndChar

StartChar: parenleft
Encoding: 40 40 551
Width: 446
GlyphClass: 1
Flags: W
LayerCount: 2
Fore
SplineSet
252 57 m 17,0,-1
 276 30 l 1,1,2
 276 30 276 30 402 -22 c 1,3,-1
 402 -123 l 1,4,-1
 230 -68 l 1,5,-1
 136 26 l 1,6,-1
 136 606 l 24,7,-1
 230 700 l 1,8,-1
 402 755 l 1,9,-1
 402 654 l 1,10,-1
 276 602 l 1,11,12
 276 602 276 602 252 575 c 9,13,-1
 252 57 l 17,0,-1
EndSplineSet
EndChar

StartChar: parenright
Encoding: 41 41 552
Width: 446
GlyphClass: 1
Flags: W
LayerCount: 2
Fore
SplineSet
194 57 m 21,0,-1
 170 30 l 5,1,2
 170 30 170 30 44 -22 c 5,3,-1
 44 -123 l 5,4,-1
 216 -68 l 5,5,-1
 310 26 l 5,6,-1
 310 606 l 28,7,-1
 216 700 l 5,8,-1
 44 755 l 5,9,-1
 44 654 l 5,10,-1
 170 602 l 5,11,12
 170 602 170 602 194 575 c 13,13,-1
 194 57 l 21,0,-1
EndSplineSet
EndChar

StartChar: bracketleft
Encoding: 91 91 553
Width: 462
GlyphClass: 1
Flags: W
LayerCount: 2
Fore
SplineSet
164 -120 m 5,0,-1
 164 750 l 1,1,-1
 430 750 l 1,2,-1
 430 653 l 1,3,-1
 278 653 l 1,4,-1
 278 -23 l 5,5,-1
 430 -23 l 5,6,-1
 430 -120 l 5,7,-1
 164 -120 l 5,0,-1
EndSplineSet
EndChar

StartChar: bracketright
Encoding: 93 93 554
Width: 462
GlyphClass: 1
Flags: W
LayerCount: 2
Fore
SplineSet
298 750 m 1,0,-1
 298 -120 l 1,1,-1
 32 -120 l 1,2,-1
 32 -23 l 1,3,-1
 184 -23 l 1,4,-1
 184 653 l 1,5,-1
 32 653 l 1,6,-1
 32 750 l 1,7,-1
 298 750 l 1,0,-1
EndSplineSet
EndChar

StartChar: braceleft
Encoding: 123 123 555
Width: 487
GlyphClass: 1
Flags: W
LayerCount: 2
Fore
SplineSet
189 -26 m 5,0,-1
 189 266 l 1,1,-1
 93 266 l 1,2,-1
 93 364 l 1,3,-1
 189 364 l 1,4,-1
 189 656 l 1,5,-1
 283 750 l 1,6,-1
 455 750 l 1,7,-1
 455 651 l 1,8,-1
 305 651 l 1,9,-1
 305 379 l 1,10,-1
 241 315 l 1,11,-1
 305 251 l 1,12,-1
 305 -21 l 5,13,-1
 455 -21 l 5,14,-1
 455 -120 l 5,15,-1
 283 -120 l 5,16,-1
 189 -26 l 5,0,-1
EndSplineSet
EndChar

StartChar: braceright
Encoding: 125 125 556
Width: 487
GlyphClass: 1
Flags: W
LayerCount: 2
Fore
SplineSet
298 656 m 1,0,-1
 298 364 l 1,1,-1
 394 364 l 1,2,-1
 394 266 l 1,3,-1
 298 266 l 1,4,-1
 298 -26 l 1,5,-1
 204 -120 l 1,6,-1
 32 -120 l 1,7,-1
 32 -21 l 1,8,-1
 182 -21 l 1,9,-1
 182 251 l 1,10,-1
 246 315 l 1,11,-1
 182 379 l 1,12,-1
 182 651 l 1,13,-1
 32 651 l 1,14,-1
 32 750 l 1,15,-1
 204 750 l 1,16,-1
 298 656 l 1,0,-1
EndSplineSet
EndChar

StartChar: slash
Encoding: 47 47 557
Width: 540
GlyphClass: 1
Flags: W
LayerCount: 2
Fore
SplineSet
60 0 m 5,0,-1
 361 700 l 5,1,-1
 480 700 l 5,2,-1
 179 0 l 5,3,-1
 60 0 l 5,0,-1
EndSplineSet
EndChar

StartChar: backslash
Encoding: 92 92 558
Width: 540
GlyphClass: 1
Flags: W
LayerCount: 2
Fore
SplineSet
480 0 m 1,0,-1
 361 0 l 1,1,-1
 60 700 l 1,2,-1
 179 700 l 1,3,-1
 480 0 l 1,0,-1
EndSplineSet
EndChar

StartChar: brokenbar
Encoding: 166 166 559
Width: 232
GlyphClass: 1
Flags: W
LayerCount: 2
Fore
SplineSet
60 -200 m 1,0,-1
 60 250 l 1,1,-1
 172 250 l 1,2,-1
 172 -200 l 1,3,-1
 60 -200 l 1,0,-1
60 350 m 1,4,-1
 60 800 l 1,5,-1
 172 800 l 1,6,-1
 172 350 l 1,7,-1
 60 350 l 1,4,-1
EndSplineSet
EndChar

StartChar: bar
Encoding: 124 124 560
Width: 232
GlyphClass: 1
Flags: W
LayerCount: 2
Fore
SplineSet
60 -120 m 1,0,-1
 60 760 l 1,1,-1
 172 760 l 1,2,-1
 172 -120 l 1,3,-1
 60 -120 l 1,0,-1
EndSplineSet
EndChar

StartChar: underscore
Encoding: 95 95 561
Width: 650
GlyphClass: 1
Flags: W
LayerCount: 2
Fore
SplineSet
65 -104 m 1,0,-1
 65 0 l 1,1,-1
 585 0 l 1,2,-1
 585 -104 l 1,3,-1
 65 -104 l 1,0,-1
EndSplineSet
EndChar

StartChar: hyphen
Encoding: 45 45 562
Width: 520
GlyphClass: 1
Flags: W
LayerCount: 2
Fore
SplineSet
70 264 m 1,0,-1
 70 376 l 1,1,-1
 450 376 l 1,2,-1
 450 264 l 1,3,-1
 70 264 l 1,0,-1
EndSplineSet
EndChar

StartChar: endash
Encoding: 8211 8211 563
Width: 400
GlyphClass: 1
Flags: W
LayerCount: 2
Fore
SplineSet
40 269 m 1,0,-1
 40 371 l 1,1,-1
 360 371 l 1,2,-1
 360 269 l 1,3,-1
 40 269 l 1,0,-1
EndSplineSet
EndChar

StartChar: emdash
Encoding: 8212 8212 564
Width: 600
GlyphClass: 1
Flags: W
LayerCount: 2
Fore
SplineSet
40 269 m 1,0,-1
 40 371 l 1,1,-1
 560 371 l 1,2,-1
 560 269 l 1,3,-1
 40 269 l 1,0,-1
EndSplineSet
EndChar

StartChar: uni2015
Encoding: 8213 8213 565
Width: 600
GlyphClass: 1
Flags: W
LayerCount: 2
Fore
SplineSet
-10 269 m 1,0,-1
 -10 371 l 1,1,-1
 610 371 l 1,2,-1
 610 269 l 1,3,-1
 -10 269 l 1,0,-1
EndSplineSet
EndChar

StartChar: figuredash
Encoding: 8210 8210 566
Width: 650
GlyphClass: 1
Flags: W
LayerCount: 2
Fore
SplineSet
40 269 m 1,0,-1
 40 371 l 1,1,-1
 610 371 l 1,2,-1
 610 269 l 1,3,-1
 40 269 l 1,0,-1
EndSplineSet
EndChar

StartChar: periodcentered
Encoding: 183 183 567
Width: 192
GlyphClass: 1
Flags: W
LayerCount: 2
Fore
SplineSet
40 268 m 1,0,-1
 40 388 l 1,1,-1
 152 388 l 1,2,-1
 152 268 l 1,3,-1
 40 268 l 1,0,-1
EndSplineSet
Substitution2: "+U1h9FH9uY9sA lookup 14 +MLUw1jDGMPww1jDr" anoteleia
Substitution2: "+U1h9FH9uY9sA lookup 4 +MLUw1jDGMPww1jDr" periodcentered.loclCAT
Substitution2: "+U1h9FH9uY9sA lookup 3 +MLUw1jDGMPww1jDr" periodcentered.loclCAT.cap
EndChar

StartChar: asciitilde
Encoding: 126 126 568
Width: 600
GlyphClass: 1
Flags: W
LayerCount: 2
Fore
SplineSet
40 236 m 1,0,-1
 20 335 l 1,1,-1
 150 450 l 1,2,-1
 442 328 l 1,3,-1
 560 422 l 1,4,-1
 580 323 l 1,5,-1
 450 208 l 1,6,-1
 158 330 l 1,7,-1
 40 236 l 1,0,-1
EndSplineSet
EndChar

StartChar: bullet
Encoding: 8226 8226 569
Width: 500
GlyphClass: 1
Flags: W
LayerCount: 2
Fore
SplineSet
54 200 m 1,0,-1
 54 400 l 1,1,-1
 148 494 l 1,2,-1
 352 494 l 1,3,-1
 446 400 l 1,4,-1
 446 200 l 1,5,-1
 352 106 l 1,6,-1
 148 106 l 1,7,-1
 54 200 l 1,0,-1
EndSplineSet
EndChar

StartChar: ordfeminine
Encoding: 170 170 570
Width: 502
GlyphClass: 1
Flags: W
LayerCount: 2
Fore
SplineSet
46 342 m 1,0,-1
 46 514 l 1,1,-1
 339 524 l 1,2,-1
 339 611 l 1,3,-1
 66 611 l 1,4,-1
 66 700 l 1,5,-1
 354 700 l 1,6,-1
 446 608 l 1,7,-1
 446 250 l 1,8,-1
 138 250 l 1,9,-1
 46 342 l 1,0,-1
153 437 m 1,10,-1
 153 337 l 1,11,-1
 339 337 l 1,12,-1
 339 457 l 1,13,-1
 153 437 l 1,10,-1
EndSplineSet
EndChar

StartChar: ordmasculine
Encoding: 186 186 571
Width: 504
GlyphClass: 1
Flags: W
LayerCount: 2
Fore
SplineSet
50 344 m 1,0,-1
 50 606 l 1,1,-1
 144 700 l 1,2,-1
 360 700 l 1,3,-1
 454 606 l 1,4,-1
 454 344 l 1,5,-1
 360 250 l 1,6,-1
 144 250 l 1,7,-1
 50 344 l 1,0,-1
160 344 m 1,8,-1
 344 344 l 1,9,-1
 344 606 l 1,10,-1
 160 606 l 1,11,-1
 160 344 l 1,8,-1
EndSplineSet
EndChar

StartChar: degree
Encoding: 176 176 572
Width: 317
GlyphClass: 1
Flags: W
LayerCount: 2
Fore
SplineSet
18 492 m 1,0,-1
 18 628 l 1,1,-1
 91 700 l 1,2,-1
 226 700 l 1,3,-1
 299 628 l 1,4,-1
 299 492 l 1,5,-1
 226 420 l 1,6,-1
 91 420 l 1,7,-1
 18 492 l 1,0,-1
101 496 m 1,8,-1
 217 496 l 1,9,-1
 217 624 l 1,10,-1
 101 624 l 1,11,-1
 101 496 l 1,8,-1
EndSplineSet
EndChar

StartChar: asciicircum
Encoding: 94 94 574
Width: 560
GlyphClass: 1
Flags: W
LayerCount: 2
Fore
SplineSet
34 350 m 1,0,-1
 219 700 l 1,1,-1
 341 700 l 1,2,-1
 526 350 l 1,3,-1
 405 350 l 1,4,-1
 280 608 l 1,5,-1
 155 350 l 1,6,-1
 34 350 l 1,0,-1
EndSplineSet
EndChar

StartChar: asterisk
Encoding: 42 42 575
Width: 560
GlyphClass: 1
Flags: W
LayerCount: 2
Fore
SplineSet
326 236 m 1,0,-1
 234 236 l 1,1,-1
 234 387 l 1,2,-1
 90 301 l 1,3,-1
 44 381 l 1,4,-1
 189 468 l 1,5,-1
 44 555 l 1,6,-1
 90 635 l 1,7,-1
 234 549 l 1,8,-1
 234 700 l 1,9,-1
 326 700 l 1,10,-1
 326 549 l 1,11,-1
 470 635 l 1,12,-1
 516 555 l 1,13,-1
 371 468 l 1,14,-1
 516 381 l 1,15,-1
 470 301 l 1,16,-1
 326 387 l 1,17,-1
 326 236 l 1,0,-1
EndSplineSet
EndChar

StartChar: dagger
Encoding: 8224 8224 576
Width: 616
GlyphClass: 1
Flags: W
LayerCount: 2
Fore
SplineSet
56 392 m 1,0,-1
 56 504 l 1,1,-1
 252 504 l 1,2,-1
 252 700 l 1,3,-1
 364 700 l 1,4,-1
 364 504 l 1,5,-1
 560 504 l 1,6,-1
 560 392 l 1,7,-1
 364 392 l 1,8,-1
 364 0 l 1,9,-1
 252 0 l 1,10,-1
 252 392 l 1,11,-1
 56 392 l 1,0,-1
EndSplineSet
EndChar

StartChar: daggerdbl
Encoding: 8225 8225 577
Width: 616
GlyphClass: 1
Flags: W
LayerCount: 2
Fore
SplineSet
56 392 m 1,0,-1
 56 504 l 1,1,-1
 252 504 l 1,2,-1
 252 700 l 1,3,-1
 364 700 l 1,4,-1
 364 504 l 1,5,-1
 560 504 l 1,6,-1
 560 392 l 1,7,-1
 364 392 l 1,8,-1
 364 168 l 1,9,-1
 560 168 l 1,10,-1
 560 56 l 1,11,-1
 364 56 l 1,12,-1
 364 -140 l 1,13,-1
 252 -140 l 1,14,-1
 252 56 l 1,15,-1
 56 56 l 1,16,-1
 56 168 l 1,17,-1
 252 168 l 1,18,-1
 252 392 l 1,19,-1
 56 392 l 1,0,-1
EndSplineSet
EndChar

StartChar: numbersign
Encoding: 35 35 578
Width: 852
GlyphClass: 1
Flags: W
LayerCount: 2
Fore
SplineSet
216 0 m 1,0,-1
 216 700 l 1,1,-1
 324 700 l 1,2,-1
 324 0 l 1,3,-1
 216 0 l 1,0,-1
520 0 m 1,4,-1
 520 700 l 1,5,-1
 628 700 l 1,6,-1
 628 0 l 1,7,-1
 520 0 l 1,4,-1
776 140 m 1,8,-1
 76 140 l 1,9,-1
 76 236 l 1,10,-1
 776 236 l 1,11,-1
 776 140 l 1,8,-1
776 464 m 1,12,-1
 76 464 l 1,13,-1
 76 560 l 1,14,-1
 776 560 l 1,15,-1
 776 464 l 1,12,-1
EndSplineSet
EndChar

StartChar: section
Encoding: 167 167 579
Width: 640
GlyphClass: 1
Flags: W
LayerCount: 2
Fore
SplineSet
67 -96 m 1,0,-1
 67 0 l 1,1,-1
 474 0 l 1,2,-1
 474 138 l 1,3,-1
 146 138 l 1,4,-1
 52 232 l 1,5,-1
 52 602 l 1,6,-1
 150 700 l 1,7,-1
 568 700 l 1,8,-1
 568 604 l 1,9,-1
 166 604 l 1,10,-1
 166 466 l 1,11,-1
 494 466 l 1,12,-1
 588 372 l 1,13,-1
 588 1 l 1,14,-1
 491 -96 l 1,15,-1
 67 -96 l 1,0,-1
166 226 m 1,16,-1
 474 226 l 1,17,-1
 474 378 l 1,18,-1
 166 378 l 1,19,-1
 166 226 l 1,16,-1
EndSplineSet
EndChar

StartChar: paragraph
Encoding: 182 182 580
Width: 660
GlyphClass: 1
Flags: W
LayerCount: 2
Fore
SplineSet
604 -140 m 1,0,-1
 494 -140 l 1,1,-1
 494 602 l 1,2,-1
 418 602 l 1,3,-1
 418 -140 l 1,4,-1
 308 -140 l 1,5,-1
 308 150 l 1,6,-1
 158 150 l 1,7,-1
 36 272 l 1,8,-1
 36 574 l 1,9,-1
 162 700 l 1,10,-1
 604 700 l 1,11,-1
 604 -140 l 1,0,-1
EndSplineSet
EndChar

StartChar: ampersand
Encoding: 38 38 581
Width: 795
GlyphClass: 1
Flags: W
LayerCount: 2
Fore
SplineSet
608 0 m 1,0,-1
 142 629 l 1,1,-1
 213 700 l 1,2,-1
 605 700 l 1,3,-1
 605 605 l 1,4,-1
 289 605 l 1,5,-1
 739 0 l 1,6,-1
 608 0 l 1,0,-1
374 352 m 1,7,-1
 172 352 l 1,8,-1
 172 98 l 1,9,-1
 373 98 l 1,10,-1
 618 460 l 1,11,-1
 739 460 l 1,12,-1
 422 0 l 1,13,-1
 142 0 l 1,14,-1
 56 86 l 1,15,-1
 56 362 l 1,16,-1
 142 448 l 1,17,-1
 374 448 l 1,18,-1
 374 352 l 1,7,-1
EndSplineSet
EndChar

StartChar: at
Encoding: 64 64 582
Width: 800
GlyphClass: 1
Flags: W
LayerCount: 2
Fore
SplineSet
56 -48 m 1,0,-1
 56 608 l 1,1,-1
 148 700 l 1,2,-1
 644 700 l 1,3,-1
 744 600 l 1,4,-1
 744 194 l 1,5,-1
 652 102 l 1,6,-1
 394 102 l 1,7,-1
 300 194 l 1,8,-1
 300 446 l 1,9,-1
 634 458 l 1,10,-1
 634 606 l 1,11,-1
 166 606 l 1,12,-1
 166 -46 l 1,13,-1
 744 -46 l 1,14,-1
 744 -140 l 1,15,-1
 148 -140 l 1,16,-1
 56 -48 l 1,0,-1
410 194 m 1,17,-1
 634 194 l 1,18,-1
 634 391 l 1,19,-1
 410 371 l 1,20,-1
 410 194 l 1,17,-1
EndSplineSet
EndChar

StartChar: copyright
Encoding: 169 169 583
Width: 900
GlyphClass: 1
Flags: W
LayerCount: 2
Fore
SplineSet
239 178 m 1,0,-1
 239 462 l 1,1,-1
 337 560 l 1,2,-1
 661 560 l 1,3,-1
 661 456 l 1,4,-1
 353 456 l 1,5,-1
 353 184 l 1,6,-1
 661 184 l 1,7,-1
 661 80 l 1,8,-1
 337 80 l 1,9,-1
 239 178 l 1,0,-1
47 -6 m 1,10,-1
 47 646 l 1,11,-1
 141 740 l 1,12,-1
 759 740 l 1,13,-1
 853 646 l 1,14,-1
 853 -6 l 1,15,-1
 759 -100 l 1,16,-1
 141 -100 l 1,17,-1
 47 -6 l 1,10,-1
149 650 m 1,18,-1
 149 -10 l 1,19,-1
 751 -10 l 1,20,-1
 751 650 l 1,21,-1
 149 650 l 1,18,-1
EndSplineSet
EndChar

StartChar: registered
Encoding: 174 174 584
Width: 400
GlyphClass: 1
Flags: W
LayerCount: 2
Fore
SplineSet
200 370 m 0,0,1
 148 370 148 370 107 392 c 128,-1,2
 66 414 66 414 43 452.5 c 128,-1,3
 20 491 20 491 20 540 c 256,4,5
 20 589 20 589 43 627.5 c 128,-1,6
 66 666 66 666 107 688 c 128,-1,7
 148 710 148 710 200 710 c 0,8,9
 253 710 253 710 293.5 688 c 128,-1,10
 334 666 334 666 357 627.5 c 128,-1,11
 380 589 380 589 380 540 c 256,12,13
 380 491 380 491 357 452.5 c 128,-1,14
 334 414 334 414 293.5 392 c 128,-1,15
 253 370 253 370 200 370 c 0,0,1
64 540 m 256,16,17
 64 481 64 481 101 445.5 c 128,-1,18
 138 410 138 410 200 410 c 256,19,20
 262 410 262 410 299 445.5 c 128,-1,21
 336 481 336 481 336 540 c 256,22,23
 336 599 336 599 299 634.5 c 128,-1,24
 262 670 262 670 200 670 c 256,25,26
 138 670 138 670 101 634.5 c 128,-1,27
 64 599 64 599 64 540 c 256,16,17
130 453 m 1,28,-1
 130 630 l 1,29,-1
 205 630 l 2,30,31
 241 630 241 630 261.5 613.5 c 128,-1,32
 282 597 282 597 282 568 c 0,33,34
 282 547 282 547 271.5 532.5 c 128,-1,35
 261 518 261 518 246 512 c 1,36,-1
 290 453 l 1,37,-1
 234 453 l 1,38,-1
 205 507 l 1,39,-1
 175 507 l 1,40,-1
 175 453 l 1,41,-1
 130 453 l 1,28,-1
175 540 m 1,42,-1
 205 540 l 2,43,44
 236 540 236 540 236 566 c 0,45,46
 236 594 236 594 205 594 c 2,47,-1
 175 594 l 1,48,-1
 175 540 l 1,42,-1
EndSplineSet
EndChar

StartChar: trademark
Encoding: 8482 8482 585
Width: 600
GlyphClass: 1
Flags: W
LayerCount: 2
Fore
SplineSet
99 420 m 1,0,-1
 171 420 l 1,1,-1
 171 640 l 1,2,-1
 250 640 l 1,3,-1
 250 700 l 1,4,-1
 20 700 l 1,5,-1
 20 640 l 1,6,-1
 99 640 l 1,7,-1
 99 420 l 1,0,-1
280 700 m 1,8,-1
 280 420 l 1,9,-1
 348 420 l 1,10,-1
 348 617 l 1,11,-1
 420 520 l 1,12,-1
 492 617 l 1,13,-1
 492 420 l 1,14,-1
 560 420 l 1,15,-1
 560 700 l 1,16,-1
 497 700 l 1,17,-1
 420 595 l 1,18,-1
 343 700 l 1,19,-1
 280 700 l 1,8,-1
EndSplineSet
EndChar

StartChar: zero
Encoding: 48 48 586
Width: 730
GlyphClass: 2
Flags: W
AnchorPoint: "Anchor-0" 365 0 basechar 0
AnchorPoint: "Anchor-2" 365 700 basechar 0
LayerCount: 2
Fore
SplineSet
113 262 m 1,0,-1
 582 558 l 1,1,-1
 617 438 l 1,2,-1
 148 142 l 1,3,-1
 113 262 l 1,0,-1
75 94 m 1,4,-1
 75 606 l 1,5,-1
 169 700 l 1,6,-1
 561 700 l 1,7,-1
 655 606 l 1,8,-1
 655 94 l 1,9,-1
 561 0 l 1,10,-1
 169 0 l 1,11,-1
 75 94 l 1,4,-1
191 596 m 1,12,-1
 191 104 l 1,13,-1
 539 104 l 1,14,-1
 539 596 l 1,15,-1
 191 596 l 1,12,-1
EndSplineSet
Substitution2: "'zero' +MLkw6TDDMLcw5TBkME0wvDDt lookup 22 +MLUw1jDGMPww1jDr" zero.zero
Substitution2: "'tnum' +iGh1KGVwW1cA lookup 20 +MLUw1jDGMPww1jDr" zero.tnum
Substitution2: "'subs' +TgswZDBNZYdbVwAA lookup 19 +MLUw1jDGMPww1jDr" uni2080
Substitution2: "'sups' +TgowZDBNZYdbVwAA lookup 18 +MLUw1jDGMPww1jDr" uni2070
EndChar

StartChar: one
Encoding: 49 49 587
Width: 470
GlyphClass: 1
Flags: W
LayerCount: 2
Fore
SplineSet
65 -4 m 1,0,-1
 65 93 l 1,1,-1
 185 98 l 1,2,-1
 185 574 l 1,3,-1
 73 565 l 1,4,-1
 73 660 l 1,5,-1
 301 700 l 1,6,-1
 301 98 l 1,7,-1
 405 93 l 1,8,-1
 405 -4 l 1,9,-1
 235 4 l 1,10,-1
 65 -4 l 1,0,-1
EndSplineSet
Substitution2: "'tnum' +iGh1KGVwW1cA lookup 20 +MLUw1jDGMPww1jDr" one.tnum
Substitution2: "'subs' +TgswZDBNZYdbVwAA lookup 19 +MLUw1jDGMPww1jDr" uni2081
Substitution2: "'sups' +TgowZDBNZYdbVwAA lookup 18 +MLUw1jDGMPww1jDr" onesuperior
EndChar

StartChar: two
Encoding: 50 50 588
Width: 690
GlyphClass: 1
Flags: W
LayerCount: 2
Fore
SplineSet
615 102 m 1,0,-1
 615 0 l 1,1,-1
 75 0 l 1,2,-1
 75 360 l 1,3,-1
 499 410 l 1,4,-1
 499 598 l 1,5,-1
 83 598 l 1,6,-1
 83 700 l 1,7,-1
 521 700 l 1,8,-1
 615 606 l 1,9,-1
 615 326 l 1,10,-1
 191 276 l 1,11,-1
 191 102 l 1,12,-1
 615 102 l 1,0,-1
EndSplineSet
Substitution2: "'tnum' +iGh1KGVwW1cA lookup 20 +MLUw1jDGMPww1jDr" two.tnum
Substitution2: "'subs' +TgswZDBNZYdbVwAA lookup 19 +MLUw1jDGMPww1jDr" uni2082
Substitution2: "'sups' +TgowZDBNZYdbVwAA lookup 18 +MLUw1jDGMPww1jDr" twosuperior
EndChar

StartChar: three
Encoding: 51 51 589
Width: 654
GlyphClass: 1
Flags: W
LayerCount: 2
Fore
SplineSet
509 0 m 1,0,-1
 53 0 l 1,1,-1
 53 100 l 1,2,-1
 483 100 l 1,3,-1
 483 310 l 1,4,-1
 113 310 l 1,5,-1
 113 408 l 1,6,-1
 463 408 l 1,7,-1
 463 600 l 1,8,-1
 63 600 l 1,9,-1
 63 700 l 1,10,-1
 489 700 l 1,11,-1
 581 608 l 1,12,-1
 581 411 l 1,13,-1
 522 366 l 1,14,-1
 601 304 l 1,15,-1
 601 92 l 1,16,-1
 509 0 l 1,0,-1
EndSplineSet
Substitution2: "'tnum' +iGh1KGVwW1cA lookup 20 +MLUw1jDGMPww1jDr" three.tnum
Substitution2: "'subs' +TgswZDBNZYdbVwAA lookup 19 +MLUw1jDGMPww1jDr" uni2083
Substitution2: "'sups' +TgowZDBNZYdbVwAA lookup 18 +MLUw1jDGMPww1jDr" threesuperior
EndChar

StartChar: four
Encoding: 52 52 590
Width: 680
GlyphClass: 1
Flags: W
LayerCount: 2
Fore
SplineSet
68 180 m 1,0,-1
 99 700 l 1,1,-1
 212 700 l 1,2,-1
 184 284 l 1,3,-1
 496 284 l 1,4,-1
 496 700 l 1,5,-1
 612 700 l 1,6,-1
 612 0 l 1,7,-1
 496 0 l 1,8,-1
 496 180 l 1,9,-1
 68 180 l 1,0,-1
EndSplineSet
Substitution2: "'tnum' +iGh1KGVwW1cA lookup 20 +MLUw1jDGMPww1jDr" four.tnum
Substitution2: "'subs' +TgswZDBNZYdbVwAA lookup 19 +MLUw1jDGMPww1jDr" uni2084
Substitution2: "'sups' +TgowZDBNZYdbVwAA lookup 18 +MLUw1jDGMPww1jDr" uni2074
EndChar

StartChar: five
Encoding: 53 53 591
Width: 690
GlyphClass: 1
Flags: W
LayerCount: 2
Fore
SplineSet
615 598 m 1,0,-1
 191 598 l 1,1,-1
 191 425 l 1,2,-1
 615 394 l 1,3,-1
 615 94 l 1,4,-1
 521 0 l 1,5,-1
 63 0 l 1,6,-1
 113 102 l 1,7,-1
 499 102 l 1,8,-1
 499 308 l 1,9,-1
 75 338 l 1,10,-1
 75 700 l 1,11,-1
 615 700 l 1,12,-1
 615 598 l 1,0,-1
EndSplineSet
Substitution2: "'tnum' +iGh1KGVwW1cA lookup 20 +MLUw1jDGMPww1jDr" five.tnum
Substitution2: "'subs' +TgswZDBNZYdbVwAA lookup 19 +MLUw1jDGMPww1jDr" uni2085
Substitution2: "'sups' +TgowZDBNZYdbVwAA lookup 18 +MLUw1jDGMPww1jDr" uni2075
EndChar

StartChar: six
Encoding: 54 54 592
Width: 690
GlyphClass: 1
Flags: W
LayerCount: 2
Fore
SplineSet
167 0 m 1,0,-1
 75 92 l 1,1,-1
 75 608 l 1,2,-1
 167 700 l 1,3,-1
 576 700 l 1,4,-1
 576 598 l 1,5,-1
 191 598 l 1,6,-1
 191 442 l 1,7,-1
 544 442 l 1,8,-1
 615 371 l 1,9,-1
 615 92 l 1,10,-1
 523 0 l 1,11,-1
 167 0 l 1,0,-1
191 100 m 1,12,-1
 499 100 l 1,13,-1
 499 350 l 1,14,-1
 191 350 l 1,15,-1
 191 100 l 1,12,-1
EndSplineSet
Substitution2: "'tnum' +iGh1KGVwW1cA lookup 20 +MLUw1jDGMPww1jDr" six.tnum
Substitution2: "'subs' +TgswZDBNZYdbVwAA lookup 19 +MLUw1jDGMPww1jDr" uni2086
Substitution2: "'sups' +TgowZDBNZYdbVwAA lookup 18 +MLUw1jDGMPww1jDr" uni2076
EndChar

StartChar: seven
Encoding: 55 55 593
Width: 652
GlyphClass: 1
Flags: W
LayerCount: 2
Fore
SplineSet
147 0 m 1,0,-1
 479 462 l 1,1,-1
 479 600 l 1,2,-1
 171 600 l 1,3,-1
 171 456 l 1,4,-1
 57 456 l 1,5,-1
 57 700 l 1,6,-1
 595 700 l 1,7,-1
 595 441 l 1,8,-1
 285 0 l 1,9,-1
 147 0 l 1,0,-1
EndSplineSet
Substitution2: "'tnum' +iGh1KGVwW1cA lookup 20 +MLUw1jDGMPww1jDr" seven.tnum
Substitution2: "'subs' +TgswZDBNZYdbVwAA lookup 19 +MLUw1jDGMPww1jDr" uni2087
Substitution2: "'sups' +TgowZDBNZYdbVwAA lookup 18 +MLUw1jDGMPww1jDr" uni2077
EndChar

StartChar: eight
Encoding: 56 56 594
Width: 706
GlyphClass: 1
Flags: W
LayerCount: 2
Fore
SplineSet
204 409 m 1,0,-1
 502 409 l 1,1,-1
 502 602 l 1,2,-1
 204 602 l 1,3,-1
 204 409 l 1,0,-1
186 98 m 1,4,-1
 523 98 l 1,5,-1
 523 317 l 1,6,-1
 186 317 l 1,7,-1
 186 98 l 1,4,-1
158 0 m 1,8,-1
 64 94 l 1,9,-1
 64 302 l 1,10,-1
 145 366 l 1,11,-1
 84 413 l 1,12,-1
 84 606 l 1,13,-1
 178 700 l 1,14,-1
 528 700 l 1,15,-1
 622 606 l 1,16,-1
 622 413 l 1,17,-1
 561 366 l 1,18,-1
 642 302 l 1,19,-1
 642 94 l 1,20,-1
 548 0 l 1,21,-1
 158 0 l 1,8,-1
EndSplineSet
Substitution2: "'tnum' +iGh1KGVwW1cA lookup 20 +MLUw1jDGMPww1jDr" eight.tnum
Substitution2: "'subs' +TgswZDBNZYdbVwAA lookup 19 +MLUw1jDGMPww1jDr" uni2088
Substitution2: "'sups' +TgowZDBNZYdbVwAA lookup 18 +MLUw1jDGMPww1jDr" uni2078
EndChar

StartChar: nine
Encoding: 57 57 595
Width: 690
GlyphClass: 1
Flags: W
LayerCount: 2
Fore
SplineSet
523 700 m 1,0,-1
 615 608 l 1,1,-1
 615 92 l 1,2,-1
 523 0 l 1,3,-1
 114 0 l 1,4,-1
 114 102 l 1,5,-1
 499 102 l 1,6,-1
 499 258 l 1,7,-1
 146 258 l 1,8,-1
 75 329 l 1,9,-1
 75 608 l 1,10,-1
 167 700 l 1,11,-1
 523 700 l 1,0,-1
499 600 m 1,12,-1
 191 600 l 1,13,-1
 191 350 l 1,14,-1
 499 350 l 1,15,-1
 499 600 l 1,12,-1
EndSplineSet
Substitution2: "'tnum' +iGh1KGVwW1cA lookup 20 +MLUw1jDGMPww1jDr" nine.tnum
Substitution2: "'subs' +TgswZDBNZYdbVwAA lookup 19 +MLUw1jDGMPww1jDr" uni2089
Substitution2: "'sups' +TgowZDBNZYdbVwAA lookup 18 +MLUw1jDGMPww1jDr" uni2079
EndChar

StartChar: zero.tnum
Encoding: 65551 -1 596
Width: 730
GlyphClass: 1
Flags: W
AnchorPoint: "Anchor-0" 365 0 basechar 0
AnchorPoint: "Anchor-2" 365 700 basechar 0
LayerCount: 2
Fore
SplineSet
113 262 m 1,0,-1
 582 558 l 1,1,-1
 617 438 l 1,2,-1
 148 142 l 1,3,-1
 113 262 l 1,0,-1
75 94 m 1,4,-1
 75 606 l 1,5,-1
 169 700 l 1,6,-1
 561 700 l 1,7,-1
 655 606 l 1,8,-1
 655 94 l 1,9,-1
 561 0 l 1,10,-1
 169 0 l 1,11,-1
 75 94 l 1,4,-1
191 596 m 1,12,-1
 191 104 l 1,13,-1
 539 104 l 1,14,-1
 539 596 l 1,15,-1
 191 596 l 1,12,-1
EndSplineSet
Substitution2: "'zero' +MLkw6TDDMLcw5TBkME0wvDDt lookup 22 +MLUw1jDGMPww1jDr" zero.tnum.zero
EndChar

StartChar: one.tnum
Encoding: 65552 -1 597
Width: 690
GlyphClass: 1
Flags: W
LayerCount: 2
Fore
SplineSet
73 -4 m 1,0,-1
 73 93 l 1,1,-1
 297 98 l 1,2,-1
 297 574 l 1,3,-1
 93 565 l 1,4,-1
 93 660 l 1,5,-1
 413 700 l 1,6,-1
 413 98 l 1,7,-1
 617 93 l 1,8,-1
 617 -4 l 1,9,-1
 347 4 l 1,10,-1
 73 -4 l 1,0,-1
EndSplineSet
Substitution2: "'pnum' +MNcw7TDdMPwwtzDnMMow62VwW1cA lookup 21 +MLUw1jDGMPww1jDr" one
EndChar

StartChar: two.tnum
Encoding: 65553 -1 598
Width: 690
GlyphClass: 1
Flags: W
LayerCount: 2
Fore
SplineSet
615 102 m 1,0,-1
 615 0 l 1,1,-1
 75 0 l 1,2,-1
 75 360 l 1,3,-1
 499 410 l 1,4,-1
 499 598 l 1,5,-1
 83 598 l 1,6,-1
 83 700 l 1,7,-1
 521 700 l 1,8,-1
 615 606 l 1,9,-1
 615 326 l 1,10,-1
 191 276 l 1,11,-1
 191 102 l 1,12,-1
 615 102 l 1,0,-1
EndSplineSet
Substitution2: "'pnum' +MNcw7TDdMPwwtzDnMMow62VwW1cA lookup 21 +MLUw1jDGMPww1jDr" two
EndChar

StartChar: three.tnum
Encoding: 65554 -1 599
Width: 690
GlyphClass: 1
Flags: W
LayerCount: 2
Fore
SplineSet
535 0 m 1,0,-1
 61 0 l 1,1,-1
 61 100 l 1,2,-1
 512 100 l 1,3,-1
 512 310 l 1,4,-1
 121 310 l 1,5,-1
 121 408 l 1,6,-1
 492 408 l 1,7,-1
 492 600 l 1,8,-1
 71 600 l 1,9,-1
 71 700 l 1,10,-1
 515 700 l 1,11,-1
 609 606 l 1,12,-1
 609 413 l 1,13,-1
 548 366 l 1,14,-1
 629 302 l 1,15,-1
 629 94 l 1,16,-1
 535 0 l 1,0,-1
EndSplineSet
Substitution2: "'pnum' +MNcw7TDdMPwwtzDnMMow62VwW1cA lookup 21 +MLUw1jDGMPww1jDr" three
EndChar

StartChar: four.tnum
Encoding: 65555 -1 600
Width: 690
GlyphClass: 1
Flags: W
LayerCount: 2
Fore
SplineSet
71 180 m 1,0,-1
 102 700 l 1,1,-1
 215 700 l 1,2,-1
 187 284 l 1,3,-1
 503 284 l 1,4,-1
 503 700 l 1,5,-1
 619 700 l 1,6,-1
 619 0 l 1,7,-1
 503 0 l 1,8,-1
 503 180 l 1,9,-1
 71 180 l 1,0,-1
EndSplineSet
Substitution2: "'pnum' +MNcw7TDdMPwwtzDnMMow62VwW1cA lookup 21 +MLUw1jDGMPww1jDr" four
EndChar

StartChar: five.tnum
Encoding: 65556 -1 601
Width: 690
GlyphClass: 1
Flags: W
LayerCount: 2
Fore
SplineSet
615 598 m 1,0,-1
 191 598 l 1,1,-1
 191 425 l 1,2,-1
 615 394 l 1,3,-1
 615 94 l 1,4,-1
 521 0 l 1,5,-1
 63 0 l 1,6,-1
 113 102 l 1,7,-1
 499 102 l 1,8,-1
 499 308 l 1,9,-1
 75 338 l 1,10,-1
 75 700 l 1,11,-1
 615 700 l 1,12,-1
 615 598 l 1,0,-1
EndSplineSet
Substitution2: "'pnum' +MNcw7TDdMPwwtzDnMMow62VwW1cA lookup 21 +MLUw1jDGMPww1jDr" five
EndChar

StartChar: six.tnum
Encoding: 65557 -1 602
Width: 690
GlyphClass: 1
Flags: W
LayerCount: 2
Fore
SplineSet
167 0 m 1,0,-1
 75 92 l 1,1,-1
 75 608 l 1,2,-1
 167 700 l 1,3,-1
 576 700 l 1,4,-1
 576 598 l 1,5,-1
 191 598 l 1,6,-1
 191 442 l 1,7,-1
 544 442 l 1,8,-1
 615 371 l 1,9,-1
 615 92 l 1,10,-1
 523 0 l 1,11,-1
 167 0 l 1,0,-1
191 100 m 1,12,-1
 499 100 l 1,13,-1
 499 350 l 1,14,-1
 191 350 l 1,15,-1
 191 100 l 1,12,-1
EndSplineSet
Substitution2: "'pnum' +MNcw7TDdMPwwtzDnMMow62VwW1cA lookup 21 +MLUw1jDGMPww1jDr" six
EndChar

StartChar: seven.tnum
Encoding: 65558 -1 603
Width: 690
GlyphClass: 1
Flags: W
LayerCount: 2
Fore
SplineSet
148 0 m 1,0,-1
 516 460 l 1,1,-1
 516 600 l 1,2,-1
 172 600 l 1,3,-1
 172 448 l 1,4,-1
 58 448 l 1,5,-1
 58 700 l 1,6,-1
 632 700 l 1,7,-1
 632 441 l 1,8,-1
 291 0 l 1,9,-1
 148 0 l 1,0,-1
EndSplineSet
Substitution2: "'pnum' +MNcw7TDdMPwwtzDnMMow62VwW1cA lookup 21 +MLUw1jDGMPww1jDr" seven
EndChar

StartChar: eight.tnum
Encoding: 65559 -1 604
Width: 690
GlyphClass: 1
Flags: W
LayerCount: 2
Fore
SplineSet
195 409 m 1,0,-1
 495 409 l 1,1,-1
 495 602 l 1,2,-1
 195 602 l 1,3,-1
 195 409 l 1,0,-1
177 98 m 1,4,-1
 516 98 l 1,5,-1
 516 317 l 1,6,-1
 177 317 l 1,7,-1
 177 98 l 1,4,-1
151 0 m 1,8,-1
 57 94 l 1,9,-1
 57 302 l 1,10,-1
 138 366 l 1,11,-1
 77 413 l 1,12,-1
 77 606 l 1,13,-1
 171 700 l 1,14,-1
 519 700 l 1,15,-1
 613 606 l 1,16,-1
 613 413 l 1,17,-1
 552 366 l 1,18,-1
 633 302 l 1,19,-1
 633 94 l 1,20,-1
 539 0 l 1,21,-1
 151 0 l 1,8,-1
EndSplineSet
Substitution2: "'pnum' +MNcw7TDdMPwwtzDnMMow62VwW1cA lookup 21 +MLUw1jDGMPww1jDr" eight
EndChar

StartChar: nine.tnum
Encoding: 65560 -1 605
Width: 690
GlyphClass: 1
Flags: W
LayerCount: 2
Fore
SplineSet
523 700 m 1,0,-1
 615 608 l 1,1,-1
 615 92 l 1,2,-1
 523 0 l 1,3,-1
 114 0 l 1,4,-1
 114 102 l 1,5,-1
 499 102 l 1,6,-1
 499 258 l 1,7,-1
 146 258 l 1,8,-1
 75 329 l 1,9,-1
 75 608 l 1,10,-1
 167 700 l 1,11,-1
 523 700 l 1,0,-1
499 600 m 1,12,-1
 191 600 l 1,13,-1
 191 350 l 1,14,-1
 499 350 l 1,15,-1
 499 600 l 1,12,-1
EndSplineSet
Substitution2: "'pnum' +MNcw7TDdMPwwtzDnMMow62VwW1cA lookup 21 +MLUw1jDGMPww1jDr" nine
EndChar

StartChar: uni2070
Encoding: 8304 8304 606
Width: 496
GlyphClass: 2
Flags: W
AnchorPoint: "Anchor-2" 248 700 basechar 0
AnchorPoint: "Anchor-0" 248 0 basechar 0
LayerCount: 2
Fore
SplineSet
46 381 m 1,0,-1
 46 619 l 1,1,-1
 131 700 l 1,2,-1
 365 700 l 1,3,-1
 450 619 l 1,4,-1
 450 381 l 1,5,-1
 365 300 l 1,6,-1
 131 300 l 1,7,-1
 46 381 l 1,0,-1
150 622 m 1,8,-1
 150 378 l 1,9,-1
 346 378 l 1,10,-1
 346 622 l 1,11,-1
 150 622 l 1,8,-1
92 438 m 1,12,-1
 369 598 l 1,13,-1
 404 562 l 1,14,-1
 127 402 l 1,15,-1
 92 438 l 1,12,-1
EndSplineSet
Substitution2: "'zero' +MLkw6TDDMLcw5TBkME0wvDDt lookup 22 +MLUw1jDGMPww1jDr" uni2070.zero
EndChar

StartChar: onesuperior
Encoding: 185 185 607
Width: 414
GlyphClass: 1
Flags: W
LayerCount: 2
Fore
SplineSet
45 300 m 1,0,-1
 45 372 l 1,1,-1
 160 379 l 1,2,-1
 160 600 l 1,3,-1
 53 591 l 1,4,-1
 53 663 l 1,5,-1
 262 700 l 1,6,-1
 262 379 l 1,7,-1
 369 372 l 1,8,-1
 369 300 l 1,9,-1
 207 307 l 1,10,-1
 45 300 l 1,0,-1
EndSplineSet
EndChar

StartChar: twosuperior
Encoding: 178 178 608
Width: 486
GlyphClass: 1
Flags: W
LayerCount: 2
Fore
SplineSet
438 380 m 1,0,-1
 438 300 l 1,1,-1
 48 300 l 1,2,-1
 48 501 l 1,3,-1
 335 547 l 1,4,-1
 335 620 l 1,5,-1
 56 620 l 1,6,-1
 56 700 l 1,7,-1
 353 700 l 1,8,-1
 438 619 l 1,9,-1
 438 486 l 1,10,-1
 151 440 l 1,11,-1
 151 380 l 1,12,-1
 438 380 l 1,0,-1
EndSplineSet
EndChar

StartChar: threesuperior
Encoding: 179 179 609
Width: 468
GlyphClass: 1
Flags: W
LayerCount: 2
Fore
SplineSet
363 300 m 1,0,-1
 38 300 l 1,1,-1
 38 379 l 1,2,-1
 322 379 l 1,3,-1
 322 468 l 1,4,-1
 81 468 l 1,5,-1
 81 543 l 1,6,-1
 308 543 l 1,7,-1
 308 621 l 1,8,-1
 45 621 l 1,9,-1
 45 700 l 1,10,-1
 348 700 l 1,11,-1
 410 648 l 1,12,-1
 410 536 l 1,13,-1
 366 509 l 1,14,-1
 424 473 l 1,15,-1
 424 352 l 1,16,-1
 363 300 l 1,0,-1
EndSplineSet
EndChar

StartChar: uni2074
Encoding: 8308 8308 610
Width: 486
GlyphClass: 1
Flags: W
LayerCount: 2
Fore
SplineSet
36 411 m 1,0,-1
 58 700 l 1,1,-1
 156 700 l 1,2,-1
 136 490 l 1,3,-1
 342 490 l 1,4,-1
 342 700 l 1,5,-1
 438 700 l 1,6,-1
 438 300 l 1,7,-1
 342 300 l 1,8,-1
 342 411 l 1,9,-1
 36 411 l 1,0,-1
EndSplineSet
EndChar

StartChar: uni2075
Encoding: 8309 8309 611
Width: 486
GlyphClass: 1
Flags: W
LayerCount: 2
Fore
SplineSet
434 621 m 1,0,-1
 146 621 l 1,1,-1
 146 550 l 1,2,-1
 438 533 l 1,3,-1
 438 354 l 1,4,-1
 371 300 l 1,5,-1
 52 300 l 1,6,-1
 52 379 l 1,7,-1
 340 379 l 1,8,-1
 340 466 l 1,9,-1
 48 484 l 1,10,-1
 48 700 l 1,11,-1
 434 700 l 1,12,-1
 434 621 l 1,0,-1
EndSplineSet
EndChar

StartChar: uni2076
Encoding: 8310 8310 612
Width: 497
GlyphClass: 1
Flags: W
LayerCount: 2
Fore
SplineSet
113 300 m 1,0,-1
 47 353 l 1,1,-1
 47 647 l 1,2,-1
 113 700 l 1,3,-1
 422 700 l 1,4,-1
 422 621 l 1,5,-1
 145 621 l 1,6,-1
 145 552 l 1,7,-1
 399 552 l 1,8,-1
 450 512 l 1,9,-1
 450 353 l 1,10,-1
 384 300 l 1,11,-1
 113 300 l 1,0,-1
145 379 m 1,12,-1
 351 379 l 1,13,-1
 351 482 l 1,14,-1
 145 482 l 1,15,-1
 145 379 l 1,12,-1
EndSplineSet
EndChar

StartChar: uni2077
Encoding: 8311 8311 613
Width: 454
GlyphClass: 1
Flags: W
LayerCount: 2
Fore
SplineSet
86 300 m 1,0,-1
 324 563 l 1,1,-1
 324 623 l 1,2,-1
 122 623 l 1,3,-1
 122 532 l 1,4,-1
 30 532 l 1,5,-1
 30 700 l 1,6,-1
 424 700 l 1,7,-1
 424 539 l 1,8,-1
 215 300 l 1,9,-1
 86 300 l 1,0,-1
EndSplineSet
EndChar

StartChar: uni2078
Encoding: 8312 8312 614
Width: 498
GlyphClass: 1
Flags: W
LayerCount: 2
Fore
SplineSet
156 542 m 1,0,-1
 342 542 l 1,1,-1
 342 624 l 1,2,-1
 156 624 l 1,3,-1
 156 542 l 1,0,-1
140 376 m 1,4,-1
 358 376 l 1,5,-1
 358 472 l 1,6,-1
 140 472 l 1,7,-1
 140 376 l 1,4,-1
105 300 m 1,8,-1
 44 352 l 1,9,-1
 44 473 l 1,10,-1
 100 509 l 1,11,-1
 58 536 l 1,12,-1
 58 648 l 1,13,-1
 120 700 l 1,14,-1
 379 700 l 1,15,-1
 440 648 l 1,16,-1
 440 536 l 1,17,-1
 399 509 l 1,18,-1
 454 473 l 1,19,-1
 454 352 l 1,20,-1
 394 300 l 1,21,-1
 105 300 l 1,8,-1
EndSplineSet
EndChar

StartChar: uni2079
Encoding: 8313 8313 615
Width: 497
GlyphClass: 1
Flags: W
LayerCount: 2
Fore
SplineSet
384 700 m 1,0,-1
 450 647 l 1,1,-1
 450 353 l 1,2,-1
 384 300 l 1,3,-1
 75 300 l 1,4,-1
 75 379 l 1,5,-1
 351 379 l 1,6,-1
 351 448 l 1,7,-1
 98 448 l 1,8,-1
 47 488 l 1,9,-1
 47 647 l 1,10,-1
 113 700 l 1,11,-1
 384 700 l 1,0,-1
351 621 m 1,12,-1
 145 621 l 1,13,-1
 145 518 l 1,14,-1
 351 518 l 1,15,-1
 351 621 l 1,12,-1
EndSplineSet
EndChar

StartChar: zero.zero
Encoding: 65561 -1 626
Width: 730
GlyphClass: 2
Flags: W
AnchorPoint: "Anchor-0" 365 0 basechar 0
AnchorPoint: "Anchor-2" 365 700 basechar 0
LayerCount: 2
Fore
SplineSet
113 262 m 1,0,-1
 582 558 l 1,1,-1
 617 438 l 1,2,-1
 148 142 l 1,3,-1
 113 262 l 1,0,-1
75 94 m 1,4,-1
 75 606 l 1,5,-1
 169 700 l 1,6,-1
 561 700 l 1,7,-1
 655 606 l 1,8,-1
 655 94 l 1,9,-1
 561 0 l 1,10,-1
 169 0 l 1,11,-1
 75 94 l 1,4,-1
191 596 m 1,12,-1
 191 104 l 1,13,-1
 539 104 l 1,14,-1
 539 596 l 1,15,-1
 191 596 l 1,12,-1
EndSplineSet
EndChar

StartChar: zero.tnum.zero
Encoding: 65562 -1 627
Width: 730
GlyphClass: 1
Flags: W
AnchorPoint: "Anchor-0" 365 0 basechar 0
AnchorPoint: "Anchor-2" 365 700 basechar 0
LayerCount: 2
Fore
SplineSet
113 262 m 1,0,-1
 582 558 l 1,1,-1
 617 438 l 1,2,-1
 148 142 l 1,3,-1
 113 262 l 1,0,-1
75 94 m 1,4,-1
 75 606 l 1,5,-1
 169 700 l 1,6,-1
 561 700 l 1,7,-1
 655 606 l 1,8,-1
 655 94 l 1,9,-1
 561 0 l 1,10,-1
 169 0 l 1,11,-1
 75 94 l 1,4,-1
191 596 m 1,12,-1
 191 104 l 1,13,-1
 539 104 l 1,14,-1
 539 596 l 1,15,-1
 191 596 l 1,12,-1
EndSplineSet
Substitution2: "'pnum' +MNcw7TDdMPwwtzDnMMow62VwW1cA lookup 21 +MLUw1jDGMPww1jDr" zero
EndChar

StartChar: uni2070.zero
Encoding: 65563 -1 628
Width: 496
GlyphClass: 2
Flags: W
AnchorPoint: "Anchor-2" 248 700 basechar 0
AnchorPoint: "Anchor-0" 248 0 basechar 0
LayerCount: 2
Fore
SplineSet
46 381 m 5,0,-1
 46 619 l 5,1,-1
 131 700 l 5,2,-1
 365 700 l 5,3,-1
 450 619 l 5,4,-1
 450 381 l 5,5,-1
 365 300 l 5,6,-1
 131 300 l 5,7,-1
 46 381 l 5,0,-1
150 622 m 5,8,-1
 150 378 l 5,9,-1
 346 378 l 5,10,-1
 346 622 l 5,11,-1
 150 622 l 5,8,-1
92 438 m 5,12,-1
 369 598 l 5,13,-1
 404 562 l 5,14,-1
 127 402 l 5,15,-1
 92 438 l 5,12,-1
EndSplineSet
EndChar

StartChar: fraction
Encoding: 8260 8260 630
Width: 200
GlyphClass: 1
Flags: W
LayerCount: 2
Fore
SplineSet
-160 0 m 1,0,-1
 255 700 l 1,1,-1
 360 700 l 1,2,-1
 -55 0 l 1,3,-1
 -160 0 l 1,0,-1
EndSplineSet
EndChar

StartChar: percent
Encoding: 37 37 634
Width: 680
GlyphClass: 1
Flags: W
LayerCount: 2
Fore
SplineSet
549.205078125 259.004882812 m 1,0,-1
 480.794921875 259.004882812 l 1,1,-1
 480.794921875 52.1943359375 l 1,2,-1
 549.205078125 52.1943359375 l 1,3,-1
 549.205078125 259.004882812 l 1,0,-1
409.205078125 58 m 2,4,-1
 409.205078125 253.19921875 l 2,5,6
 409.610351562 264.288085938 409.610351562 264.288085938 416.522460938 270.876953125 c 2,7,-1
 450.9609375 303.705078125 l 2,8,9
 458.174804688 310.594726562 458.174804688 310.594726562 468.200195312 310.594726562 c 2,10,-1
 561.799804688 310.594726562 l 2,11,12
 571.599609375 311 571.599609375 311 579.0390625 303.705078125 c 0,13,14
 613.599609375 271 613.599609375 271 613.477539062 270.876953125 c 0,15,16
 620.794921875 263.811523438 620.794921875 263.811523438 620.794921875 253.19921875 c 2,17,-1
 620.794921875 58 l 2,18,19
 620.6015625 47.1015625 620.6015625 47.1015625 613.0390625 39.89453125 c 2,20,-1
 579.0390625 7.494140625 l 2,21,22
 571.146484375 0.6044921875 571.146484375 0.6044921875 561.799804688 0.6044921875 c 2,23,-1
 468.200195312 0.6044921875 l 2,24,25
 457.73828125 1.03515625 457.73828125 1.03515625 450.9609375 7.494140625 c 2,26,-1
 416.9609375 39.89453125 l 2,27,28
 409.599609375 47 409.599609375 47 409.205078125 58 c 2,4,-1
60.599609375 0 m 1,29,-1
 488.599609375 700 l 1,30,-1
 608.599609375 700 l 1,31,-1
 180.599609375 0 l 1,32,-1
 60.599609375 0 l 1,29,-1
199.205078125 681.004882812 m 1,33,-1
 130.794921875 681.004882812 l 1,34,-1
 130.794921875 474.194335938 l 1,35,-1
 199.205078125 474.194335938 l 1,36,-1
 199.205078125 681.004882812 l 1,33,-1
59.205078125 480 m 2,37,-1
 59.205078125 675.19921875 l 2,38,39
 59.6103515625 686.288085938 59.6103515625 686.288085938 66.5224609375 692.876953125 c 2,40,-1
 100.9609375 725.705078125 l 2,41,42
 108.174804688 732.594726562 108.174804688 732.594726562 118.200195312 732.594726562 c 2,43,-1
 211.799804688 732.594726562 l 2,44,45
 221.599609375 733 221.599609375 733 229.0390625 725.705078125 c 0,46,47
 263.599609375 693 263.599609375 693 263.477539062 692.876953125 c 0,48,49
 270.794921875 685.811523438 270.794921875 685.811523438 270.794921875 675.19921875 c 2,50,-1
 270.794921875 480 l 2,51,52
 270.6015625 469.1015625 270.6015625 469.1015625 263.0390625 461.89453125 c 2,53,-1
 229.0390625 429.494140625 l 2,54,55
 221.146484375 422.604492188 221.146484375 422.604492188 211.799804688 422.604492188 c 2,56,-1
 118.200195312 422.604492188 l 2,57,58
 107.73828125 423.03515625 107.73828125 423.03515625 100.9609375 429.494140625 c 2,59,-1
 66.9609375 461.89453125 l 2,60,61
 59.599609375 469 59.599609375 469 59.205078125 480 c 2,37,-1
EndSplineSet
EndChar

StartChar: minute
Encoding: 8242 8242 635
Width: 208
GlyphClass: 1
Flags: W
LayerCount: 2
Fore
SplineSet
50 456 m 1,0,-1
 50 700 l 1,1,-1
 168 700 l 1,2,-1
 128 456 l 1,3,-1
 50 456 l 1,0,-1
EndSplineSet
EndChar

StartChar: second
Encoding: 8243 8243 636
Width: 372
GlyphClass: 1
Flags: W
LayerCount: 2
Fore
SplineSet
50 456 m 1,0,-1
 50 700 l 1,1,-1
 168 700 l 1,2,-1
 128 456 l 1,3,-1
 50 456 l 1,0,-1
214 456 m 1,4,-1
 214 700 l 1,5,-1
 332 700 l 1,6,-1
 292 456 l 1,7,-1
 214 456 l 1,4,-1
EndSplineSet
EndChar

StartChar: plus
Encoding: 43 43 637
Width: 680
GlyphClass: 1
Flags: W
LayerCount: 2
Fore
SplineSet
80 269 m 1,0,-1
 80 371 l 1,1,-1
 600 371 l 1,2,-1
 600 269 l 1,3,-1
 80 269 l 1,0,-1
394 60 m 1,4,-1
 286 60 l 1,5,-1
 286 580 l 1,6,-1
 394 580 l 1,7,-1
 394 60 l 1,4,-1
EndSplineSet
EndChar

StartChar: minus
Encoding: 8722 8722 638
Width: 600
GlyphClass: 1
Flags: W
LayerCount: 2
Fore
SplineSet
40 269 m 1,0,-1
 40 371 l 1,1,-1
 560 371 l 1,2,-1
 560 269 l 1,3,-1
 40 269 l 1,0,-1
EndSplineSet
EndChar

StartChar: multiply
Encoding: 215 215 639
Width: 600
GlyphClass: 1
Flags: W
LayerCount: 2
Fore
SplineSet
55 147 m 1,0,-1
 228 320 l 1,1,-1
 55 493 l 1,2,-1
 127 565 l 1,3,-1
 300 392 l 1,4,-1
 473 565 l 1,5,-1
 545 493 l 1,6,-1
 372 320 l 1,7,-1
 545 147 l 1,8,-1
 473 75 l 1,9,-1
 300 248 l 1,10,-1
 127 75 l 1,11,-1
 55 147 l 1,0,-1
EndSplineSet
EndChar

StartChar: divide
Encoding: 247 247 640
Width: 600
GlyphClass: 1
Flags: W
LayerCount: 2
Fore
SplineSet
244 62 m 1,0,-1
 244 176 l 1,1,-1
 356 176 l 1,2,-1
 356 62 l 1,3,-1
 244 62 l 1,0,-1
244 464 m 1,4,-1
 244 578 l 1,5,-1
 356 578 l 1,6,-1
 356 464 l 1,7,-1
 244 464 l 1,4,-1
40 269 m 1,8,-1
 40 371 l 1,9,-1
 560 371 l 1,10,-1
 560 269 l 1,11,-1
 40 269 l 1,8,-1
EndSplineSet
EndChar

StartChar: equal
Encoding: 61 61 641
Width: 644
GlyphClass: 1
Flags: W
LayerCount: 2
Fore
SplineSet
62 378 m 1,0,-1
 62 476 l 1,1,-1
 582 476 l 1,2,-1
 582 378 l 1,3,-1
 62 378 l 1,0,-1
62 164 m 1,4,-1
 62 262 l 1,5,-1
 582 262 l 1,6,-1
 582 164 l 1,7,-1
 62 164 l 1,4,-1
EndSplineSet
EndChar

StartChar: less
Encoding: 60 60 642
Width: 600
GlyphClass: 1
Flags: W
LayerCount: 2
Fore
SplineSet
30 225 m 1,0,-1
 30 335 l 1,1,-1
 560 560 l 1,2,-1
 560 449 l 1,3,-1
 153 280 l 1,4,-1
 560 111 l 1,5,-1
 560 0 l 1,6,-1
 30 225 l 1,0,-1
EndSplineSet
EndChar

StartChar: greater
Encoding: 62 62 643
Width: 600
GlyphClass: 1
Flags: W
LayerCount: 2
Fore
SplineSet
570 335 m 1,0,-1
 570 225 l 1,1,-1
 40 0 l 1,2,-1
 40 111 l 1,3,-1
 447 280 l 1,4,-1
 40 449 l 1,5,-1
 40 560 l 1,6,-1
 570 335 l 1,0,-1
EndSplineSet
EndChar

StartChar: lessequal
Encoding: 8804 8804 644
Width: 600
GlyphClass: 1
Flags: W
LayerCount: 2
Fore
SplineSet
30 350 m 1,0,-1
 30 460 l 1,1,-1
 560 653 l 1,2,-1
 560 542 l 1,3,-1
 153 405 l 1,4,-1
 560 268 l 1,5,-1
 560 157 l 1,6,-1
 30 350 l 1,0,-1
40 0 m 1,7,-1
 40 96 l 1,8,-1
 560 96 l 1,9,-1
 560 0 l 1,10,-1
 40 0 l 1,7,-1
EndSplineSet
EndChar

StartChar: greaterequal
Encoding: 8805 8805 645
Width: 600
GlyphClass: 1
Flags: W
LayerCount: 2
Fore
SplineSet
570 350 m 1,0,-1
 40 157 l 1,1,-1
 40 268 l 1,2,-1
 447 405 l 1,3,-1
 40 542 l 1,4,-1
 40 653 l 1,5,-1
 570 460 l 1,6,-1
 570 350 l 1,0,-1
560 0 m 1,7,-1
 40 0 l 1,8,-1
 40 96 l 1,9,-1
 560 96 l 1,10,-1
 560 0 l 1,7,-1
EndSplineSet
EndChar

StartChar: plusminus
Encoding: 177 177 646
Width: 600
GlyphClass: 1
Flags: W
LayerCount: 2
Fore
SplineSet
40 371 m 1,0,-1
 40 469 l 1,1,-1
 246 469 l 1,2,-1
 246 674 l 1,3,-1
 354 674 l 1,4,-1
 354 469 l 1,5,-1
 560 469 l 1,6,-1
 560 371 l 1,7,-1
 354 371 l 1,8,-1
 354 166 l 1,9,-1
 246 166 l 1,10,-1
 246 371 l 1,11,-1
 40 371 l 1,0,-1
40 0 m 1,12,-1
 40 98 l 1,13,-1
 560 98 l 1,14,-1
 560 0 l 1,15,-1
 40 0 l 1,12,-1
EndSplineSet
EndChar

StartChar: notequal
Encoding: 8800 8800 647
Width: 600
GlyphClass: 1
Flags: W
LayerCount: 2
Fore
SplineSet
40 370 m 1,0,-1
 40 476 l 1,1,-1
 560 476 l 1,2,-1
 560 370 l 1,3,-1
 40 370 l 1,0,-1
40 164 m 1,4,-1
 40 270 l 1,5,-1
 560 270 l 1,6,-1
 560 164 l 1,7,-1
 40 164 l 1,4,-1
142 0 m 1,8,-1
 357 640 l 1,9,-1
 458 640 l 1,10,-1
 243 0 l 1,11,-1
 142 0 l 1,8,-1
EndSplineSet
EndChar

StartChar: approxequal
Encoding: 8776 8776 648
Width: 600
GlyphClass: 1
Flags: W
LayerCount: 2
Fore
SplineSet
40 342 m 1,0,-1
 20 433 l 1,1,-1
 150 548 l 1,2,-1
 442 426 l 1,3,-1
 560 520 l 1,4,-1
 580 429 l 1,5,-1
 446 314 l 1,6,-1
 158 436 l 1,7,-1
 40 342 l 1,0,-1
40 136 m 1,8,-1
 20 227 l 1,9,-1
 154 342 l 1,10,-1
 442 220 l 1,11,-1
 560 314 l 1,12,-1
 580 223 l 1,13,-1
 450 108 l 1,14,-1
 158 230 l 1,15,-1
 40 136 l 1,8,-1
EndSplineSet
EndChar

StartChar: uni2215
Encoding: 8725 8725 649
Width: 600
GlyphClass: 1
Flags: W
LayerCount: 2
Fore
SplineSet
30 0 m 1,0,-1
 445 700 l 1,1,-1
 570 700 l 1,2,-1
 155 0 l 1,3,-1
 30 0 l 1,0,-1
EndSplineSet
EndChar

StartChar: uni2219
Encoding: 8729 8729 650
Width: 320
GlyphClass: 1
Flags: W
LayerCount: 2
Fore
SplineSet
104 269 m 1,0,-1
 104 387 l 1,1,-1
 216 387 l 1,2,-1
 216 269 l 1,3,-1
 104 269 l 1,0,-1
EndSplineSet
EndChar

StartChar: logicalnot
Encoding: 172 172 651
Width: 600
GlyphClass: 1
Flags: W
LayerCount: 2
Fore
SplineSet
40 264 m 1,0,-1
 40 376 l 1,1,-1
 560 376 l 1,2,-1
 560 94 l 1,3,-1
 448 94 l 1,4,-1
 448 264 l 1,5,-1
 40 264 l 1,0,-1
EndSplineSet
EndChar

StartChar: uni00B5
Encoding: 181 181 652
Width: 620
GlyphClass: 1
Flags: W
LayerCount: 2
Fore
SplineSet
564 560 m 1,0,-1
 564 0 l 1,1,-1
 172 0 l 1,2,-1
 172 -160 l 1,3,-1
 56 -160 l 1,4,-1
 56 560 l 1,5,-1
 172 560 l 1,6,-1
 172 102 l 1,7,-1
 448 102 l 1,8,-1
 448 560 l 1,9,-1
 564 560 l 1,0,-1
EndSplineSet
EndChar

StartChar: radical
Encoding: 8730 8730 653
Width: 720
GlyphClass: 1
Flags: W
LayerCount: 2
Fore
SplineSet
263 0 m 1,0,-1
 166 458 l 1,1,-1
 40 458 l 1,2,-1
 40 560 l 1,3,-1
 266 560 l 1,4,-1
 352 100 l 1,5,-1
 411 100 l 1,6,-1
 582 700 l 1,7,-1
 703 700 l 1,8,-1
 501 0 l 1,9,-1
 263 0 l 1,0,-1
EndSplineSet
EndChar

StartChar: infinity
Encoding: 8734 8734 654
Width: 856
GlyphClass: 1
Flags: W
LayerCount: 2
Fore
SplineSet
357 200 m 1,0,-1
 162 200 l 1,1,-1
 162 500 l 1,2,-1
 357 500 l 1,3,-1
 357 200 l 1,0,-1
694 182 m 1,4,-1
 467 182 l 1,5,-1
 467 521 l 1,6,-1
 694 521 l 1,7,-1
 694 182 l 1,4,-1
806 172 m 1,8,-1
 806 528 l 1,9,-1
 712 622 l 1,10,-1
 484 622 l 1,11,-1
 409 547 l 1,12,-1
 354 602 l 1,13,-1
 144 602 l 1,14,-1
 50 508 l 1,15,-1
 50 192 l 1,16,-1
 144 98 l 1,17,-1
 354 98 l 1,18,-1
 409 153 l 1,19,-1
 484 78 l 1,20,-1
 712 78 l 1,21,-1
 806 172 l 1,8,-1
EndSplineSet
EndChar

StartChar: integral
Encoding: 8747 8747 655
Width: 390
GlyphClass: 1
Flags: W
LayerCount: 2
Fore
SplineSet
0 -140 m 1,0,-1
 0 -38 l 1,1,-1
 194 -38 l 1,2,-1
 56 602 l 1,3,-1
 154 700 l 1,4,-1
 366 700 l 1,5,-1
 366 598 l 1,6,-1
 172 598 l 1,7,-1
 310 -42 l 1,8,-1
 212 -140 l 1,9,-1
 0 -140 l 1,0,-1
EndSplineSet
EndChar

StartChar: partialdiff
Encoding: 8706 8706 656
Width: 650
GlyphClass: 1
Flags: W
LayerCount: 2
Fore
SplineSet
503 0 m 1,0,-1
 147 0 l 1,1,-1
 55 92 l 1,2,-1
 55 371 l 1,3,-1
 126 442 l 1,4,-1
 479 442 l 1,5,-1
 479 598 l 1,6,-1
 94 598 l 1,7,-1
 94 700 l 1,8,-1
 503 700 l 1,9,-1
 595 608 l 1,10,-1
 595 92 l 1,11,-1
 503 0 l 1,0,-1
479 100 m 1,12,-1
 479 350 l 1,13,-1
 171 350 l 1,14,-1
 171 100 l 1,15,-1
 479 100 l 1,12,-1
EndSplineSet
EndChar

StartChar: lozenge
Encoding: 9674 9674 657
Width: 640
GlyphClass: 1
Flags: W
LayerCount: 2
Fore
SplineSet
306 -40 m 1,0,-1
 335 -40 l 1,1,-1
 520 320 l 1,2,-1
 334 680 l 1,3,-1
 305 680 l 1,4,-1
 120 320 l 1,5,-1
 306 -40 l 1,0,-1
247 -140 m 1,6,-1
 5 320 l 1,7,-1
 247 780 l 1,8,-1
 393 780 l 1,9,-1
 635 320 l 1,10,-1
 393 -140 l 1,11,-1
 247 -140 l 1,6,-1
EndSplineSet
EndChar

StartChar: product
Encoding: 8719 8719 658
Width: 654
GlyphClass: 2
Flags: W
AnchorPoint: "Anchor-2" 327 700 basechar 0
AnchorPoint: "Anchor-0" 327 0 basechar 0
LayerCount: 2
Fore
SplineSet
56 -140 m 1,0,-1
 56 700 l 1,1,-1
 598 700 l 1,2,-1
 598 -140 l 1,3,-1
 482 -140 l 1,4,-1
 482 598 l 1,5,-1
 172 598 l 1,6,-1
 172 -140 l 1,7,-1
 56 -140 l 1,0,-1
EndSplineSet
EndChar

StartChar: summation
Encoding: 8721 8721 659
Width: 581
GlyphClass: 1
Flags: W
LayerCount: 2
Fore
SplineSet
44 -140 m 1,0,-1
 44 -52 l 1,1,-1
 282 281 l 1,2,-1
 49 612 l 1,3,-1
 49 700 l 1,4,-1
 532 700 l 1,5,-1
 532 600 l 1,6,-1
 193 600 l 1,7,-1
 412 281 l 1,8,-1
 185 -40 l 1,9,-1
 537 -40 l 1,10,-1
 537 -140 l 1,11,-1
 44 -140 l 1,0,-1
EndSplineSet
EndChar

StartChar: currency
Encoding: 164 164 661
Width: 638
GlyphClass: 1
Flags: W
LayerCount: 2
Fore
SplineSet
117 246 m 1,0,-1
 117 454 l 1,1,-1
 170 507 l 1,2,-1
 35 700 l 1,3,-1
 165 700 l 1,4,-1
 265 540 l 1,5,-1
 373 540 l 1,6,-1
 473 700 l 1,7,-1
 603 700 l 1,8,-1
 468 507 l 1,9,-1
 521 454 l 1,10,-1
 521 246 l 1,11,-1
 468 193 l 1,12,-1
 603 0 l 1,13,-1
 473 0 l 1,14,-1
 373 160 l 1,15,-1
 265 160 l 1,16,-1
 165 0 l 1,17,-1
 35 0 l 1,18,-1
 170 193 l 1,19,-1
 117 246 l 1,0,-1
229 244 m 1,20,-1
 409 244 l 1,21,-1
 409 456 l 1,22,-1
 229 456 l 1,23,-1
 229 244 l 1,20,-1
EndSplineSet
EndChar

StartChar: dollar
Encoding: 36 36 662
Width: 660
GlyphClass: 1
Flags: W
LayerCount: 2
Fore
SplineSet
61 46 m 1,0,-1
 61 144 l 1,1,-1
 489 144 l 1,2,-1
 489 306 l 1,3,-1
 55 313 l 1,4,-1
 55 554 l 1,5,-1
 155 654 l 1,6,-1
 291 654 l 1,7,-1
 291 760 l 1,8,-1
 405 760 l 1,9,-1
 405 654 l 1,10,-1
 587 654 l 1,11,-1
 587 556 l 1,12,-1
 171 556 l 1,13,-1
 171 404 l 1,14,-1
 605 397 l 1,15,-1
 605 144 l 1,16,-1
 507 46 l 1,17,-1
 377 46 l 1,18,-1
 377 -60 l 1,19,-1
 263 -60 l 1,20,-1
 263 46 l 1,21,-1
 61 46 l 1,0,-1
EndSplineSet
EndChar

StartChar: cent
Encoding: 162 162 663
Width: 540
GlyphClass: 1
Flags: W
LayerCount: 2
Fore
SplineSet
50 168 m 1,0,-1
 50 532 l 1,1,-1
 148 630 l 1,2,-1
 259 630 l 1,3,-1
 259 740 l 1,4,-1
 359 740 l 1,5,-1
 359 630 l 1,6,-1
 512 630 l 1,7,-1
 512 526 l 1,8,-1
 166 526 l 1,9,-1
 166 174 l 1,10,-1
 512 174 l 1,11,-1
 512 70 l 1,12,-1
 359 70 l 1,13,-1
 359 -40 l 1,14,-1
 259 -40 l 1,15,-1
 259 70 l 1,16,-1
 148 70 l 1,17,-1
 50 168 l 1,0,-1
EndSplineSet
EndChar

StartChar: sterling
Encoding: 163 163 664
Width: 648
GlyphClass: 1
Flags: W
LayerCount: 2
Fore
SplineSet
468 290 m 1,0,-1
 290 290 l 1,1,-1
 290 100 l 1,2,-1
 620 100 l 1,3,-1
 620 0 l 1,4,-1
 30 0 l 1,5,-1
 30 100 l 1,6,-1
 174 100 l 1,7,-1
 174 290 l 1,8,-1
 70 290 l 1,9,-1
 70 388 l 1,10,-1
 174 388 l 1,11,-1
 174 620 l 1,12,-1
 254 700 l 1,13,-1
 590 700 l 1,14,-1
 590 494 l 1,15,-1
 490 494 l 1,16,-1
 490 602 l 1,17,-1
 290 602 l 1,18,-1
 290 388 l 1,19,-1
 468 388 l 1,20,-1
 468 290 l 1,0,-1
EndSplineSet
EndChar

StartChar: Euro
Encoding: 8364 8364 665
Width: 642
GlyphClass: 1
Flags: W
LayerCount: 2
Fore
SplineSet
105 94 m 1,0,-1
 105 239 l 1,1,-1
 18 239 l 1,2,-1
 18 319 l 1,3,-1
 105 319 l 1,4,-1
 105 391 l 1,5,-1
 18 391 l 1,6,-1
 18 471 l 1,7,-1
 105 471 l 1,8,-1
 105 606 l 1,9,-1
 199 700 l 1,10,-1
 603 700 l 1,11,-1
 603 600 l 1,12,-1
 225 600 l 1,13,-1
 225 471 l 1,14,-1
 542 471 l 1,15,-1
 512 391 l 1,16,-1
 225 391 l 1,17,-1
 225 319 l 1,18,-1
 486 319 l 1,19,-1
 456 239 l 1,20,-1
 225 239 l 1,21,-1
 225 100 l 1,22,-1
 613 100 l 1,23,-1
 613 0 l 1,24,-1
 199 0 l 1,25,-1
 105 94 l 1,0,-1
EndSplineSet
EndChar

StartChar: yen
Encoding: 165 165 666
Width: 640
GlyphClass: 1
Flags: W
LayerCount: 2
Fore
SplineSet
262 0 m 1,0,-1
 262 108 l 1,1,-1
 38 108 l 1,2,-1
 38 194 l 1,3,-1
 262 194 l 1,4,-1
 262 262 l 1,5,-1
 38 262 l 1,6,-1
 38 348 l 1,7,-1
 162 348 l 1,8,-1
 21 700 l 1,9,-1
 144 700 l 1,10,-1
 277 348 l 1,11,-1
 363 348 l 1,12,-1
 496 700 l 1,13,-1
 619 700 l 1,14,-1
 478 348 l 1,15,-1
 602 348 l 1,16,-1
 602 262 l 1,17,-1
 378 262 l 1,18,-1
 378 194 l 1,19,-1
 602 194 l 1,20,-1
 602 108 l 1,21,-1
 378 108 l 1,22,-1
 378 0 l 1,23,-1
 262 0 l 1,0,-1
EndSplineSet
EndChar

StartChar: franc
Encoding: 8355 8355 667
Width: 566
GlyphClass: 1
Flags: W
LayerCount: 2
Fore
SplineSet
56 0 m 1,0,-1
 56 700 l 1,1,-1
 536 700 l 1,2,-1
 536 596 l 1,3,-1
 172 596 l 1,4,-1
 172 376 l 1,5,-1
 516 376 l 1,6,-1
 516 274 l 1,7,-1
 172 274 l 1,8,-1
 172 0 l 1,9,-1
 56 0 l 1,0,-1
10 118 m 1,10,-1
 10 194 l 1,11,-1
 390 194 l 1,12,-1
 390 118 l 1,13,-1
 10 118 l 1,10,-1
EndSplineSet
EndChar

StartChar: uni20BD
Encoding: 8381 8381 668
Width: 640
GlyphClass: 1
Flags: W
LayerCount: 2
Fore
SplineSet
604 606 m 1,0,-1
 604 309 l 1,1,-1
 510 215 l 1,2,-1
 208 215 l 1,3,-1
 208 156 l 1,4,-1
 454 156 l 1,5,-1
 454 80 l 1,6,-1
 208 80 l 1,7,-1
 208 0 l 1,8,-1
 92 0 l 1,9,-1
 92 80 l 1,10,-1
 10 80 l 1,11,-1
 10 156 l 1,12,-1
 92 156 l 1,13,-1
 92 215 l 1,14,-1
 10 215 l 1,15,-1
 10 308 l 1,16,-1
 92 308 l 1,17,-1
 92 700 l 1,18,-1
 510 700 l 1,19,-1
 604 606 l 1,0,-1
208 308 m 1,20,-1
 488 308 l 1,21,-1
 488 602 l 1,22,-1
 208 602 l 1,23,-1
 208 308 l 1,20,-1
EndSplineSet
EndChar

StartChar: uni20BF
Encoding: 8383 8383 669
Width: 642
GlyphClass: 1
Flags: W
LayerCount: 2
Fore
SplineSet
56 46 m 1,0,-1
 56 654 l 1,1,-1
 184 654 l 1,2,-1
 184 760 l 1,3,-1
 268 760 l 1,4,-1
 268 654 l 1,5,-1
 346 654 l 1,6,-1
 346 760 l 1,7,-1
 430 760 l 1,8,-1
 430 654 l 1,9,-1
 500 654 l 1,10,-1
 586 568 l 1,11,-1
 586 419 l 1,12,-1
 535 374 l 1,13,-1
 606 312 l 1,14,-1
 606 132 l 1,15,-1
 520 46 l 1,16,-1
 430 46 l 1,17,-1
 430 -60 l 1,18,-1
 346 -60 l 1,19,-1
 346 46 l 1,20,-1
 268 46 l 1,21,-1
 268 -60 l 1,22,-1
 184 -60 l 1,23,-1
 184 46 l 1,24,-1
 56 46 l 1,0,-1
172 409 m 1,25,-1
 469 409 l 1,26,-1
 469 559 l 1,27,-1
 172 559 l 1,28,-1
 172 409 l 1,25,-1
172 141 m 1,29,-1
 488 141 l 1,30,-1
 488 317 l 1,31,-1
 172 317 l 1,32,-1
 172 141 l 1,29,-1
EndSplineSet
EndChar

StartChar: uni20AE
Encoding: 8366 8366 670
Width: 560
GlyphClass: 2
Flags: W
AnchorPoint: "Anchor-2" 280 700 basechar 0
AnchorPoint: "Anchor-0" 280 0 basechar 0
LayerCount: 2
Fore
SplineSet
222 0 m 1,0,-1
 222 600 l 1,1,-1
 20 600 l 1,2,-1
 20 700 l 1,3,-1
 540 700 l 1,4,-1
 540 600 l 1,5,-1
 338 600 l 1,6,-1
 338 0 l 1,7,-1
 222 0 l 1,0,-1
76 311 m 1,8,-1
 76 398 l 1,9,-1
 484 484 l 1,10,-1
 484 397 l 1,11,-1
 76 311 l 1,8,-1
76 131 m 1,12,-1
 76 218 l 1,13,-1
 484 304 l 1,14,-1
 484 217 l 1,15,-1
 76 131 l 1,12,-1
EndSplineSet
EndChar

StartChar: uni20B4
Encoding: 8372 8372 671
Width: 640
GlyphClass: 2
Flags: W
AnchorPoint: "Anchor-2" 304 700 basechar 0
AnchorPoint: "Anchor-0" 336 0 basechar 0
LayerCount: 2
Fore
SplineSet
575 102 m 1,0,-1
 575 0 l 1,1,-1
 157 0 l 1,2,-1
 55 102 l 1,3,-1
 465 598 l 1,4,-1
 65 598 l 1,5,-1
 65 700 l 1,6,-1
 483 700 l 1,7,-1
 585 598 l 1,8,-1
 175 102 l 1,9,-1
 575 102 l 1,0,-1
54 458 m 1,10,-1
 586 458 l 1,11,-1
 586 384 l 1,12,-1
 54 384 l 1,13,-1
 54 458 l 1,10,-1
54 316 m 1,14,-1
 586 316 l 1,15,-1
 586 242 l 1,16,-1
 54 242 l 1,17,-1
 54 316 l 1,14,-1
EndSplineSet
EndChar

StartChar: uni20B8
Encoding: 8376 8376 672
Width: 560
GlyphClass: 2
Flags: W
AnchorPoint: "Anchor-2" 280 734 basechar 0
AnchorPoint: "Anchor-0" 280 0 basechar 0
LayerCount: 2
Fore
SplineSet
222 0 m 1,0,-1
 222 434 l 1,1,-1
 20 434 l 1,2,-1
 20 526 l 1,3,-1
 540 526 l 1,4,-1
 540 434 l 1,5,-1
 338 434 l 1,6,-1
 338 0 l 1,7,-1
 222 0 l 1,0,-1
20 608 m 1,8,-1
 20 700 l 1,9,-1
 540 700 l 1,10,-1
 540 608 l 1,11,-1
 20 608 l 1,8,-1
EndSplineSet
EndChar

StartChar: uni058F
Encoding: 1423 1423 673
Width: 620
GlyphClass: 2
Flags: W
AnchorPoint: "Anchor-2" 310 700 basechar 0
AnchorPoint: "Anchor-0" 312 0 basechar 0
LayerCount: 2
Fore
SplineSet
565 0 m 1,0,-1
 565 606 l 1,1,-1
 471 700 l 1,2,-1
 149 700 l 1,3,-1
 55 606 l 1,4,-1
 55 412 l 1,5,-1
 171 412 l 1,6,-1
 171 596 l 1,7,-1
 449 596 l 1,8,-1
 449 348 l 1,9,-1
 125 348 l 1,10,-1
 125 260 l 1,11,-1
 449 260 l 1,12,-1
 449 194 l 1,13,-1
 125 194 l 1,14,-1
 125 106 l 1,15,-1
 449 106 l 1,16,-1
 449 0 l 1,17,-1
 565 0 l 1,0,-1
EndSplineSet
EndChar

StartChar: tilde
Encoding: 732 732 678
Width: 500
GlyphClass: 1
Flags: W
LayerCount: 2
Fore
SplineSet
60 610 m 1,0,-1
 40 685 l 1,1,-1
 140 753 l 1,2,-1
 344 697 l 1,3,-1
 440 750 l 1,4,-1
 460 675 l 1,5,-1
 360 607 l 1,6,-1
 156 663 l 1,7,-1
 60 610 l 1,0,-1
EndSplineSet
EndChar

StartChar: dieresis
Encoding: 168 168 679
Width: 420
GlyphClass: 1
Flags: W
LayerCount: 2
Fore
SplineSet
40 624 m 1,0,-1
 40 714 l 1,1,-1
 152 714 l 1,2,-1
 152 624 l 1,3,-1
 40 624 l 1,0,-1
268 624 m 1,4,-1
 268 714 l 1,5,-1
 380 714 l 1,6,-1
 380 624 l 1,7,-1
 268 624 l 1,4,-1
EndSplineSet
EndChar

StartChar: dotaccent
Encoding: 729 729 680
Width: 196
GlyphClass: 1
Flags: W
LayerCount: 2
Fore
SplineSet
40 624 m 1,0,-1
 40 714 l 1,1,-1
 156 714 l 1,2,-1
 156 624 l 1,3,-1
 40 624 l 1,0,-1
EndSplineSet
EndChar

StartChar: ring
Encoding: 730 730 681
Width: 354
GlyphClass: 1
Flags: W
LayerCount: 2
Fore
SplineSet
40 641 m 1,0,-1
 40 739 l 1,1,-1
 104 792 l 1,2,-1
 250 792 l 1,3,-1
 314 739 l 1,4,-1
 314 641 l 1,5,-1
 250 588 l 1,6,-1
 104 588 l 1,7,-1
 40 641 l 1,0,-1
113 655 m 1,8,-1
 241 655 l 1,9,-1
 241 725 l 1,10,-1
 113 725 l 1,11,-1
 113 655 l 1,8,-1
EndSplineSet
EndChar

StartChar: macron
Encoding: 175 175 682
Width: 420
GlyphClass: 1
Flags: W
LayerCount: 2
Fore
SplineSet
40 643 m 1,0,-1
 40 730 l 1,1,-1
 380 730 l 1,2,-1
 380 643 l 1,3,-1
 40 643 l 1,0,-1
EndSplineSet
EndChar

StartChar: hungarumlaut
Encoding: 733 733 683
Width: 401
GlyphClass: 1
Flags: W
LayerCount: 2
Fore
SplineSet
40 606 m 1,0,-1
 80 730 l 1,1,-1
 192 730 l 1,2,-1
 124 606 l 1,3,-1
 40 606 l 1,0,-1
189 606 m 1,4,-1
 249 730 l 1,5,-1
 361 730 l 1,6,-1
 277 606 l 1,7,-1
 189 606 l 1,4,-1
EndSplineSet
EndChar

StartChar: cedilla
Encoding: 184 184 684
Width: 242
GlyphClass: 1
Flags: W
LayerCount: 2
Fore
SplineSet
40 -200 m 1,0,-1
 86 -58 l 1,1,-1
 202 -58 l 1,2,-1
 128 -200 l 1,3,-1
 40 -200 l 1,0,-1
EndSplineSet
EndChar

StartChar: ogonek
Encoding: 731 731 685
Width: 236
GlyphClass: 1
Flags: W
LayerCount: 2
Fore
SplineSet
196 -56 m 1,0,-1
 156 -200 l 1,1,-1
 40 -200 l 1,2,-1
 107 -56 l 1,3,-1
 196 -56 l 1,0,-1
EndSplineSet
EndChar

StartChar: gravecomb
Encoding: 768 768 690
Width: 0
GlyphClass: 4
Flags: W
AnchorPoint: "Anchor-3" 0 560 mark 0
AnchorPoint: "Anchor-2" 0 560 mark 0
LayerCount: 2
Fore
SplineSet
130 612 m 1,0,-1
 -180 652 l 1,1,-1
 -180 746 l 1,2,-1
 130 680 l 1,3,-1
 130 612 l 1,0,-1
EndSplineSet
Substitution2: "+U1h9FH9uY9sA lookup 1 +MLUw1jDGMPww1jDr" gravecomb.i
EndChar

StartChar: acutecomb
Encoding: 769 769 691
Width: 0
GlyphClass: 4
Flags: W
AnchorPoint: "Anchor-3" 0 560 mark 0
AnchorPoint: "Anchor-2" 0 560 mark 0
LayerCount: 2
Fore
SplineSet
-130 612 m 1,0,-1
 -130 680 l 1,1,-1
 180 746 l 5,2,-1
 180 652 l 5,3,-1
 -130 612 l 1,0,-1
EndSplineSet
Substitution2: "+U1h9FH9uY9sA lookup 1 +MLUw1jDGMPww1jDr" acutecomb.i
EndChar

StartChar: uni0302
Encoding: 770 770 692
Width: 0
GlyphClass: 4
Flags: W
AnchorPoint: "Anchor-3" 0 750 basemark 0
AnchorPoint: "Anchor-3" 0 560 mark 0
AnchorPoint: "Anchor-2" 0 560 mark 0
LayerCount: 2
Fore
SplineSet
-190 610 m 1,0,-1
 -190 698 l 1,1,-1
 0 766 l 1,2,-1
 190 698 l 1,3,-1
 190 610 l 1,4,-1
 0 678 l 1,5,-1
 -190 610 l 1,0,-1
EndSplineSet
EndChar

StartChar: uni030C
Encoding: 780 780 693
Width: 0
GlyphClass: 4
Flags: W
AnchorPoint: "Anchor-3" 0 560 mark 0
AnchorPoint: "Anchor-2" 0 560 mark 0
LayerCount: 2
Fore
SplineSet
190 766 m 1,0,-1
 190 678 l 1,1,-1
 0 610 l 1,2,-1
 -190 678 l 1,3,-1
 -190 766 l 1,4,-1
 0 698 l 1,5,-1
 190 766 l 1,0,-1
EndSplineSet
EndChar

StartChar: uni0311
Encoding: 785 785 694
Width: 0
GlyphClass: 4
Flags: W
AnchorPoint: "Anchor-3" 0 560 mark 0
AnchorPoint: "Anchor-2" 0 560 mark 0
LayerCount: 2
Fore
SplineSet
-96 613 m 1,0,-1
 -204 613 l 1,1,-1
 -128 739 l 1,2,-1
 128 739 l 1,3,-1
 204 613 l 1,4,-1
 96 613 l 1,5,-1
 70 669 l 1,6,-1
 -70 669 l 1,7,-1
 -96 613 l 1,0,-1
EndSplineSet
EndChar

StartChar: uni0306
Encoding: 774 774 695
Width: 0
GlyphClass: 4
Flags: W
AnchorPoint: "Anchor-3" 0 560 mark 0
AnchorPoint: "Anchor-2" 0 560 mark 0
LayerCount: 2
Fore
SplineSet
96 748 m 1,0,-1
 204 748 l 1,1,-1
 128 622 l 1,2,-1
 -128 622 l 1,3,-1
 -204 748 l 1,4,-1
 -96 748 l 1,5,-1
 -70 692 l 1,6,-1
 70 692 l 1,7,-1
 96 748 l 1,0,-1
EndSplineSet
EndChar

StartChar: uni030F
Encoding: 783 783 701
Width: 0
GlyphClass: 4
Flags: W
AnchorPoint: "Anchor-3" 0 560 mark 0
AnchorPoint: "Anchor-2" 0 560 mark 0
LayerCount: 2
Fore
SplineSet
87 730 m 1,0,-1
 127 606 l 1,1,-1
 43 606 l 1,2,-1
 -25 730 l 1,3,-1
 87 730 l 1,0,-1
-82 730 m 1,4,-1
 -22 606 l 1,5,-1
 -110 606 l 1,6,-1
 -194 730 l 1,7,-1
 -82 730 l 1,4,-1
EndSplineSet
EndChar

StartChar: uni0312
Encoding: 786 786 703
Width: 0
GlyphClass: 4
Flags: W
AnchorPoint: "Anchor-3" 0 560 mark 0
AnchorPoint: "Anchor-2" 0 560 mark 0
LayerCount: 2
Fore
SplineSet
87 758 m 1,0,-1
 41 616 l 1,1,-1
 -75 616 l 1,2,-1
 -2 758 l 1,3,-1
 87 758 l 1,0,-1
EndSplineSet
EndChar

StartChar: hookabovecomb
Encoding: 777 777 704
Width: 0
GlyphClass: 4
Flags: W
AnchorPoint: "Anchor-3" 0 560 mark 0
AnchorPoint: "Anchor-2" 0 560 mark 0
LayerCount: 2
Fore
SplineSet
-92 668 m 1,0,-1
 -92 730 l 1,1,-1
 108 730 l 1,2,-1
 108 668 l 1,3,-1
 38 590 l 1,4,-1
 -52 590 l 1,5,-1
 18 668 l 1,6,-1
 -92 668 l 1,0,-1
EndSplineSet
EndChar

StartChar: uni031B
Encoding: 795 795 705
Width: 0
GlyphClass: 1
Flags: W
LayerCount: 2
Fore
SplineSet
-74 700 m 1,0,-1
 -74 780 l 1,1,-1
 28 780 l 1,2,-1
 28 688 l 1,3,-1
 -56 604 l 1,4,-1
 -155 604 l 1,5,-1
 -155 700 l 1,6,-1
 -74 700 l 1,0,-1
EndSplineSet
EndChar

StartChar: uni0315
Encoding: 789 789 706
Width: 58
GlyphClass: 1
Flags: W
LayerCount: 2
Fore
SplineSet
0 476 m 1,0,-1
 0 700 l 1,1,-1
 58 700 l 1,2,-1
 58 476 l 1,3,-1
 0 476 l 1,0,-1
EndSplineSet
EndChar

StartChar: uni0326
Encoding: 806 806 707
Width: 0
GlyphClass: 4
Flags: W
AnchorPoint: "Anchor-0" 0 0 mark 0
LayerCount: 2
Fore
SplineSet
-91 -200 m 1,0,-1
 -45 -58 l 1,1,-1
 71 -58 l 1,2,-1
 -2 -200 l 1,3,-1
 -91 -200 l 1,0,-1
EndSplineSet
EndChar

StartChar: dotbelowcomb
Encoding: 803 803 710
Width: 0
GlyphClass: 4
Flags: W
AnchorPoint: "Anchor-0" 0 0 mark 0
LayerCount: 2
Fore
SplineSet
-58 -166 m 1,0,-1
 -58 -76 l 1,1,-1
 58 -76 l 1,2,-1
 58 -166 l 1,3,-1
 -58 -166 l 1,0,-1
EndSplineSet
EndChar

StartChar: uni0329
Encoding: 809 809 711
Width: 0
GlyphClass: 4
Flags: W
AnchorPoint: "Anchor-0" 0 0 mark 0
LayerCount: 2
Fore
SplineSet
-52 -220 m 1,0,-1
 -52 -70 l 1,1,-1
 52 -70 l 1,2,-1
 52 -220 l 1,3,-1
 -52 -220 l 1,0,-1
EndSplineSet
EndChar

StartChar: uni0331
Encoding: 817 817 712
Width: 0
GlyphClass: 4
Flags: W
AnchorPoint: "Anchor-0" 0 0 mark 0
LayerCount: 2
Fore
SplineSet
-170 -170 m 1,0,-1
 -170 -83 l 1,1,-1
 170 -83 l 1,2,-1
 170 -170 l 1,3,-1
 -170 -170 l 1,0,-1
EndSplineSet
EndChar

StartChar: gravecomb.i
Encoding: 65565 -1 713
Width: 0
GlyphClass: 4
Flags: W
AnchorPoint: "Anchor-3" 0 560 mark 0
AnchorPoint: "Anchor-2" 0 560 mark 0
LayerCount: 2
Fore
SplineSet
70 586 m 1,0,-1
 -108 652 l 1,1,-1
 -108 746 l 1,2,-1
 70 656 l 1,3,-1
 70 586 l 1,0,-1
EndSplineSet
EndChar

StartChar: acutecomb.i
Encoding: 65566 -1 714
Width: 0
GlyphClass: 4
Flags: W
AnchorPoint: "Anchor-3" 0 560 mark 0
AnchorPoint: "Anchor-2" 0 560 mark 0
LayerCount: 2
Fore
SplineSet
-70 586 m 1,0,-1
 -70 656 l 1,1,-1
 108 746 l 1,2,-1
 108 652 l 1,3,-1
 -70 586 l 1,0,-1
EndSplineSet
EndChar

StartChar: uni0308.i
Encoding: 65567 -1 715
Width: 0
GlyphClass: 1
Flags: W
LayerCount: 2
Fore
SplineSet
-132 624 m 1,0,-1
 -132 714 l 1,1,-1
 -32 714 l 1,2,-1
 -32 624 l 1,3,-1
 -132 624 l 1,0,-1
32 624 m 1,4,-1
 32 714 l 1,5,-1
 132 714 l 1,6,-1
 132 624 l 1,7,-1
 32 624 l 1,4,-1
EndSplineSet
EndChar

StartChar: periodcentered.loclCAT
Encoding: 65568 -1 716
Width: 80
GlyphClass: 1
Flags: W
LayerCount: 2
Fore
SplineSet
-4 300 m 1,0,-1
 -4 412 l 1,1,-1
 84 412 l 1,2,-1
 84 300 l 1,3,-1
 -4 300 l 1,0,-1
EndSplineSet
EndChar

StartChar: periodcentered.loclCAT.cap
Encoding: 65569 -1 717
Width: 0
GlyphClass: 1
Flags: W
LayerCount: 2
Fore
SplineSet
-240 390 m 1,0,-1
 -240 502 l 1,1,-1
 -130 502 l 1,2,-1
 -130 390 l 1,3,-1
 -240 390 l 1,0,-1
EndSplineSet
EndChar

StartChar: uni0302_acutecomb
Encoding: 65570 -1 718
Width: 0
GlyphClass: 1
Flags: W
LayerCount: 2
Fore
SplineSet
34 765 m 1,0,-1
 34 816 l 1,1,-1
 196 860 l 1,2,-1
 196 782 l 1,3,-1
 34 765 l 1,0,-1
-190 601 m 1,4,-1
 -190 689 l 1,5,-1
 0 756 l 1,6,-1
 190 689 l 1,7,-1
 190 601 l 1,8,-1
 0 668 l 1,9,-1
 -190 601 l 1,4,-1
EndSplineSet
EndChar

StartChar: uni0302_gravecomb
Encoding: 65571 -1 719
Width: 0
GlyphClass: 1
Flags: W
LayerCount: 2
Fore
SplineSet
194 754 m 1,0,-1
 32 784 l 1,1,-1
 32 860 l 1,2,-1
 194 808 l 1,3,-1
 194 754 l 1,0,-1
-190 601 m 1,4,-1
 -190 689 l 1,5,-1
 0 757 l 1,6,-1
 190 689 l 1,7,-1
 190 601 l 1,8,-1
 0 669 l 1,9,-1
 -190 601 l 1,4,-1
EndSplineSet
EndChar

StartChar: uni0302_hookabovecomb
Encoding: 65572 -1 720
Width: 0
GlyphClass: 1
Flags: W
LayerCount: 2
Fore
SplineSet
-190 601 m 1,0,-1
 -190 689 l 1,1,-1
 0 757 l 1,2,-1
 190 689 l 1,3,-1
 190 601 l 1,4,-1
 0 669 l 1,5,-1
 -190 601 l 1,0,-1
86 803 m 1,6,-1
 86 860 l 1,7,-1
 195 860 l 1,8,-1
 239 810 l 1,9,-1
 176 734 l 1,10,-1
 115 756 l 1,11,-1
 158 803 l 1,12,-1
 86 803 l 1,6,-1
EndSplineSet
EndChar

StartChar: uni0302_tildecomb
Encoding: 65573 -1 721
Width: 0
GlyphClass: 1
Flags: W
LayerCount: 2
Fore
SplineSet
-190 595 m 1,0,-1
 -190 677 l 1,1,-1
 0 736 l 1,2,-1
 190 677 l 1,3,-1
 190 595 l 1,4,-1
 0 650 l 1,5,-1
 -190 595 l 1,0,-1
-154 749 m 1,6,-1
 -174 804 l 1,7,-1
 -72 860 l 1,8,-1
 66 821 l 1,9,-1
 154 860 l 1,10,-1
 174 805 l 1,11,-1
 72 749 l 1,12,-1
 -66 788 l 1,13,-1
 -154 749 l 1,6,-1
EndSplineSet
EndChar

StartChar: uni0306_acutecomb
Encoding: 65574 -1 722
Width: 0
GlyphClass: 1
Flags: W
LayerCount: 2
Fore
SplineSet
-28 764 m 1,0,-1
 -28 816 l 1,1,-1
 134 860 l 1,2,-1
 134 782 l 1,3,-1
 -28 764 l 1,0,-1
99 748 m 1,4,-1
 204 748 l 1,5,-1
 128 622 l 1,6,-1
 -128 622 l 1,7,-1
 -204 748 l 1,8,-1
 -99 748 l 1,9,-1
 -72 692 l 1,10,-1
 72 692 l 1,11,-1
 99 748 l 1,4,-1
EndSplineSet
EndChar

StartChar: uni0306_gravecomb
Encoding: 65575 -1 723
Width: 0
GlyphClass: 1
Flags: W
LayerCount: 2
Fore
SplineSet
28 754 m 1,0,-1
 -134 784 l 1,1,-1
 -134 860 l 1,2,-1
 28 808 l 1,3,-1
 28 754 l 1,0,-1
99 748 m 1,4,-1
 204 748 l 1,5,-1
 128 622 l 1,6,-1
 -128 622 l 1,7,-1
 -204 748 l 1,8,-1
 -99 748 l 1,9,-1
 -72 692 l 1,10,-1
 72 692 l 1,11,-1
 99 748 l 1,4,-1
EndSplineSet
EndChar

StartChar: uni0306_hookabovecomb
Encoding: 65576 -1 724
Width: 0
GlyphClass: 1
Flags: W
LayerCount: 2
Fore
SplineSet
-58 803 m 1,0,-1
 -58 860 l 1,1,-1
 51 860 l 1,2,-1
 95 810 l 1,3,-1
 32 734 l 1,4,-1
 -29 756 l 1,5,-1
 14 803 l 1,6,-1
 -58 803 l 1,0,-1
99 748 m 1,7,-1
 204 748 l 1,8,-1
 128 622 l 1,9,-1
 -128 622 l 1,10,-1
 -204 748 l 1,11,-1
 -99 748 l 1,12,-1
 -72 692 l 1,13,-1
 72 692 l 1,14,-1
 99 748 l 1,7,-1
EndSplineSet
EndChar

StartChar: uni0306_tildecomb
Encoding: 65577 -1 725
Width: 0
GlyphClass: 1
Flags: W
LayerCount: 2
Fore
SplineSet
-138 755 m 1,0,-1
 -158 810 l 1,1,-1
 -72 860 l 1,2,-1
 66 821 l 1,3,-1
 138 860 l 1,4,-1
 158 805 l 1,5,-1
 72 749 l 1,6,-1
 -66 788 l 1,7,-1
 -138 755 l 1,0,-1
104 735 m 1,8,-1
 208 735 l 1,9,-1
 132 618 l 1,10,-1
 -132 618 l 1,11,-1
 -208 735 l 1,12,-1
 -104 735 l 1,13,-1
 -78 688 l 1,14,-1
 78 688 l 1,15,-1
 104 735 l 1,8,-1
EndSplineSet
EndChar

StartChar: uni030C.stack
Encoding: 65578 -1 726
Width: 0
GlyphClass: 1
Flags: W
LayerCount: 2
Fore
SplineSet
190 730 m 1,0,-1
 190 652 l 1,1,-1
 0 584 l 1,2,-1
 -190 652 l 1,3,-1
 -190 730 l 1,4,-1
 0 662 l 1,5,-1
 190 730 l 1,0,-1
EndSplineSet
EndChar

StartChar: uni0308.stack
Encoding: 65579 -1 727
Width: 0
GlyphClass: 1
Flags: W
LayerCount: 2
Fore
SplineSet
-170 608 m 1,0,-1
 -170 690 l 1,1,-1
 -58 690 l 1,2,-1
 -58 608 l 1,3,-1
 -170 608 l 1,0,-1
58 608 m 1,4,-1
 58 690 l 1,5,-1
 170 690 l 1,6,-1
 170 608 l 1,7,-1
 58 608 l 1,4,-1
EndSplineSet
EndChar

StartChar: uni0304.stack
Encoding: 65580 -1 728
Width: 0
GlyphClass: 1
Flags: W
LayerCount: 2
Fore
SplineSet
-170 603 m 1,0,-1
 -170 664 l 1,1,-1
 170 664 l 1,2,-1
 170 603 l 1,3,-1
 -170 603 l 1,0,-1
EndSplineSet
EndChar

StartChar: uni030A_acutecomb
Encoding: 65581 -1 729
Width: 0
GlyphClass: 1
Flags: W
LayerCount: 2
Fore
SplineSet
-137 641 m 1,0,-1
 -137 739 l 1,1,-1
 -73 792 l 1,2,-1
 73 792 l 1,3,-1
 137 739 l 1,4,-1
 137 641 l 1,5,-1
 73 588 l 1,6,-1
 -73 588 l 1,7,-1
 -137 641 l 1,0,-1
-64 655 m 1,8,-1
 64 655 l 1,9,-1
 64 725 l 1,10,-1
 -64 725 l 1,11,-1
 -64 655 l 1,8,-1
159 748 m 1,12,-1
 124 774 l 1,13,-1
 146 840 l 1,14,-1
 243 840 l 1,15,-1
 159 748 l 1,12,-1
EndSplineSet
EndChar

StartChar: arrowleft
Encoding: 8592 8592 730
Width: 1050
GlyphClass: 1
Flags: W
LayerCount: 2
Fore
SplineSet
125 267 m 1,0,-1
 125 293 l 1,1,-1
 389 560 l 1,2,-1
 531 560 l 1,3,-1
 291 331 l 1,4,-1
 925 331 l 1,5,-1
 925 229 l 1,6,-1
 291 229 l 1,7,-1
 531 0 l 1,8,-1
 389 0 l 1,9,-1
 125 267 l 1,0,-1
EndSplineSet
EndChar

StartChar: arrowup
Encoding: 8593 8593 731
Width: 750
GlyphClass: 1
Flags: W
LayerCount: 2
Fore
SplineSet
362 750 m 1,0,-1
 388 750 l 1,1,-1
 655 486 l 1,2,-1
 655 344 l 1,3,-1
 426 584 l 1,4,-1
 426 -50 l 1,5,-1
 324 -50 l 1,6,-1
 324 584 l 1,7,-1
 95 344 l 1,8,-1
 95 486 l 1,9,-1
 362 750 l 1,0,-1
EndSplineSet
EndChar

StartChar: arrowright
Encoding: 8594 8594 732
Width: 1050
GlyphClass: 1
Flags: W
LayerCount: 2
Fore
SplineSet
925 293 m 1,0,-1
 925 267 l 1,1,-1
 661 0 l 1,2,-1
 519 0 l 1,3,-1
 759 229 l 1,4,-1
 125 229 l 1,5,-1
 125 331 l 1,6,-1
 759 331 l 1,7,-1
 519 560 l 1,8,-1
 661 560 l 1,9,-1
 925 293 l 1,0,-1
EndSplineSet
EndChar

StartChar: arrowdown
Encoding: 8595 8595 733
Width: 750
GlyphClass: 1
Flags: W
LayerCount: 2
Fore
SplineSet
362 -50 m 1,0,-1
 388 -50 l 1,1,-1
 655 214 l 1,2,-1
 655 356 l 1,3,-1
 426 116 l 1,4,-1
 426 750 l 1,5,-1
 324 750 l 1,6,-1
 324 116 l 1,7,-1
 95 356 l 1,8,-1
 95 214 l 1,9,-1
 362 -50 l 1,0,-1
EndSplineSet
EndChar

StartChar: arrowboth
Encoding: 8596 8596 734
Width: 1375
GlyphClass: 1
Flags: W
LayerCount: 2
Fore
SplineSet
157.5 293 m 1,0,-1
 157.5 267 l 1,1,-1
 421.5 0 l 1,2,-1
 563.5 0 l 1,3,-1
 323.5 229 l 1,4,-1
 1051.5 229 l 1,5,-1
 811.5 0 l 1,6,-1
 953.5 0 l 1,7,-1
 1217.5 267 l 1,8,-1
 1217.5 293 l 1,9,-1
 953.5 560 l 1,10,-1
 811.5 560 l 1,11,-1
 1051.5 331 l 1,12,-1
 323.5 331 l 1,13,-1
 563.5 560 l 1,14,-1
 421.5 560 l 1,15,-1
 157.5 293 l 1,0,-1
EndSplineSet
EndChar

StartChar: arrowupdn
Encoding: 8597 8597 735
Width: 750
GlyphClass: 1
Flags: W
LayerCount: 2
Fore
SplineSet
95 76 m 1,0,-1
 95 218 l 1,1,-1
 324 -22 l 1,2,-1
 324 706 l 1,3,-1
 95 466 l 1,4,-1
 95 608 l 1,5,-1
 362 872 l 1,6,-1
 388 872 l 1,7,-1
 655 608 l 1,8,-1
 655 466 l 1,9,-1
 426 706 l 1,10,-1
 426 -22 l 1,11,-1
 655 218 l 1,12,-1
 655 76 l 1,13,-1
 388 -188 l 1,14,-1
 362 -188 l 1,15,-1
 95 76 l 1,0,-1
EndSplineSet
EndChar

StartChar: uni2196
Encoding: 8598 8598 736
Width: 907
GlyphClass: 1
Flags: W
LayerCount: 2
Fore
SplineSet
149 555 m 1,0,-1
 167 574 l 1,1,-1
 543 576 l 1,2,-1
 643 476 l 1,3,-1
 312 483 l 1,4,-1
 760 35 l 1,5,-1
 688 -37 l 1,6,-1
 239 411 l 1,7,-1
 247 80 l 1,8,-1
 147 180 l 1,9,-1
 149 555 l 1,0,-1
EndSplineSet
EndChar

StartChar: uni2197
Encoding: 8599 8599 737
Width: 907
GlyphClass: 1
Flags: W
LayerCount: 2
Fore
SplineSet
739 574 m 1,0,-1
 757 555 l 1,1,-1
 760 180 l 1,2,-1
 659 80 l 1,3,-1
 667 411 l 1,4,-1
 218 -37 l 1,5,-1
 147 35 l 1,6,-1
 594 483 l 1,7,-1
 263 476 l 1,8,-1
 364 576 l 1,9,-1
 739 574 l 1,0,-1
EndSplineSet
EndChar

StartChar: uni2198
Encoding: 8600 8600 738
Width: 907
GlyphClass: 1
Flags: W
LayerCount: 2
Fore
SplineSet
739 -8 m 1,0,-1
 757 10 l 1,1,-1
 760 385 l 1,2,-1
 659 486 l 1,3,-1
 667 154 l 1,4,-1
 218 602 l 1,5,-1
 147 531 l 1,6,-1
 594 83 l 1,7,-1
 263 90 l 1,8,-1
 364 -11 l 1,9,-1
 739 -8 l 1,0,-1
EndSplineSet
EndChar

StartChar: uni2199
Encoding: 8601 8601 739
Width: 907
GlyphClass: 1
Flags: W
LayerCount: 2
Fore
SplineSet
149 10 m 1,0,-1
 167 -8 l 1,1,-1
 543 -11 l 1,2,-1
 643 90 l 1,3,-1
 312 83 l 1,4,-1
 760 531 l 1,5,-1
 688 602 l 1,6,-1
 239 154 l 1,7,-1
 247 486 l 1,8,-1
 147 385 l 1,9,-1
 149 10 l 1,0,-1
EndSplineSet
EndChar

StartChar: Gamma
Encoding: 915 915 747
Width: 510
GlyphClass: 2
Flags: W
AnchorPoint: "Anchor-2" 255 700 basechar 0
AnchorPoint: "Anchor-0" 255 0 basechar 0
LayerCount: 2
Fore
SplineSet
56 0 m 1,0,-1
 56 700 l 1,1,-1
 500 700 l 1,2,-1
 500 596 l 1,3,-1
 172 596 l 1,4,-1
 172 0 l 1,5,-1
 56 0 l 1,0,-1
EndSplineSet
EndChar

StartChar: uni0394
Encoding: 916 916 748
Width: 684
GlyphClass: 1
Flags: W
LayerCount: 2
Fore
SplineSet
477 700 m 1,0,-1
 671 0 l 1,1,-1
 549 0 l 1,2,-1
 389 600 l 1,3,-1
 295 600 l 1,4,-1
 135 0 l 1,5,-1
 13 0 l 1,6,-1
 207 700 l 1,7,-1
 477 700 l 1,0,-1
68 0 m 1,8,-1
 68 100 l 1,9,-1
 632 100 l 1,10,-1
 632 0 l 1,11,-1
 68 0 l 1,8,-1
EndSplineSet
EndChar

StartChar: Theta
Encoding: 920 920 752
Width: 650
GlyphClass: 2
Flags: W
AnchorPoint: "Anchor-2" 325 700 basechar 0
AnchorPoint: "Anchor-0" 325 0 basechar 0
LayerCount: 2
Fore
SplineSet
55 94 m 1,0,-1
 55 606 l 1,1,-1
 149 700 l 1,2,-1
 501 700 l 1,3,-1
 595 606 l 1,4,-1
 595 94 l 1,5,-1
 501 0 l 1,6,-1
 149 0 l 1,7,-1
 55 94 l 1,0,-1
171 600 m 1,8,-1
 171 396 l 1,9,-1
 479 396 l 1,10,-1
 479 600 l 1,11,-1
 171 600 l 1,8,-1
171 100 m 1,12,-1
 479 100 l 1,13,-1
 479 304 l 1,14,-1
 171 304 l 1,15,-1
 171 100 l 1,12,-1
EndSplineSet
EndChar

StartChar: Lambda
Encoding: 923 923 755
Width: 688
GlyphClass: 2
Flags: W
AnchorPoint: "Anchor-2" 344 700 basechar 0
AnchorPoint: "Anchor-0" 344 0 basechar 0
LayerCount: 2
Fore
SplineSet
480 700 m 1,0,-1
 651 0 l 1,1,-1
 530 0 l 1,2,-1
 390 596 l 1,3,-1
 298 596 l 1,4,-1
 158 0 l 1,5,-1
 37 0 l 1,6,-1
 208 700 l 1,7,-1
 480 700 l 1,0,-1
EndSplineSet
EndChar

StartChar: Xi
Encoding: 926 926 758
Width: 660
GlyphClass: 2
Flags: W
AnchorPoint: "Anchor-2" 330 700 basechar 0
AnchorPoint: "Anchor-0" 330 0 basechar 0
LayerCount: 2
Fore
SplineSet
30 0 m 1,0,-1
 30 100 l 1,1,-1
 274 100 l 1,2,-1
 274 310 l 1,3,-1
 90 310 l 1,4,-1
 90 408 l 1,5,-1
 274 408 l 1,6,-1
 274 600 l 1,7,-1
 40 600 l 1,8,-1
 40 700 l 1,9,-1
 620 700 l 1,10,-1
 620 600 l 1,11,-1
 386 600 l 1,12,-1
 386 408 l 1,13,-1
 570 408 l 1,14,-1
 570 310 l 1,15,-1
 386 310 l 1,16,-1
 386 100 l 1,17,-1
 630 100 l 1,18,-1
 630 0 l 1,19,-1
 30 0 l 1,0,-1
EndSplineSet
EndChar

StartChar: Pi
Encoding: 928 928 760
Width: 650
GlyphClass: 2
Flags: W
AnchorPoint: "Anchor-2" 325 700 basechar 0
AnchorPoint: "Anchor-0" 325 0 basechar 0
LayerCount: 2
Fore
SplineSet
56 0 m 1,0,-1
 56 700 l 1,1,-1
 594 700 l 1,2,-1
 594 0 l 1,3,-1
 478 0 l 1,4,-1
 478 598 l 1,5,-1
 172 598 l 1,6,-1
 172 0 l 1,7,-1
 56 0 l 1,0,-1
EndSplineSet
EndChar

StartChar: Sigma
Encoding: 931 931 762
Width: 561
GlyphClass: 1
Flags: W
LayerCount: 2
Fore
SplineSet
44 0 m 1,0,-1
 44 88 l 1,1,-1
 282 350 l 1,2,-1
 49 612 l 1,3,-1
 49 700 l 1,4,-1
 512 700 l 1,5,-1
 512 600 l 1,6,-1
 197 600 l 1,7,-1
 416 350 l 1,8,-1
 189 100 l 1,9,-1
 517 100 l 1,10,-1
 517 0 l 1,11,-1
 44 0 l 1,0,-1
EndSplineSet
EndChar

StartChar: Phi
Encoding: 934 934 765
Width: 854
GlyphClass: 2
Flags: W
AnchorPoint: "Anchor-2" 427 700 basechar 0
AnchorPoint: "Anchor-0" 427 0 basechar 0
LayerCount: 2
Fore
SplineSet
75 160 m 1,0,-1
 75 540 l 1,1,-1
 167 632 l 1,2,-1
 687 632 l 1,3,-1
 779 540 l 1,4,-1
 779 160 l 1,5,-1
 687 68 l 1,6,-1
 167 68 l 1,7,-1
 75 160 l 1,0,-1
189 534 m 1,8,-1
 189 166 l 1,9,-1
 665 166 l 1,10,-1
 665 534 l 1,11,-1
 189 534 l 1,8,-1
483 0 m 1,12,-1
 371 0 l 1,13,-1
 371 700 l 1,14,-1
 483 700 l 1,15,-1
 483 0 l 1,12,-1
EndSplineSet
EndChar

StartChar: Psi
Encoding: 936 936 767
Width: 814
GlyphClass: 2
Flags: W
AnchorPoint: "Anchor-2" 407 700 basechar 0
AnchorPoint: "Anchor-0" 407 0 basechar 0
LayerCount: 2
Fore
SplineSet
149 176 m 1,0,-1
 55 270 l 1,1,-1
 55 700 l 1,2,-1
 169 700 l 1,3,-1
 169 274 l 1,4,-1
 351 274 l 1,5,-1
 351 700 l 1,6,-1
 463 700 l 1,7,-1
 463 274 l 1,8,-1
 645 274 l 1,9,-1
 645 700 l 1,10,-1
 759 700 l 1,11,-1
 759 270 l 1,12,-1
 665 176 l 1,13,-1
 463 176 l 1,14,-1
 463 0 l 1,15,-1
 351 0 l 1,16,-1
 351 176 l 1,17,-1
 149 176 l 1,0,-1
EndSplineSet
EndChar

StartChar: uni03A9
Encoding: 937 937 768
AltUni2: 002126.ffffffff.0 002126.ffffffff.0
Width: 694
GlyphClass: 1
Flags: W
LayerCount: 2
Fore
SplineSet
46 0 m 1,0,-1
 46 104 l 1,1,-1
 163 104 l 1,2,-1
 73 194 l 1,3,-1
 73 606 l 1,4,-1
 167 700 l 1,5,-1
 527 700 l 1,6,-1
 621 606 l 1,7,-1
 621 194 l 1,8,-1
 531 104 l 1,9,-1
 648 104 l 1,10,-1
 648 0 l 1,11,-1
 406 0 l 1,12,-1
 406 104 l 1,13,-1
 503 201 l 1,14,-1
 503 596 l 1,15,-1
 191 596 l 1,16,-1
 191 201 l 1,17,-1
 288 104 l 1,18,-1
 288 0 l 1,19,-1
 46 0 l 1,0,-1
EndSplineSet
EndChar

StartChar: alpha
Encoding: 945 945 778
Width: 626
GlyphClass: 2
Flags: W
AnchorPoint: "Anchor-2" 313 560 basechar 0
AnchorPoint: "Anchor-0" 313 0 basechar 0
LayerCount: 2
Fore
SplineSet
140 0 m 1,0,-1
 54 86 l 1,1,-1
 54 474 l 1,2,-1
 140 560 l 1,3,-1
 386 560 l 1,4,-1
 451 494 l 1,5,-1
 459 560 l 1,6,-1
 576 560 l 1,7,-1
 548 280 l 1,8,-1
 576 0 l 1,9,-1
 459 0 l 1,10,-1
 451 66 l 1,11,-1
 386 0 l 1,12,-1
 140 0 l 1,0,-1
170 99 m 1,13,-1
 451 99 l 1,14,-1
 451 461 l 1,15,-1
 170 461 l 1,16,-1
 170 99 l 1,13,-1
EndSplineSet
EndChar

StartChar: beta
Encoding: 946 946 779
Width: 630
GlyphClass: 1
Flags: W
LayerCount: 2
Fore
SplineSet
570 598 m 1,0,-1
 570 437 l 1,1,-1
 513 382 l 1,2,-1
 594 318 l 1,3,-1
 594 98 l 1,4,-1
 496 0 l 1,5,-1
 118 0 l 1,6,-1
 118 98 l 1,7,-1
 478 98 l 1,8,-1
 478 325 l 1,9,-1
 260 325 l 1,10,-1
 260 417 l 1,11,-1
 455 417 l 1,12,-1
 455 602 l 1,13,-1
 172 602 l 1,14,-1
 172 -100 l 1,15,-1
 56 -100 l 1,16,-1
 56 598 l 1,17,-1
 158 700 l 1,18,-1
 468 700 l 1,19,-1
 570 598 l 1,0,-1
EndSplineSet
EndChar

StartChar: gamma
Encoding: 947 947 780
Width: 580
GlyphClass: 2
Flags: W
AnchorPoint: "Anchor-2" 290 560 basechar 0
AnchorPoint: "Anchor-0" 290 -140 basechar 0
LayerCount: 2
Fore
SplineSet
230 -2 m 1,0,-1
 10 560 l 1,1,-1
 128 560 l 1,2,-1
 284 128 l 1,3,-1
 297 128 l 1,4,-1
 453 560 l 1,5,-1
 570 560 l 1,6,-1
 350 -2 l 1,7,-1
 350 -140 l 1,8,-1
 230 -140 l 1,9,-1
 230 -2 l 1,0,-1
EndSplineSet
EndChar

StartChar: delta
Encoding: 948 948 781
Width: 648
GlyphClass: 2
Flags: W
AnchorPoint: "Anchor-2" 324 700 basechar 0
AnchorPoint: "Anchor-0" 324 0 basechar 0
LayerCount: 2
Fore
SplineSet
154 0 m 1,0,-1
 54 100 l 1,1,-1
 54 470 l 1,2,-1
 279 547 l 1,3,-1
 366 514 l 1,4,-1
 170 422 l 1,5,-1
 170 100 l 1,6,-1
 478 100 l 1,7,-1
 478 429 l 1,8,-1
 109 600 l 1,9,-1
 109 700 l 1,10,-1
 554 700 l 1,11,-1
 554 611 l 1,12,-1
 244 611 l 1,13,-1
 594 480 l 1,14,-1
 594 100 l 1,15,-1
 494 0 l 1,16,-1
 154 0 l 1,0,-1
EndSplineSet
EndChar

StartChar: epsilon
Encoding: 949 949 782
Width: 588
GlyphClass: 2
Flags: W
AnchorPoint: "Anchor-2" 341 560 basechar 0
AnchorPoint: "Anchor-0" 341 0 basechar 0
LayerCount: 2
Fore
SplineSet
130 0 m 1,0,-1
 44 86 l 1,1,-1
 44 231 l 1,2,-1
 123 293 l 1,3,-1
 64 338 l 1,4,-1
 64 476 l 1,5,-1
 148 560 l 1,6,-1
 540 560 l 1,7,-1
 540 464 l 1,8,-1
 182 464 l 1,9,-1
 182 330 l 1,10,-1
 502 330 l 1,11,-1
 502 240 l 1,12,-1
 162 240 l 1,13,-1
 162 96 l 1,14,-1
 550 96 l 1,15,-1
 550 0 l 1,16,-1
 130 0 l 1,0,-1
EndSplineSet
EndChar

StartChar: zeta
Encoding: 950 950 783
Width: 534
GlyphClass: 2
Flags: W
AnchorPoint: "Anchor-2" 267 700 basechar 0
AnchorPoint: "Anchor-0" 267 -120 basechar 0
LayerCount: 2
Fore
SplineSet
140 0 m 1,0,-1
 50 90 l 1,1,-1
 50 404 l 1,2,-1
 359 605 l 1,3,-1
 50 605 l 1,4,-1
 50 700 l 1,5,-1
 496 700 l 1,6,-1
 496 604 l 1,7,-1
 166 377 l 1,8,-1
 166 102 l 1,9,-1
 518 102 l 1,10,-1
 518 -152 l 1,11,-1
 416 -152 l 1,12,-1
 416 0 l 1,13,-1
 140 0 l 1,0,-1
EndSplineSet
EndChar

StartChar: theta
Encoding: 952 952 785
Width: 622
GlyphClass: 2
Flags: W
AnchorPoint: "Anchor-2" 311 700 basechar 0
AnchorPoint: "Anchor-0" 311 0 basechar 0
LayerCount: 2
Fore
SplineSet
55 94 m 1,0,-1
 55 606 l 1,1,-1
 149 700 l 1,2,-1
 473 700 l 1,3,-1
 567 606 l 1,4,-1
 567 94 l 1,5,-1
 473 0 l 1,6,-1
 149 0 l 1,7,-1
 55 94 l 1,0,-1
169 602 m 1,8,-1
 169 396 l 1,9,-1
 453 396 l 1,10,-1
 453 602 l 1,11,-1
 169 602 l 1,8,-1
169 98 m 1,12,-1
 453 98 l 1,13,-1
 453 304 l 1,14,-1
 169 304 l 1,15,-1
 169 98 l 1,12,-1
EndSplineSet
EndChar

StartChar: iota
Encoding: 953 953 786
Width: 316
GlyphClass: 2
Flags: W
AnchorPoint: "Anchor-2" 122 560 basechar 0
AnchorPoint: "Anchor-0" 170 0 basechar 0
LayerCount: 2
Fore
SplineSet
64 560 m 1,0,-1
 180 560 l 1,1,-1
 180 104 l 1,2,-1
 296 104 l 1,3,-1
 296 0 l 1,4,-1
 150 0 l 1,5,-1
 64 86 l 1,6,-1
 64 560 l 1,0,-1
EndSplineSet
EndChar

StartChar: kappa
Encoding: 954 954 787
Width: 628
GlyphClass: 2
Flags: W
AnchorPoint: "Anchor-2" 304 560 basechar 0
AnchorPoint: "Anchor-0" 326 0 basechar 0
LayerCount: 2
Fore
SplineSet
64 0 m 1,0,-1
 64 560 l 1,1,-1
 180 560 l 1,2,-1
 180 341 l 1,3,-1
 343 341 l 1,4,-1
 480 560 l 1,5,-1
 612 560 l 1,6,-1
 444 302 l 1,7,-1
 620 0 l 1,8,-1
 489 0 l 1,9,-1
 354 241 l 1,10,-1
 180 241 l 1,11,-1
 180 0 l 1,12,-1
 64 0 l 1,0,-1
EndSplineSet
EndChar

StartChar: lambda
Encoding: 955 955 788
Width: 600
GlyphClass: 2
Flags: W
AnchorPoint: "Anchor-2" 300 700 basechar 0
AnchorPoint: "Anchor-0" 300 0 basechar 0
LayerCount: 2
Fore
SplineSet
134 700 m 1,0,-1
 380 700 l 1,1,-1
 590 0 l 1,2,-1
 473 0 l 1,3,-1
 360 384 l 1,4,-1
 246 384 l 1,5,-1
 128 0 l 1,6,-1
 10 0 l 1,7,-1
 162 480 l 1,8,-1
 334 480 l 1,9,-1
 297 604 l 1,10,-1
 134 604 l 1,11,-1
 134 700 l 1,0,-1
EndSplineSet
EndChar

StartChar: uni03BC
Encoding: 956 956 789
Width: 700
GlyphClass: 1
Flags: W
LayerCount: 2
Fore
SplineSet
64 -160 m 1,0,-1
 64 560 l 1,1,-1
 178 560 l 1,2,-1
 178 102 l 1,3,-1
 448 102 l 1,4,-1
 448 560 l 1,5,-1
 564 560 l 1,6,-1
 564 104 l 1,7,-1
 680 104 l 1,8,-1
 680 0 l 1,9,-1
 522 0 l 1,10,-1
 464 58 l 1,11,-1
 406 0 l 1,12,-1
 178 0 l 1,13,-1
 178 -160 l 1,14,-1
 64 -160 l 1,0,-1
EndSplineSet
EndChar

StartChar: nu
Encoding: 957 957 790
Width: 580
GlyphClass: 2
Flags: W
AnchorPoint: "Anchor-2" 290 560 basechar 0
AnchorPoint: "Anchor-0" 290 0 basechar 0
LayerCount: 2
Fore
SplineSet
169 0 m 1,0,-1
 10 560 l 1,1,-1
 128 560 l 1,2,-1
 254 100 l 1,3,-1
 327 100 l 1,4,-1
 453 560 l 1,5,-1
 570 560 l 1,6,-1
 411 0 l 1,7,-1
 169 0 l 1,0,-1
EndSplineSet
EndChar

StartChar: xi
Encoding: 958 958 791
Width: 540
GlyphClass: 1
Flags: W
LayerCount: 2
Fore
SplineSet
128 0 m 1,0,-1
 44 84 l 1,1,-1
 44 302 l 1,2,-1
 123 364 l 1,3,-1
 64 409 l 1,4,-1
 64 616 l 1,5,-1
 148 700 l 1,6,-1
 505 700 l 1,7,-1
 505 602 l 1,8,-1
 178 602 l 1,9,-1
 178 403 l 1,10,-1
 488 403 l 1,11,-1
 488 307 l 1,12,-1
 159 307 l 1,13,-1
 159 98 l 1,14,-1
 510 98 l 1,15,-1
 510 -152 l 1,16,-1
 398 -152 l 1,17,-1
 398 0 l 1,18,-1
 128 0 l 1,0,-1
EndSplineSet
EndChar

StartChar: omicron
Encoding: 959 959 792
Width: 608
GlyphClass: 2
Flags: W
AnchorPoint: "Anchor-2" 304 560 basechar 0
AnchorPoint: "Anchor-0" 304 0 basechar 0
LayerCount: 2
Fore
SplineSet
54 98 m 1,0,-1
 54 462 l 1,1,-1
 152 560 l 1,2,-1
 456 560 l 1,3,-1
 554 462 l 1,4,-1
 554 98 l 1,5,-1
 456 0 l 1,6,-1
 152 0 l 1,7,-1
 54 98 l 1,0,-1
170 98 m 1,8,-1
 438 98 l 1,9,-1
 438 462 l 1,10,-1
 170 462 l 1,11,-1
 170 98 l 1,8,-1
EndSplineSet
EndChar

StartChar: pi
Encoding: 960 960 793
Width: 628
GlyphClass: 2
Flags: W
AnchorPoint: "Anchor-2" 314 560 basechar 0
AnchorPoint: "Anchor-0" 314 0 basechar 0
LayerCount: 2
Fore
SplineSet
60 0 m 1,0,-1
 60 560 l 1,1,-1
 568 560 l 1,2,-1
 568 0 l 1,3,-1
 452 0 l 1,4,-1
 452 458 l 1,5,-1
 176 458 l 1,6,-1
 176 0 l 1,7,-1
 60 0 l 1,0,-1
EndSplineSet
EndChar

StartChar: rho
Encoding: 961 961 794
Width: 632
GlyphClass: 2
Flags: W
AnchorPoint: "Anchor-2" 312 560 basechar 0
AnchorPoint: "Anchor-0" 284 -140 basechar 0
LayerCount: 2
Fore
SplineSet
64 -140 m 1,0,-1
 64 458 l 1,1,-1
 166 560 l 1,2,-1
 476 560 l 1,3,-1
 578 458 l 1,4,-1
 578 102 l 1,5,-1
 476 0 l 1,6,-1
 180 0 l 1,7,-1
 180 -140 l 1,8,-1
 64 -140 l 1,0,-1
462 460 m 1,9,-1
 180 460 l 1,10,-1
 180 100 l 1,11,-1
 462 100 l 1,12,-1
 462 460 l 1,9,-1
EndSplineSet
EndChar

StartChar: uni03C2
Encoding: 962 962 795
Width: 544
GlyphClass: 2
Flags: W
AnchorPoint: "Anchor-2" 334 560 basechar 0
AnchorPoint: "Anchor-0" 334 -100 basechar 0
LayerCount: 2
Fore
SplineSet
152 0 m 1,0,-1
 54 98 l 1,1,-1
 54 462 l 1,2,-1
 152 560 l 1,3,-1
 516 560 l 1,4,-1
 516 456 l 1,5,-1
 170 456 l 1,6,-1
 170 104 l 1,7,-1
 516 104 l 1,8,-1
 516 -152 l 1,9,-1
 404 -152 l 1,10,-1
 404 0 l 1,11,-1
 152 0 l 1,0,-1
EndSplineSet
EndChar

StartChar: sigma
Encoding: 963 963 796
Width: 620
GlyphClass: 2
Flags: W
AnchorPoint: "Anchor-2" 310 560 basechar 0
AnchorPoint: "Anchor-0" 310 0 basechar 0
LayerCount: 2
Fore
SplineSet
54 98 m 1,0,-1
 54 462 l 1,1,-1
 152 560 l 1,2,-1
 596 560 l 1,3,-1
 596 465 l 1,4,-1
 476 465 l 1,5,-1
 554 400 l 1,6,-1
 554 98 l 1,7,-1
 456 0 l 1,8,-1
 152 0 l 1,9,-1
 54 98 l 1,0,-1
170 98 m 1,10,-1
 438 98 l 1,11,-1
 438 462 l 1,12,-1
 170 462 l 1,13,-1
 170 98 l 1,10,-1
EndSplineSet
EndChar

StartChar: tau
Encoding: 964 964 797
Width: 520
GlyphClass: 2
Flags: W
AnchorPoint: "Anchor-2" 282 560 basechar 0
AnchorPoint: "Anchor-0" 336 0 basechar 0
LayerCount: 2
Fore
SplineSet
120 88 m 1,0,-1
 120 460 l 1,1,-1
 20 460 l 1,2,-1
 20 528 l 1,3,-1
 52 560 l 1,4,-1
 492 560 l 1,5,-1
 492 460 l 1,6,-1
 236 460 l 1,7,-1
 236 100 l 1,8,-1
 492 100 l 1,9,-1
 492 0 l 1,10,-1
 208 0 l 1,11,-1
 120 88 l 1,0,-1
EndSplineSet
EndChar

StartChar: upsilon
Encoding: 965 965 798
Width: 636
GlyphClass: 2
Flags: W
AnchorPoint: "Anchor-2" 318 560 basechar 0
AnchorPoint: "Anchor-0" 318 0 basechar 0
LayerCount: 2
Fore
SplineSet
572 560 m 1,0,-1
 572 100 l 1,1,-1
 472 0 l 1,2,-1
 164 0 l 1,3,-1
 64 100 l 1,4,-1
 64 560 l 1,5,-1
 180 560 l 1,6,-1
 180 102 l 1,7,-1
 456 102 l 1,8,-1
 456 560 l 1,9,-1
 572 560 l 1,0,-1
EndSplineSet
EndChar

StartChar: phi
Encoding: 966 966 799
Width: 804
GlyphClass: 1
Flags: W
LayerCount: 2
Fore
SplineSet
454 98 m 1,0,-1
 636 98 l 1,1,-1
 636 462 l 1,2,-1
 454 462 l 1,3,-1
 454 98 l 1,0,-1
152 0 m 1,4,-1
 54 98 l 1,5,-1
 54 462 l 1,6,-1
 152 560 l 1,7,-1
 282 560 l 1,8,-1
 168 440 l 1,9,-1
 168 98 l 1,10,-1
 350 98 l 1,11,-1
 350 463 l 1,12,-1
 440 560 l 1,13,-1
 652 560 l 1,14,-1
 750 462 l 1,15,-1
 750 98 l 1,16,-1
 652 0 l 1,17,-1
 454 0 l 1,18,-1
 454 -140 l 1,19,-1
 350 -140 l 1,20,-1
 350 0 l 1,21,-1
 152 0 l 1,4,-1
EndSplineSet
EndChar

StartChar: psi
Encoding: 968 968 801
Width: 800
GlyphClass: 2
Flags: W
AnchorPoint: "Anchor-2" 400 620 basechar 0
AnchorPoint: "Anchor-0" 400 -140 basechar 0
LayerCount: 2
Fore
SplineSet
148 0 m 1,0,-1
 56 92 l 1,1,-1
 56 560 l 1,2,-1
 170 560 l 1,3,-1
 170 98 l 1,4,-1
 344 98 l 1,5,-1
 344 620 l 1,6,-1
 456 620 l 1,7,-1
 456 98 l 1,8,-1
 630 98 l 1,9,-1
 630 560 l 1,10,-1
 744 560 l 1,11,-1
 744 92 l 1,12,-1
 652 0 l 1,13,-1
 456 0 l 1,14,-1
 456 -140 l 1,15,-1
 344 -140 l 1,16,-1
 344 0 l 1,17,-1
 148 0 l 1,0,-1
EndSplineSet
EndChar

StartChar: omega
Encoding: 969 969 802
Width: 938
GlyphClass: 2
Flags: W
AnchorPoint: "Anchor-2" 469 560 basechar 0
AnchorPoint: "Anchor-0" 469 0 basechar 0
LayerCount: 2
Fore
SplineSet
527 472 m 1,0,-1
 527 102 l 1,1,-1
 763 102 l 1,2,-1
 763 560 l 1,3,-1
 879 560 l 1,4,-1
 879 100 l 1,5,-1
 779 0 l 1,6,-1
 519 0 l 1,7,-1
 469 76 l 1,8,-1
 419 0 l 1,9,-1
 159 0 l 1,10,-1
 59 100 l 1,11,-1
 59 560 l 1,12,-1
 175 560 l 1,13,-1
 175 102 l 1,14,-1
 411 102 l 1,15,-1
 411 472 l 1,16,-1
 527 472 l 1,0,-1
EndSplineSet
EndChar

StartChar: phi1
Encoding: 981 981 816
Width: 804
GlyphClass: 1
Flags: W
LayerCount: 2
Fore
SplineSet
54 92 m 1,0,-1
 54 468 l 1,1,-1
 146 560 l 1,2,-1
 658 560 l 1,3,-1
 750 468 l 1,4,-1
 750 92 l 1,5,-1
 658 0 l 1,6,-1
 146 0 l 1,7,-1
 54 92 l 1,0,-1
168 463 m 1,8,-1
 168 97 l 1,9,-1
 636 97 l 1,10,-1
 636 463 l 1,11,-1
 168 463 l 1,8,-1
456 -140 m 1,12,-1
 348 -140 l 1,13,-1
 348 700 l 1,14,-1
 456 700 l 1,15,-1
 456 -140 l 1,12,-1
EndSplineSet
EndChar

StartChar: gamma_gamma
Encoding: 65582 -1 817
Width: 1108
GlyphClass: 1
Flags: W
LayerCount: 2
Fore
SplineSet
230 -2 m 1,0,-1
 10 560 l 1,1,-1
 128 560 l 1,2,-1
 284 128 l 1,3,-1
 297 128 l 1,4,-1
 453 560 l 1,5,-1
 656 560 l 1,6,-1
 812 128 l 1,7,-1
 825 128 l 1,8,-1
 981 560 l 1,9,-1
 1098 560 l 1,10,-1
 878 -2 l 1,11,-1
 878 -140 l 1,12,-1
 758 -140 l 1,13,-1
 758 -2 l 1,14,-1
 554 527 l 1,15,-1
 350 -2 l 1,16,-1
 350 -140 l 1,17,-1
 230 -140 l 1,18,-1
 230 -2 l 1,0,-1
EndSplineSet
Ligature2: "'liga' +ahluljBuVAhbVwAA lookup 15 +MLUw1jDGMPww1jDr" gamma gamma
EndChar

StartChar: lambda_lambda
Encoding: 65583 -1 818
Width: 1158
GlyphClass: 1
Flags: W
LayerCount: 2
Fore
SplineSet
134 700 m 1,0,-1
 380 700 l 1,1,-1
 579 35 l 1,2,-1
 720 480 l 1,3,-1
 892 480 l 1,4,-1
 855 604 l 1,5,-1
 692 604 l 1,6,-1
 692 700 l 1,7,-1
 938 700 l 1,8,-1
 1148 0 l 1,9,-1
 1031 0 l 1,10,-1
 918 384 l 1,11,-1
 804 384 l 1,12,-1
 686 0 l 1,13,-1
 473 0 l 1,14,-1
 360 384 l 1,15,-1
 246 384 l 1,16,-1
 128 0 l 1,17,-1
 10 0 l 1,18,-1
 162 480 l 1,19,-1
 334 480 l 1,20,-1
 297 604 l 1,21,-1
 134 604 l 1,22,-1
 134 700 l 1,0,-1
EndSplineSet
Ligature2: "'liga' +ahluljBuVAhbVwAA lookup 15 +MLUw1jDGMPww1jDr" lambda lambda
EndChar

StartChar: Omicron_Upsilon
Encoding: 65584 -1 819
Width: 646
GlyphClass: 1
Flags: W
LayerCount: 2
Fore
SplineSet
50 96 m 1,0,-1
 50 372 l 1,1,-1
 146 468 l 1,2,-1
 500 468 l 1,3,-1
 596 372 l 1,4,-1
 596 96 l 1,5,-1
 500 0 l 1,6,-1
 146 0 l 1,7,-1
 50 96 l 1,0,-1
166 98 m 1,8,-1
 480 98 l 1,9,-1
 480 373 l 1,10,-1
 166 373 l 1,11,-1
 166 98 l 1,8,-1
508 381 m 1,12,-1
 138 381 l 1,13,-1
 22 700 l 1,14,-1
 145 700 l 1,15,-1
 218 468 l 1,16,-1
 428 468 l 1,17,-1
 501 700 l 1,18,-1
 624 700 l 1,19,-1
 508 381 l 1,12,-1
EndSplineSet
Ligature2: "'dlig' +TvthD09/dSgwblQIW1cA lookup 17 +MLUw1jDGMPww1jDr" Omicron Upsilon
EndChar

StartChar: uni0375
Encoding: 885 885 821
Width: 208
GlyphClass: 1
Flags: W
LayerCount: 2
Fore
SplineSet
158 100 m 1,0,-1
 158 -144 l 1,1,-1
 40 -144 l 1,2,-1
 80 100 l 1,3,-1
 158 100 l 1,0,-1
EndSplineSet
EndChar

StartChar: tonos
Encoding: 900 900 824
Width: 208
GlyphClass: 1
Flags: W
LayerCount: 2
Fore
SplineSet
50 456 m 1,0,-1
 50 700 l 1,1,-1
 168 700 l 1,2,-1
 128 456 l 1,3,-1
 50 456 l 1,0,-1
EndSplineSet
EndChar

StartChar: tonoscomb
Encoding: 65585 -1 825
Width: 0
GlyphClass: 1
Flags: W
LayerCount: 2
Fore
SplineSet
-44 606 m 1,0,-1
 -44 730 l 1,1,-1
 74 730 l 1,2,-1
 34 606 l 1,3,-1
 -44 606 l 1,0,-1
EndSplineSet
EndChar

StartChar: uni0411
Encoding: 1041 1041 828
Width: 642
GlyphClass: 1
Flags: W
LayerCount: 2
Fore
SplineSet
56 0 m 1,0,-1
 56 700 l 1,1,-1
 562 700 l 1,2,-1
 562 602 l 1,3,-1
 172 602 l 1,4,-1
 172 424 l 1,5,-1
 514 424 l 1,6,-1
 606 332 l 1,7,-1
 606 92 l 1,8,-1
 514 0 l 1,9,-1
 56 0 l 1,0,-1
172 98 m 1,10,-1
 488 98 l 1,11,-1
 488 328 l 1,12,-1
 172 328 l 1,13,-1
 172 98 l 1,10,-1
EndSplineSet
EndChar

StartChar: uni0414
Encoding: 1044 1044 831
Width: 720
GlyphClass: 1
Flags: W
LayerCount: 2
Fore
SplineSet
15 -140 m 1,0,-1
 15 102 l 1,1,-1
 84 102 l 1,2,-1
 230 700 l 1,3,-1
 644 700 l 1,4,-1
 644 102 l 1,5,-1
 705 102 l 1,6,-1
 705 -140 l 1,7,-1
 601 -140 l 1,8,-1
 601 0 l 1,9,-1
 119 0 l 1,10,-1
 119 -140 l 1,11,-1
 15 -140 l 1,0,-1
201 98 m 1,12,-1
 528 98 l 1,13,-1
 528 602 l 1,14,-1
 318 602 l 1,15,-1
 201 98 l 1,12,-1
EndSplineSet
Substitution2: "'locl' +Vv0w+1cwV99W+mcJMG5bV19i in +MK0w6jDrZYdbVwAA lookup 7 +MLUw1jDGMPww1jDr" uni0414.loclBGR
EndChar

StartChar: uni0416
Encoding: 1046 1046 833
Width: 954
GlyphClass: 2
Flags: W
AnchorPoint: "Anchor-2" 477 700 basechar 0
AnchorPoint: "Anchor-0" 477 0 basechar 0
LayerCount: 2
Fore
SplineSet
535 0 m 1,0,-1
 419 0 l 1,1,-1
 419 304 l 1,2,-1
 298 304 l 1,3,-1
 158 0 l 1,4,-1
 25 0 l 1,5,-1
 203 370 l 1,6,-1
 40 700 l 1,7,-1
 171 700 l 1,8,-1
 310 406 l 1,9,-1
 419 406 l 1,10,-1
 419 700 l 1,11,-1
 535 700 l 1,12,-1
 535 406 l 1,13,-1
 644 406 l 1,14,-1
 782 700 l 1,15,-1
 914 700 l 1,16,-1
 751 370 l 1,17,-1
 929 0 l 1,18,-1
 796 0 l 1,19,-1
 655 304 l 1,20,-1
 535 304 l 1,21,-1
 535 0 l 1,0,-1
EndSplineSet
EndChar

StartChar: uni0417
Encoding: 1047 1047 834
Width: 614
GlyphClass: 2
Flags: W
AnchorPoint: "Anchor-2" 265 700 basechar 0
AnchorPoint: "Anchor-0" 265 0 basechar 0
LayerCount: 2
Fore
SplineSet
486 0 m 1,0,-1
 26 0 l 1,1,-1
 26 100 l 1,2,-1
 460 100 l 1,3,-1
 460 310 l 1,4,-1
 126 310 l 1,5,-1
 126 408 l 1,6,-1
 440 408 l 1,7,-1
 440 600 l 1,8,-1
 40 600 l 1,9,-1
 40 700 l 1,10,-1
 466 700 l 1,11,-1
 558 608 l 1,12,-1
 558 411 l 1,13,-1
 499 366 l 1,14,-1
 578 304 l 1,15,-1
 578 92 l 1,16,-1
 486 0 l 1,0,-1
EndSplineSet
EndChar

StartChar: uni0418
Encoding: 1048 1048 835
Width: 680
GlyphClass: 2
Flags: W
AnchorPoint: "Anchor-2" 340 700 basechar 0
AnchorPoint: "Anchor-0" 340 0 basechar 0
LayerCount: 2
Fore
SplineSet
624 0 m 1,0,-1
 509 0 l 1,1,-1
 509 559 l 1,2,-1
 194 0 l 1,3,-1
 56 0 l 1,4,-1
 56 700 l 1,5,-1
 171 700 l 1,6,-1
 171 141 l 1,7,-1
 486 700 l 1,8,-1
 624 700 l 1,9,-1
 624 0 l 1,0,-1
EndSplineSet
EndChar

StartChar: uni041B
Encoding: 1051 1051 838
Width: 671
GlyphClass: 2
Flags: W
AnchorPoint: "Anchor-2" 335 700 basechar 0
AnchorPoint: "Anchor-0" 335 0 basechar 0
LayerCount: 2
Fore
SplineSet
615 700 m 1,0,-1
 615 0 l 1,1,-1
 499 0 l 1,2,-1
 499 597 l 1,3,-1
 280 597 l 1,4,-1
 138 0 l 1,5,-1
 17 0 l 1,6,-1
 188 700 l 1,7,-1
 615 700 l 1,0,-1
EndSplineSet
Substitution2: "'locl' +Vv0w+1cwV99W+mcJMG5bV19i in +MK0w6jDrZYdbVwAA lookup 7 +MLUw1jDGMPww1jDr" uni041B.loclBGR
EndChar

StartChar: uni0426
Encoding: 1062 1062 849
Width: 670
GlyphClass: 2
Flags: W
AnchorPoint: "Anchor-2" 335 0 basechar 0
AnchorPoint: "Anchor-0" 335 700 basechar 0
LayerCount: 2
Fore
SplineSet
594 700 m 1,0,-1
 594 102 l 1,1,-1
 660 102 l 1,2,-1
 660 -140 l 1,3,-1
 556 -140 l 1,4,-1
 556 0 l 1,5,-1
 56 0 l 1,6,-1
 56 700 l 1,7,-1
 172 700 l 1,8,-1
 172 102 l 1,9,-1
 478 102 l 1,10,-1
 478 700 l 1,11,-1
 594 700 l 1,0,-1
EndSplineSet
EndChar

StartChar: uni0427
Encoding: 1063 1063 850
Width: 640
GlyphClass: 2
Flags: W
AnchorPoint: "Anchor-2" 320 700 basechar 0
AnchorPoint: "Anchor-0" 396 0 basechar 0
LayerCount: 2
Fore
SplineSet
584 700 m 1,0,-1
 584 0 l 1,1,-1
 468 0 l 1,2,-1
 468 140 l 1,3,-1
 156 140 l 1,4,-1
 56 240 l 1,5,-1
 56 700 l 1,6,-1
 172 700 l 1,7,-1
 172 240 l 1,8,-1
 468 240 l 1,9,-1
 468 700 l 1,10,-1
 584 700 l 1,0,-1
EndSplineSet
EndChar

StartChar: uni0428
Encoding: 1064 1064 851
Width: 940
GlyphClass: 1
Flags: W
LayerCount: 2
Fore
SplineSet
528 700 m 1,0,-1
 528 102 l 1,1,-1
 768 102 l 1,2,-1
 768 700 l 1,3,-1
 884 700 l 1,4,-1
 884 0 l 1,5,-1
 56 0 l 1,6,-1
 56 700 l 1,7,-1
 172 700 l 1,8,-1
 172 102 l 1,9,-1
 412 102 l 1,10,-1
 412 700 l 1,11,-1
 528 700 l 1,0,-1
EndSplineSet
EndChar

StartChar: uni0429
Encoding: 1065 1065 852
Width: 960
GlyphClass: 1
Flags: W
LayerCount: 2
Fore
SplineSet
528 700 m 1,0,-1
 528 102 l 1,1,-1
 768 102 l 1,2,-1
 768 700 l 1,3,-1
 884 700 l 1,4,-1
 884 102 l 1,5,-1
 950 102 l 1,6,-1
 950 -140 l 1,7,-1
 846 -140 l 1,8,-1
 846 0 l 1,9,-1
 56 0 l 1,10,-1
 56 700 l 1,11,-1
 172 700 l 1,12,-1
 172 102 l 1,13,-1
 412 102 l 1,14,-1
 412 700 l 1,15,-1
 528 700 l 1,0,-1
EndSplineSet
EndChar

StartChar: uni042A
Encoding: 1066 1066 853
Width: 720
GlyphClass: 2
Flags: W
AnchorPoint: "Anchor-2" 326 700 basechar 0
AnchorPoint: "Anchor-0" 360 0 basechar 0
LayerCount: 2
Fore
SplineSet
568 452 m 1,0,-1
 252 452 l 1,1,-1
 252 98 l 1,2,-1
 568 98 l 1,3,-1
 568 452 l 1,0,-1
684 456 m 1,4,-1
 684 94 l 1,5,-1
 590 0 l 1,6,-1
 136 0 l 1,7,-1
 136 566 l 1,8,-1
 168 598 l 1,9,-1
 20 598 l 1,10,-1
 20 700 l 1,11,-1
 252 700 l 1,12,-1
 252 550 l 1,13,-1
 590 550 l 1,14,-1
 684 456 l 1,4,-1
EndSplineSet
EndChar

StartChar: uni042B
Encoding: 1067 1067 854
Width: 868
GlyphClass: 2
Flags: W
AnchorPoint: "Anchor-2" 434 700 basechar 0
AnchorPoint: "Anchor-0" 434 0 basechar 0
LayerCount: 2
Fore
SplineSet
488 452 m 1,0,-1
 172 452 l 1,1,-1
 172 98 l 1,2,-1
 488 98 l 1,3,-1
 488 452 l 1,0,-1
604 456 m 1,4,-1
 604 94 l 1,5,-1
 510 0 l 1,6,-1
 56 0 l 1,7,-1
 56 700 l 1,8,-1
 172 700 l 1,9,-1
 172 550 l 1,10,-1
 510 550 l 1,11,-1
 604 456 l 1,4,-1
696 0 m 1,12,-1
 696 700 l 1,13,-1
 812 700 l 1,14,-1
 812 0 l 1,15,-1
 696 0 l 1,12,-1
EndSplineSet
EndChar

StartChar: uni042C
Encoding: 1068 1068 855
Width: 640
GlyphClass: 2
Flags: W
AnchorPoint: "Anchor-2" 246 700 basechar 0
AnchorPoint: "Anchor-0" 320 0 basechar 0
LayerCount: 2
Fore
SplineSet
488 452 m 1,0,-1
 172 452 l 1,1,-1
 172 98 l 1,2,-1
 488 98 l 1,3,-1
 488 452 l 1,0,-1
604 456 m 1,4,-1
 604 94 l 1,5,-1
 510 0 l 1,6,-1
 56 0 l 1,7,-1
 56 700 l 1,8,-1
 172 700 l 1,9,-1
 172 550 l 1,10,-1
 510 550 l 1,11,-1
 604 456 l 1,4,-1
EndSplineSet
EndChar

StartChar: uni042D
Encoding: 1069 1069 856
Width: 602
GlyphClass: 2
Flags: W
AnchorPoint: "Anchor-2" 260 700 basechar 0
AnchorPoint: "Anchor-0" 260 0 basechar 0
LayerCount: 2
Fore
SplineSet
547 102 m 1,0,-1
 445 0 l 1,1,-1
 29 0 l 1,2,-1
 29 103 l 1,3,-1
 430 103 l 1,4,-1
 430 597 l 1,5,-1
 39 597 l 1,6,-1
 39 700 l 1,7,-1
 445 700 l 1,8,-1
 547 598 l 1,9,-1
 547 102 l 1,0,-1
487 301 m 1,10,-1
 147 301 l 1,11,-1
 147 399 l 1,12,-1
 487 399 l 1,13,-1
 487 301 l 1,10,-1
EndSplineSet
EndChar

StartChar: uni042E
Encoding: 1070 1070 857
Width: 954
GlyphClass: 2
Flags: W
AnchorPoint: "Anchor-2" 477 700 basechar 0
AnchorPoint: "Anchor-0" 477 0 basechar 0
LayerCount: 2
Fore
SplineSet
56 0 m 1,0,-1
 56 700 l 1,1,-1
 172 700 l 1,2,-1
 172 401 l 1,3,-1
 360 401 l 1,4,-1
 360 606 l 1,5,-1
 454 700 l 1,6,-1
 805 700 l 1,7,-1
 899 606 l 1,8,-1
 899 94 l 1,9,-1
 805 0 l 1,10,-1
 454 0 l 1,11,-1
 360 94 l 1,12,-1
 360 299 l 1,13,-1
 172 299 l 1,14,-1
 172 0 l 1,15,-1
 56 0 l 1,0,-1
475 596 m 1,16,-1
 475 104 l 1,17,-1
 783 104 l 1,18,-1
 783 596 l 1,19,-1
 475 596 l 1,16,-1
EndSplineSet
EndChar

StartChar: uni042F
Encoding: 1071 1071 858
Width: 652
GlyphClass: 2
Flags: W
AnchorPoint: "Anchor-2" 336 700 basechar 0
AnchorPoint: "Anchor-0" 320 0 basechar 0
LayerCount: 2
Fore
SplineSet
480 324 m 1,0,-1
 480 602 l 1,1,-1
 170 602 l 1,2,-1
 170 324 l 1,3,-1
 480 324 l 1,0,-1
54 606 m 1,4,-1
 148 700 l 1,5,-1
 596 700 l 1,6,-1
 596 0 l 1,7,-1
 480 0 l 1,8,-1
 480 226 l 1,9,-1
 236 226 l 1,10,-1
 131 0 l 1,11,-1
 4 0 l 1,12,-1
 126 250 l 1,13,-1
 54 322 l 1,14,-1
 54 606 l 1,4,-1
EndSplineSet
EndChar

StartChar: uni0431
Encoding: 1073 1073 860
Width: 620
GlyphClass: 1
Flags: W
LayerCount: 2
Fore
SplineSet
172 100 m 1,0,-1
 454 100 l 1,1,-1
 454 410 l 1,2,-1
 172 410 l 1,3,-1
 172 100 l 1,0,-1
156 0 m 1,4,-1
 56 100 l 1,5,-1
 56 602 l 1,6,-1
 154 700 l 1,7,-1
 552 700 l 1,8,-1
 552 602 l 1,9,-1
 172 602 l 1,10,-1
 172 504 l 1,11,-1
 488 504 l 1,12,-1
 570 422 l 1,13,-1
 570 100 l 1,14,-1
 470 0 l 1,15,-1
 156 0 l 1,4,-1
EndSplineSet
Substitution2: "'locl' +Vv0w+1cwV99W+mcJMG5bV19i in +MK0w6jDrZYdbVwAA lookup 8 +MLUw1jDGMPww1jDr" uni0431.loclSRB
EndChar

StartChar: uni0432
Encoding: 1074 1074 861
Width: 610
GlyphClass: 2
Flags: W
AnchorPoint: "Anchor-2" 305 560 basechar 0
AnchorPoint: "Anchor-0" 305 0 basechar 0
LayerCount: 2
Fore
SplineSet
56 560 m 1,0,-1
 56 0 l 1,1,-1
 484 0 l 1,2,-1
 566 82 l 1,3,-1
 566 232 l 1,4,-1
 489 293 l 1,5,-1
 546 336 l 1,6,-1
 546 478 l 1,7,-1
 464 560 l 1,8,-1
 56 560 l 1,0,-1
171 330 m 1,9,-1
 171 466 l 1,10,-1
 432 466 l 1,11,-1
 432 330 l 1,12,-1
 171 330 l 1,9,-1
171 94 m 1,13,-1
 171 240 l 1,14,-1
 450 240 l 1,15,-1
 450 94 l 1,16,-1
 171 94 l 1,13,-1
EndSplineSet
Substitution2: "'locl' +Vv0w+1cwV99W+mcJMG5bV19i in +MK0w6jDrZYdbVwAA lookup 7 +MLUw1jDGMPww1jDr" uni0432.loclBGR
EndChar

StartChar: uni0433
Encoding: 1075 1075 862
Width: 470
GlyphClass: 2
Flags: W
AnchorPoint: "Anchor-2" 258 560 basechar 0
AnchorPoint: "Anchor-0" 176 0 basechar 0
LayerCount: 2
Fore
SplineSet
56 0 m 1,0,-1
 56 560 l 1,1,-1
 450 560 l 1,2,-1
 450 456 l 1,3,-1
 172 456 l 1,4,-1
 172 0 l 1,5,-1
 56 0 l 1,0,-1
EndSplineSet
Substitution2: "'locl' +Vv0w+1cwV99W+mcJMG5bV19i in +MK0w6jDrZYdbVwAA lookup 7 +MLUw1jDGMPww1jDr" uni0433.loclBGR
EndChar

StartChar: uni0436
Encoding: 1078 1078 865
Width: 948
GlyphClass: 2
Flags: W
AnchorPoint: "Anchor-2" 474 560 basechar 0
AnchorPoint: "Anchor-0" 474 0 basechar 0
LayerCount: 2
Fore
SplineSet
532 0 m 1,0,-1
 416 0 l 1,1,-1
 416 241 l 1,2,-1
 274 241 l 1,3,-1
 139 0 l 1,4,-1
 8 0 l 1,5,-1
 184 302 l 1,6,-1
 17 560 l 1,7,-1
 149 560 l 1,8,-1
 281 341 l 1,9,-1
 416 341 l 1,10,-1
 416 560 l 1,11,-1
 532 560 l 1,12,-1
 532 341 l 1,13,-1
 667 341 l 1,14,-1
 799 560 l 1,15,-1
 931 560 l 1,16,-1
 764 302 l 1,17,-1
 940 0 l 1,18,-1
 809 0 l 1,19,-1
 674 241 l 1,20,-1
 532 241 l 1,21,-1
 532 0 l 1,0,-1
EndSplineSet
Substitution2: "'locl' +Vv0w+1cwV99W+mcJMG5bV19i in +MK0w6jDrZYdbVwAA lookup 7 +MLUw1jDGMPww1jDr" uni0436.loclBGR
EndChar

StartChar: uni0437
Encoding: 1079 1079 866
Width: 588
GlyphClass: 2
Flags: W
AnchorPoint: "Anchor-2" 243 560 basechar 0
AnchorPoint: "Anchor-0" 243 0 basechar 0
LayerCount: 2
Fore
SplineSet
540 84 m 1,0,-1
 456 0 l 1,1,-1
 34 0 l 1,2,-1
 34 98 l 1,3,-1
 422 98 l 1,4,-1
 422 240 l 1,5,-1
 82 240 l 1,6,-1
 82 330 l 1,7,-1
 402 330 l 1,8,-1
 402 462 l 1,9,-1
 44 462 l 1,10,-1
 44 560 l 1,11,-1
 436 560 l 1,12,-1
 520 476 l 1,13,-1
 520 338 l 1,14,-1
 461 293 l 1,15,-1
 540 231 l 1,16,-1
 540 84 l 1,0,-1
EndSplineSet
Substitution2: "'locl' +Vv0w+1cwV99W+mcJMG5bV19i in +MK0w6jDrZYdbVwAA lookup 7 +MLUw1jDGMPww1jDr" uni0437.loclBGR
EndChar

StartChar: uni0438
Encoding: 1080 1080 867
Width: 652
GlyphClass: 2
Flags: W
AnchorPoint: "Anchor-2" 326 560 basechar 0
AnchorPoint: "Anchor-0" 326 0 basechar 0
LayerCount: 2
Fore
SplineSet
596 0 m 1,0,-1
 481 0 l 1,1,-1
 481 429 l 1,2,-1
 190 0 l 1,3,-1
 56 0 l 1,4,-1
 56 560 l 1,5,-1
 171 560 l 1,6,-1
 171 129 l 1,7,-1
 462 560 l 1,8,-1
 596 560 l 1,9,-1
 596 0 l 1,0,-1
EndSplineSet
Substitution2: "'locl' +Vv0w+1cwV99W+mcJMG5bV19i in +MK0w6jDrZYdbVwAA lookup 7 +MLUw1jDGMPww1jDr" uni0438.loclBGR
EndChar

StartChar: uni043B
Encoding: 1083 1083 870
Width: 620
GlyphClass: 2
Flags: W
AnchorPoint: "Anchor-2" 310 560 basechar 0
AnchorPoint: "Anchor-0" 310 0 basechar 0
LayerCount: 2
Fore
SplineSet
564 560 m 1,0,-1
 564 0 l 1,1,-1
 448 0 l 1,2,-1
 448 463 l 1,3,-1
 260 463 l 1,4,-1
 180 0 l 1,5,-1
 15 0 l 1,6,-1
 15 104 l 1,7,-1
 83 104 l 1,8,-1
 162 560 l 1,9,-1
 564 560 l 1,0,-1
EndSplineSet
Substitution2: "'locl' +Vv0w+1cwV99W+mcJMG5bV19i in +MK0w6jDrZYdbVwAA lookup 7 +MLUw1jDGMPww1jDr" uni043B.loclBGR
EndChar

StartChar: uni043C
Encoding: 1084 1084 871
Width: 718
GlyphClass: 2
Flags: W
AnchorPoint: "Anchor-2" 359 560 basechar 0
AnchorPoint: "Anchor-0" 359 0 basechar 0
LayerCount: 2
Fore
SplineSet
56 0 m 1,0,-1
 56 560 l 1,1,-1
 194 560 l 1,2,-1
 359 288 l 1,3,-1
 524 560 l 1,4,-1
 662 560 l 1,5,-1
 662 0 l 1,6,-1
 551 0 l 1,7,-1
 551 431 l 1,8,-1
 391 162 l 1,9,-1
 327 162 l 1,10,-1
 166 431 l 1,11,-1
 166 0 l 1,12,-1
 56 0 l 1,0,-1
EndSplineSet
EndChar

StartChar: uni043D
Encoding: 1085 1085 872
Width: 622
GlyphClass: 2
Flags: W
AnchorPoint: "Anchor-2" 311 560 basechar 0
AnchorPoint: "Anchor-0" 311 0 basechar 0
LayerCount: 2
Fore
SplineSet
56 0 m 1,0,-1
 56 560 l 1,1,-1
 172 560 l 1,2,-1
 172 331 l 1,3,-1
 450 331 l 1,4,-1
 450 560 l 1,5,-1
 566 560 l 1,6,-1
 566 0 l 1,7,-1
 450 0 l 1,8,-1
 450 230 l 1,9,-1
 172 230 l 1,10,-1
 172 0 l 1,11,-1
 56 0 l 1,0,-1
EndSplineSet
EndChar

StartChar: uni0442
Encoding: 1090 1090 877
Width: 560
GlyphClass: 2
Flags: W
AnchorPoint: "Anchor-2" 280 560 basechar 0
AnchorPoint: "Anchor-0" 280 0 basechar 0
LayerCount: 2
Fore
SplineSet
338 0 m 1,0,-1
 338 458 l 1,1,-1
 540 458 l 1,2,-1
 540 560 l 1,3,-1
 20 560 l 1,4,-1
 20 458 l 1,5,-1
 222 458 l 1,6,-1
 222 0 l 1,7,-1
 338 0 l 1,0,-1
EndSplineSet
Substitution2: "'locl' +Vv0w+1cwV99W+mcJMG5bV19i in +MK0w6jDrZYdbVwAA lookup 7 +MLUw1jDGMPww1jDr" uni0442.loclBGR
EndChar

StartChar: uni0446
Encoding: 1094 1094 881
Width: 644
GlyphClass: 2
Flags: W
AnchorPoint: "Anchor-2" 321 0 basechar 0
AnchorPoint: "Anchor-0" 321 560 basechar 0
LayerCount: 2
Fore
SplineSet
564 560 m 1,0,-1
 564 102 l 1,1,-1
 634 102 l 1,2,-1
 634 -140 l 1,3,-1
 530 -140 l 1,4,-1
 530 0 l 1,5,-1
 56 0 l 1,6,-1
 56 560 l 1,7,-1
 172 560 l 1,8,-1
 172 102 l 1,9,-1
 448 102 l 1,10,-1
 448 560 l 1,11,-1
 564 560 l 1,0,-1
EndSplineSet
Substitution2: "'locl' +Vv0w+1cwV99W+mcJMG5bV19i in +MK0w6jDrZYdbVwAA lookup 7 +MLUw1jDGMPww1jDr" uni0446.loclBGR
EndChar

StartChar: uni0447
Encoding: 1095 1095 882
Width: 614
GlyphClass: 2
Flags: W
AnchorPoint: "Anchor-2" 304 560 basechar 0
AnchorPoint: "Anchor-0" 370 0 basechar 0
LayerCount: 2
Fore
SplineSet
558 560 m 1,0,-1
 558 0 l 1,1,-1
 442 0 l 1,2,-1
 442 136 l 1,3,-1
 150 136 l 1,4,-1
 50 236 l 1,5,-1
 50 560 l 1,6,-1
 166 560 l 1,7,-1
 166 236 l 1,8,-1
 442 236 l 1,9,-1
 442 560 l 1,10,-1
 558 560 l 1,0,-1
EndSplineSet
EndChar

StartChar: uni0448
Encoding: 1096 1096 883
Width: 900
GlyphClass: 1
Flags: W
LayerCount: 2
Fore
SplineSet
508 560 m 1,0,-1
 508 102 l 1,1,-1
 728 102 l 1,2,-1
 728 560 l 1,3,-1
 844 560 l 1,4,-1
 844 0 l 1,5,-1
 56 0 l 1,6,-1
 56 560 l 1,7,-1
 172 560 l 1,8,-1
 172 102 l 1,9,-1
 392 102 l 1,10,-1
 392 560 l 1,11,-1
 508 560 l 1,0,-1
EndSplineSet
Substitution2: "'locl' +Vv0w+1cwV99W+mcJMG5bV19i in +MK0w6jDrZYdbVwAA lookup 7 +MLUw1jDGMPww1jDr" uni0448.loclBGR
EndChar

StartChar: uni0449
Encoding: 1097 1097 884
Width: 920
GlyphClass: 1
Flags: W
LayerCount: 2
Fore
SplineSet
508 560 m 1,0,-1
 508 102 l 1,1,-1
 728 102 l 1,2,-1
 728 560 l 1,3,-1
 844 560 l 1,4,-1
 844 102 l 1,5,-1
 910 102 l 1,6,-1
 910 -140 l 1,7,-1
 806 -140 l 1,8,-1
 806 0 l 1,9,-1
 56 0 l 1,10,-1
 56 560 l 1,11,-1
 172 560 l 1,12,-1
 172 102 l 1,13,-1
 392 102 l 1,14,-1
 392 560 l 1,15,-1
 508 560 l 1,0,-1
EndSplineSet
Substitution2: "'locl' +Vv0w+1cwV99W+mcJMG5bV19i in +MK0w6jDrZYdbVwAA lookup 7 +MLUw1jDGMPww1jDr" uni0449.loclBGR
EndChar

StartChar: uni044A
Encoding: 1098 1098 885
Width: 692
GlyphClass: 2
Flags: W
AnchorPoint: "Anchor-2" 300 560 basechar 0
AnchorPoint: "Anchor-0" 300 0 basechar 0
LayerCount: 2
Fore
SplineSet
128 0 m 1,0,-1
 128 424 l 1,1,-1
 164 460 l 1,2,-1
 10 460 l 1,3,-1
 10 560 l 1,4,-1
 244 560 l 1,5,-1
 244 424 l 1,6,-1
 544 424 l 1,7,-1
 642 326 l 1,8,-1
 642 98 l 1,9,-1
 544 0 l 1,10,-1
 128 0 l 1,0,-1
244 98 m 1,11,-1
 526 98 l 1,12,-1
 526 326 l 1,13,-1
 244 326 l 1,14,-1
 244 98 l 1,11,-1
EndSplineSet
Substitution2: "'locl' +Vv0w+1cwV99W+mcJMG5bV19i in +MK0w6jDrZYdbVwAA lookup 7 +MLUw1jDGMPww1jDr" uni044A.loclBGR
EndChar

StartChar: uni044B
Encoding: 1099 1099 886
Width: 848
GlyphClass: 2
Flags: W
AnchorPoint: "Anchor-2" 424 560 basechar 0
AnchorPoint: "Anchor-0" 424 0 basechar 0
LayerCount: 2
Fore
SplineSet
56 0 m 1,0,-1
 56 560 l 1,1,-1
 172 560 l 1,2,-1
 172 424 l 1,3,-1
 472 424 l 1,4,-1
 570 326 l 1,5,-1
 570 98 l 1,6,-1
 472 0 l 1,7,-1
 56 0 l 1,0,-1
172 98 m 1,8,-1
 454 98 l 1,9,-1
 454 326 l 1,10,-1
 172 326 l 1,11,-1
 172 98 l 1,8,-1
676 0 m 1,12,-1
 676 560 l 1,13,-1
 792 560 l 1,14,-1
 792 0 l 1,15,-1
 676 0 l 1,12,-1
EndSplineSet
EndChar

StartChar: uni044C
Encoding: 1100 1100 887
Width: 610
GlyphClass: 2
Flags: W
AnchorPoint: "Anchor-2" 228 560 basechar 0
AnchorPoint: "Anchor-0" 228 0 basechar 0
LayerCount: 2
Fore
SplineSet
56 0 m 1,0,-1
 56 560 l 1,1,-1
 172 560 l 1,2,-1
 172 424 l 1,3,-1
 472 424 l 1,4,-1
 570 326 l 1,5,-1
 570 98 l 1,6,-1
 472 0 l 1,7,-1
 56 0 l 1,0,-1
172 98 m 1,8,-1
 454 98 l 1,9,-1
 454 326 l 1,10,-1
 172 326 l 1,11,-1
 172 98 l 1,8,-1
EndSplineSet
Substitution2: "'locl' +Vv0w+1cwV99W+mcJMG5bV19i in +MK0w6jDrZYdbVwAA lookup 7 +MLUw1jDGMPww1jDr" uni044C.loclBGR
EndChar

StartChar: uni044D
Encoding: 1101 1101 888
Width: 562
GlyphClass: 2
Flags: W
AnchorPoint: "Anchor-2" 252 560 basechar 0
AnchorPoint: "Anchor-1" 128 0 basechar 0
AnchorPoint: "Anchor-0" 252 0 basechar 0
LayerCount: 2
Fore
SplineSet
414 0 m 1,0,-1
 34 0 l 1,1,-1
 34 98 l 1,2,-1
 396 98 l 1,3,-1
 396 245 l 1,4,-1
 56 245 l 1,5,-1
 56 331 l 1,6,-1
 396 331 l 1,7,-1
 396 462 l 1,8,-1
 34 462 l 1,9,-1
 34 560 l 1,10,-1
 414 560 l 1,11,-1
 512 462 l 1,12,-1
 512 98 l 1,13,-1
 414 0 l 1,0,-1
EndSplineSet
EndChar

StartChar: uni044E
Encoding: 1102 1102 889
Width: 828
GlyphClass: 2
Flags: W
AnchorPoint: "Anchor-2" 414 560 basechar 0
AnchorPoint: "Anchor-0" 414 0 basechar 0
LayerCount: 2
Fore
SplineSet
56 0 m 1,0,-1
 56 560 l 1,1,-1
 172 560 l 1,2,-1
 172 329 l 1,3,-1
 278 329 l 1,4,-1
 278 462 l 1,5,-1
 376 560 l 1,6,-1
 680 560 l 1,7,-1
 778 462 l 1,8,-1
 778 98 l 1,9,-1
 680 0 l 1,10,-1
 376 0 l 1,11,-1
 278 98 l 1,12,-1
 278 231 l 1,13,-1
 172 231 l 1,14,-1
 172 0 l 1,15,-1
 56 0 l 1,0,-1
394 98 m 1,16,-1
 662 98 l 1,17,-1
 662 462 l 1,18,-1
 394 462 l 1,19,-1
 394 98 l 1,16,-1
EndSplineSet
Substitution2: "'locl' +Vv0w+1cwV99W+mcJMG5bV19i in +MK0w6jDrZYdbVwAA lookup 7 +MLUw1jDGMPww1jDr" uni044E.loclBGR
EndChar

StartChar: uni044F
Encoding: 1103 1103 890
Width: 606
GlyphClass: 2
Flags: W
AnchorPoint: "Anchor-2" 324 560 basechar 0
AnchorPoint: "Anchor-0" 308 0 basechar 0
LayerCount: 2
Fore
SplineSet
176 266 m 1,0,-1
 434 266 l 1,1,-1
 434 462 l 1,2,-1
 176 462 l 1,3,-1
 176 266 l 1,0,-1
60 248 m 1,4,-1
 60 472 l 1,5,-1
 148 560 l 1,6,-1
 550 560 l 1,7,-1
 550 0 l 1,8,-1
 434 0 l 1,9,-1
 434 170 l 1,10,-1
 223 170 l 1,11,-1
 141 0 l 1,12,-1
 14 0 l 1,13,-1
 118 190 l 1,14,-1
 60 248 l 1,4,-1
EndSplineSet
EndChar

StartChar: uni0490
Encoding: 1168 1168 901
Width: 510
GlyphClass: 2
Flags: W
AnchorPoint: "Anchor-2" 255 790 basechar 0
AnchorPoint: "Anchor-0" 255 0 basechar 0
LayerCount: 2
Fore
SplineSet
56 0 m 1,0,-1
 56 700 l 1,1,-1
 388 700 l 1,2,-1
 388 806 l 1,3,-1
 500 806 l 1,4,-1
 500 596 l 1,5,-1
 172 596 l 1,6,-1
 172 0 l 1,7,-1
 56 0 l 1,0,-1
EndSplineSet
EndChar

StartChar: uni0491
Encoding: 1169 1169 902
Width: 470
GlyphClass: 2
Flags: W
AnchorPoint: "Anchor-2" 344 650 basechar 0
AnchorPoint: "Anchor-0" 176 0 basechar 0
LayerCount: 2
Fore
SplineSet
56 0 m 1,0,-1
 56 560 l 1,1,-1
 346 560 l 1,2,-1
 346 682 l 1,3,-1
 450 682 l 1,4,-1
 450 456 l 1,5,-1
 172 456 l 1,6,-1
 172 0 l 1,7,-1
 56 0 l 1,0,-1
EndSplineSet
EndChar

StartChar: uni0492
Encoding: 1170 1170 903
Width: 510
GlyphClass: 2
Flags: W
AnchorPoint: "Anchor-2" 255 700 basechar 0
AnchorPoint: "Anchor-0" 255 0 basechar 0
LayerCount: 2
Fore
SplineSet
80 287 m 1,0,-1
 80 378 l 1,1,-1
 384 378 l 1,2,-1
 384 287 l 1,3,-1
 80 287 l 1,0,-1
56 0 m 1,4,-1
 56 700 l 1,5,-1
 500 700 l 1,6,-1
 500 596 l 1,7,-1
 172 596 l 1,8,-1
 172 0 l 1,9,-1
 56 0 l 1,4,-1
EndSplineSet
EndChar

StartChar: uni0493
Encoding: 1171 1171 904
Width: 470
GlyphClass: 1
Flags: W
LayerCount: 2
Fore
SplineSet
9 207 m 1,0,-1
 9 298 l 1,1,-1
 313 298 l 1,2,-1
 313 207 l 1,3,-1
 9 207 l 1,0,-1
56 0 m 1,4,-1
 56 560 l 1,5,-1
 450 560 l 1,6,-1
 450 456 l 1,7,-1
 172 456 l 1,8,-1
 172 0 l 1,9,-1
 56 0 l 1,4,-1
EndSplineSet
EndChar

StartChar: uni0494
Encoding: 1172 1172 905
Width: 642
GlyphClass: 2
Flags: W
AnchorPoint: "Anchor-2" 321 700 basechar 0
AnchorPoint: "Anchor-0" 321 0 basechar 0
LayerCount: 2
Fore
SplineSet
56 0 m 1,0,-1
 56 700 l 1,1,-1
 576 700 l 1,2,-1
 576 600 l 1,3,-1
 174 600 l 1,4,-1
 174 414 l 1,5,-1
 500 414 l 1,6,-1
 592 322 l 1,7,-1
 592 -48 l 1,8,-1
 500 -140 l 1,9,-1
 290 -140 l 1,10,-1
 290 -40 l 1,11,-1
 476 -40 l 1,12,-1
 476 314 l 1,13,-1
 174 314 l 1,14,-1
 174 0 l 1,15,-1
 56 0 l 1,0,-1
EndSplineSet
EndChar

StartChar: uni0495
Encoding: 1173 1173 906
Width: 612
GlyphClass: 2
Flags: W
AnchorPoint: "Anchor-2" 306 560 basechar 0
AnchorPoint: "Anchor-0" 306 -140 basechar 0
LayerCount: 2
Fore
SplineSet
56 0 m 1,0,-1
 56 560 l 1,1,-1
 550 560 l 1,2,-1
 550 460 l 1,3,-1
 174 460 l 1,4,-1
 174 328 l 1,5,-1
 470 328 l 1,6,-1
 562 236 l 1,7,-1
 562 -48 l 1,8,-1
 470 -140 l 1,9,-1
 274 -140 l 1,10,-1
 274 -40 l 1,11,-1
 450 -40 l 1,12,-1
 450 232 l 1,13,-1
 174 232 l 1,14,-1
 174 0 l 1,15,-1
 56 0 l 1,0,-1
EndSplineSet
EndChar

StartChar: uni04F6
Encoding: 1270 1270 907
Width: 510
GlyphClass: 2
Flags: W
AnchorPoint: "Anchor-2" 255 700 basechar 0
AnchorPoint: "Anchor-0" 255 0 basechar 0
LayerCount: 2
Fore
SplineSet
56 0 m 1,0,-1
 56 700 l 1,1,-1
 500 700 l 1,2,-1
 500 596 l 1,3,-1
 172 596 l 1,4,-1
 172 102 l 1,5,-1
 240 102 l 1,6,-1
 240 -140 l 1,7,-1
 136 -140 l 1,8,-1
 136 0 l 1,9,-1
 56 0 l 1,0,-1
EndSplineSet
EndChar

StartChar: uni04F7
Encoding: 1271 1271 908
Width: 470
GlyphClass: 2
Flags: W
AnchorPoint: "Anchor-2" 258 560 basechar 0
AnchorPoint: "Anchor-0" 176 0 basechar 0
LayerCount: 2
Fore
SplineSet
56 0 m 1,0,-1
 56 560 l 1,1,-1
 450 560 l 1,2,-1
 450 456 l 1,3,-1
 172 456 l 1,4,-1
 172 102 l 1,5,-1
 240 102 l 1,6,-1
 240 -140 l 1,7,-1
 136 -140 l 1,8,-1
 136 0 l 1,9,-1
 56 0 l 1,0,-1
EndSplineSet
EndChar

StartChar: uni0402
Encoding: 1026 1026 909
Width: 776
GlyphClass: 2
Flags: W
AnchorPoint: "Anchor-2" 388 700 basechar 0
AnchorPoint: "Anchor-0" 388 0 basechar 0
LayerCount: 2
Fore
SplineSet
218 0 m 1,0,-1
 218 600 l 1,1,-1
 20 600 l 1,2,-1
 20 700 l 1,3,-1
 616 700 l 1,4,-1
 616 600 l 1,5,-1
 334 600 l 1,6,-1
 334 424 l 1,7,-1
 628 424 l 1,8,-1
 726 326 l 1,9,-1
 726 98 l 1,10,-1
 628 0 l 1,11,-1
 486 0 l 1,12,-1
 486 98 l 1,13,-1
 610 98 l 1,14,-1
 610 326 l 1,15,-1
 334 326 l 1,16,-1
 334 0 l 1,17,-1
 218 0 l 1,0,-1
EndSplineSet
EndChar

StartChar: uni0452
Encoding: 1106 1106 910
Width: 620
GlyphClass: 2
Flags: W
AnchorPoint: "Anchor-2" 302 700 basechar 0
AnchorPoint: "Anchor-0" 310 -160 basechar 0
LayerCount: 2
Fore
SplineSet
56 0 m 1,0,-1
 56 700 l 1,1,-1
 172 700 l 1,2,-1
 172 624 l 1,3,-1
 429 624 l 1,4,-1
 429 553 l 1,5,-1
 172 553 l 1,6,-1
 172 486 l 1,7,-1
 464 486 l 1,8,-1
 564 386 l 1,9,-1
 564 -68 l 1,10,-1
 472 -160 l 1,11,-1
 358 -160 l 1,12,-1
 358 -66 l 1,13,-1
 448 -66 l 1,14,-1
 448 386 l 1,15,-1
 172 386 l 1,16,-1
 172 0 l 1,17,-1
 56 0 l 1,0,-1
EndSplineSet
EndChar

StartChar: uni0498
Encoding: 1176 1176 911
Width: 614
GlyphClass: 1
Flags: W
LayerCount: 2
Fore
SplineSet
486 0 m 1,0,-1
 334 0 l 1,1,-1
 334 -140 l 1,2,-1
 230 -140 l 1,3,-1
 230 0 l 1,4,-1
 30 0 l 1,5,-1
 30 100 l 1,6,-1
 461 100 l 1,7,-1
 461 310 l 1,8,-1
 90 310 l 1,9,-1
 90 408 l 1,10,-1
 441 408 l 1,11,-1
 441 600 l 1,12,-1
 40 600 l 1,13,-1
 40 700 l 1,14,-1
 466 700 l 1,15,-1
 558 608 l 1,16,-1
 558 411 l 1,17,-1
 499 366 l 1,18,-1
 578 304 l 1,19,-1
 578 92 l 1,20,-1
 486 0 l 1,0,-1
EndSplineSet
EndChar

StartChar: uni0499
Encoding: 1177 1177 912
Width: 588
GlyphClass: 2
Flags: W
AnchorPoint: "Anchor-2" 243 560 basechar 0
AnchorPoint: "Anchor-0" 243 0 basechar 0
LayerCount: 2
Fore
SplineSet
540 84 m 1,0,-1
 456 0 l 1,1,-1
 339 0 l 1,2,-1
 339 -140 l 1,3,-1
 235 -140 l 1,4,-1
 235 0 l 1,5,-1
 34 0 l 1,6,-1
 34 98 l 1,7,-1
 422 98 l 1,8,-1
 422 240 l 1,9,-1
 82 240 l 1,10,-1
 82 330 l 1,11,-1
 402 330 l 1,12,-1
 402 462 l 1,13,-1
 44 462 l 1,14,-1
 44 560 l 1,15,-1
 436 560 l 1,16,-1
 520 476 l 1,17,-1
 520 338 l 1,18,-1
 461 293 l 1,19,-1
 540 231 l 1,20,-1
 540 84 l 1,0,-1
EndSplineSet
EndChar

StartChar: uni0404
Encoding: 1028 1028 919
Width: 602
GlyphClass: 2
Flags: W
AnchorPoint: "Anchor-2" 342 700 basechar 0
AnchorPoint: "Anchor-0" 342 0 basechar 0
LayerCount: 2
Fore
SplineSet
55 102 m 1,0,-1
 55 598 l 1,1,-1
 157 700 l 1,2,-1
 563 700 l 1,3,-1
 563 597 l 1,4,-1
 172 597 l 1,5,-1
 172 103 l 1,6,-1
 573 103 l 1,7,-1
 573 0 l 1,8,-1
 157 0 l 1,9,-1
 55 102 l 1,0,-1
115 301 m 1,10,-1
 115 399 l 1,11,-1
 455 399 l 1,12,-1
 455 301 l 1,13,-1
 115 301 l 1,10,-1
EndSplineSet
EndChar

StartChar: uni0454
Encoding: 1108 1108 920
Width: 562
GlyphClass: 2
Flags: W
AnchorPoint: "Anchor-2" 310 560 basechar 0
AnchorPoint: "Anchor-1" 434 0 basechar 0
AnchorPoint: "Anchor-0" 310 0 basechar 0
LayerCount: 2
Fore
SplineSet
148 0 m 1,0,-1
 50 98 l 1,1,-1
 50 462 l 1,2,-1
 148 560 l 1,3,-1
 528 560 l 1,4,-1
 528 462 l 1,5,-1
 166 462 l 1,6,-1
 166 331 l 1,7,-1
 506 331 l 1,8,-1
 506 245 l 1,9,-1
 166 245 l 1,10,-1
 166 98 l 1,11,-1
 528 98 l 1,12,-1
 528 0 l 1,13,-1
 148 0 l 1,0,-1
EndSplineSet
EndChar

StartChar: uni0496
Encoding: 1174 1174 925
Width: 924
GlyphClass: 2
Flags: W
AnchorPoint: "Anchor-2" 462 700 basechar 0
AnchorPoint: "Anchor-0" 462 0 basechar 0
LayerCount: 2
Fore
SplineSet
510 0 m 1,0,-1
 394 0 l 1,1,-1
 394 304 l 1,2,-1
 274 304 l 1,3,-1
 133 0 l 1,4,-1
 0 0 l 1,5,-1
 178 370 l 1,6,-1
 15 700 l 1,7,-1
 146 700 l 1,8,-1
 285 406 l 1,9,-1
 394 406 l 1,10,-1
 394 700 l 1,11,-1
 510 700 l 1,12,-1
 510 406 l 1,13,-1
 619 406 l 1,14,-1
 758 700 l 1,15,-1
 889 700 l 1,16,-1
 726 370 l 1,17,-1
 858 102 l 1,18,-1
 914 102 l 1,19,-1
 914 -140 l 1,20,-1
 810 -140 l 1,21,-1
 810 0 l 1,22,-1
 771 0 l 1,23,-1
 630 304 l 1,24,-1
 510 304 l 1,25,-1
 510 0 l 1,0,-1
EndSplineSet
EndChar

StartChar: uni0497
Encoding: 1175 1175 926
Width: 968
GlyphClass: 2
Flags: W
AnchorPoint: "Anchor-2" 484 560 basechar 0
AnchorPoint: "Anchor-0" 484 0 basechar 0
LayerCount: 2
Fore
SplineSet
532 0 m 1,0,-1
 416 0 l 1,1,-1
 416 241 l 1,2,-1
 274 241 l 1,3,-1
 139 0 l 1,4,-1
 8 0 l 1,5,-1
 184 302 l 1,6,-1
 17 560 l 1,7,-1
 149 560 l 1,8,-1
 281 341 l 1,9,-1
 416 341 l 1,10,-1
 416 560 l 1,11,-1
 532 560 l 1,12,-1
 532 341 l 1,13,-1
 667 341 l 1,14,-1
 799 560 l 1,15,-1
 931 560 l 1,16,-1
 764 302 l 1,17,-1
 883 102 l 1,18,-1
 958 102 l 1,19,-1
 958 -140 l 1,20,-1
 854 -140 l 1,21,-1
 854 0 l 1,22,-1
 809 0 l 1,23,-1
 674 241 l 1,24,-1
 532 241 l 1,25,-1
 532 0 l 1,0,-1
EndSplineSet
EndChar

StartChar: uni049A
Encoding: 1178 1178 945
Width: 670
GlyphClass: 2
Flags: W
AnchorPoint: "Anchor-2" 328 700 basechar 0
AnchorPoint: "Anchor-0" 328 0 basechar 0
LayerCount: 2
Fore
SplineSet
56 0 m 1,0,-1
 56 700 l 1,1,-1
 172 700 l 1,2,-1
 172 406 l 1,3,-1
 361 406 l 1,4,-1
 504 700 l 1,5,-1
 635 700 l 1,6,-1
 468 370 l 1,7,-1
 602 102 l 1,8,-1
 660 102 l 1,9,-1
 660 -140 l 1,10,-1
 556 -140 l 1,11,-1
 556 0 l 1,12,-1
 517 0 l 1,13,-1
 372 304 l 1,14,-1
 172 304 l 1,15,-1
 172 0 l 1,16,-1
 56 0 l 1,0,-1
EndSplineSet
EndChar

StartChar: uni049B
Encoding: 1179 1179 946
Width: 640
GlyphClass: 2
Flags: W
AnchorPoint: "Anchor-2" 284 560 basechar 0
AnchorPoint: "Anchor-0" 326 0 basechar 0
LayerCount: 2
Fore
SplineSet
56 0 m 1,0,-1
 56 560 l 1,1,-1
 172 560 l 1,2,-1
 172 341 l 1,3,-1
 335 341 l 1,4,-1
 472 560 l 1,5,-1
 604 560 l 1,6,-1
 436 302 l 1,7,-1
 555 102 l 1,8,-1
 630 102 l 1,9,-1
 630 -140 l 1,10,-1
 526 -140 l 1,11,-1
 526 0 l 1,12,-1
 481 0 l 1,13,-1
 346 241 l 1,14,-1
 172 241 l 1,15,-1
 172 0 l 1,16,-1
 56 0 l 1,0,-1
EndSplineSet
EndChar

StartChar: uni04A0
Encoding: 1184 1184 947
Width: 753
GlyphClass: 2
Flags: W
AnchorPoint: "Anchor-2" 431 700 basechar 0
AnchorPoint: "Anchor-0" 431 0 basechar 0
LayerCount: 2
Fore
SplineSet
10 602 m 1,0,-1
 10 700 l 1,1,-1
 275 700 l 1,2,-1
 275 406 l 1,3,-1
 464 406 l 1,4,-1
 607 700 l 1,5,-1
 738 700 l 1,6,-1
 571 370 l 1,7,-1
 753 0 l 1,8,-1
 620 0 l 1,9,-1
 475 304 l 1,10,-1
 275 304 l 1,11,-1
 275 0 l 1,12,-1
 159 0 l 1,13,-1
 159 602 l 1,14,-1
 10 602 l 1,0,-1
EndSplineSet
EndChar

StartChar: uni04A1
Encoding: 1185 1185 948
Width: 731
GlyphClass: 2
Flags: W
AnchorPoint: "Anchor-2" 395 560 basechar 0
AnchorPoint: "Anchor-0" 437 0 basechar 0
LayerCount: 2
Fore
SplineSet
10 462 m 1,0,-1
 10 560 l 1,1,-1
 283 560 l 1,2,-1
 283 341 l 1,3,-1
 446 341 l 1,4,-1
 583 560 l 1,5,-1
 715 560 l 1,6,-1
 547 302 l 1,7,-1
 723 0 l 1,8,-1
 592 0 l 1,9,-1
 457 241 l 1,10,-1
 283 241 l 1,11,-1
 283 0 l 1,12,-1
 167 0 l 1,13,-1
 167 462 l 1,14,-1
 10 462 l 1,0,-1
EndSplineSet
EndChar

StartChar: uni049C
Encoding: 1180 1180 949
Width: 663
GlyphClass: 2
Flags: W
AnchorPoint: "Anchor-2" 330 700 basechar 0
AnchorPoint: "Anchor-0" 330 0 basechar 0
LayerCount: 2
Fore
SplineSet
56 0 m 1,0,-1
 56 700 l 1,1,-1
 172 700 l 1,2,-1
 172 406 l 1,3,-1
 377 406 l 1,4,-1
 513 700 l 1,5,-1
 643 700 l 1,6,-1
 482 370 l 1,7,-1
 658 0 l 1,8,-1
 526 0 l 1,9,-1
 388 304 l 1,10,-1
 172 304 l 1,11,-1
 172 0 l 1,12,-1
 56 0 l 1,0,-1
338 120 m 1,13,-1
 262 120 l 1,14,-1
 262 590 l 1,15,-1
 338 590 l 1,16,-1
 338 120 l 1,13,-1
EndSplineSet
EndChar

StartChar: uni049D
Encoding: 1181 1181 950
Width: 630
GlyphClass: 2
Flags: W
AnchorPoint: "Anchor-2" 320 560 basechar 0
AnchorPoint: "Anchor-0" 317 0 basechar 0
LayerCount: 2
Fore
SplineSet
56 0 m 1,0,-1
 56 560 l 1,1,-1
 172 560 l 1,2,-1
 172 341 l 1,3,-1
 351 341 l 1,4,-1
 483 560 l 1,5,-1
 613 560 l 1,6,-1
 452 302 l 1,7,-1
 622 0 l 1,8,-1
 491 0 l 1,9,-1
 361 241 l 1,10,-1
 172 241 l 1,11,-1
 172 0 l 1,12,-1
 56 0 l 1,0,-1
327 91 m 1,13,-1
 252 91 l 1,14,-1
 252 491 l 1,15,-1
 327 491 l 1,16,-1
 327 91 l 1,13,-1
EndSplineSet
EndChar

StartChar: uni0409
Encoding: 1033 1033 953
Width: 1028
GlyphClass: 2
Flags: W
AnchorPoint: "Anchor-2" 514 700 basechar 0
AnchorPoint: "Anchor-0" 514 0 basechar 0
LayerCount: 2
Fore
SplineSet
614 700 m 1,0,-1
 614 550 l 1,1,-1
 898 550 l 1,2,-1
 992 456 l 1,3,-1
 992 94 l 1,4,-1
 898 0 l 1,5,-1
 499 0 l 1,6,-1
 499 597 l 1,7,-1
 280 597 l 1,8,-1
 138 0 l 1,9,-1
 17 0 l 1,10,-1
 188 700 l 1,11,-1
 614 700 l 1,0,-1
876 452 m 1,12,-1
 614 452 l 1,13,-1
 614 98 l 1,14,-1
 876 98 l 1,15,-1
 876 452 l 1,12,-1
EndSplineSet
EndChar

StartChar: uni0459
Encoding: 1113 1113 954
Width: 966
GlyphClass: 2
Flags: W
AnchorPoint: "Anchor-2" 483 560 basechar 0
AnchorPoint: "Anchor-0" 483 0 basechar 0
LayerCount: 2
Fore
SplineSet
15 0 m 1,0,-1
 15 104 l 1,1,-1
 83 104 l 1,2,-1
 162 560 l 1,3,-1
 564 560 l 1,4,-1
 564 424 l 1,5,-1
 828 424 l 1,6,-1
 926 326 l 1,7,-1
 926 98 l 1,8,-1
 828 0 l 1,9,-1
 448 0 l 1,10,-1
 448 463 l 1,11,-1
 260 463 l 1,12,-1
 180 0 l 1,13,-1
 15 0 l 1,0,-1
564 98 m 1,14,-1
 810 98 l 1,15,-1
 810 326 l 1,16,-1
 564 326 l 1,17,-1
 564 98 l 1,14,-1
EndSplineSet
EndChar

StartChar: uni04A2
Encoding: 1186 1186 955
Width: 670
GlyphClass: 2
Flags: W
AnchorPoint: "Anchor-2" 335 700 basechar 0
AnchorPoint: "Anchor-0" 335 0 basechar 0
LayerCount: 2
Fore
SplineSet
56 0 m 1,0,-1
 56 700 l 1,1,-1
 172 700 l 1,2,-1
 172 412 l 1,3,-1
 478 412 l 1,4,-1
 478 700 l 1,5,-1
 594 700 l 1,6,-1
 594 102 l 1,7,-1
 660 102 l 1,8,-1
 660 -140 l 1,9,-1
 556 -140 l 1,10,-1
 556 0 l 1,11,-1
 478 0 l 1,12,-1
 478 308 l 1,13,-1
 172 308 l 1,14,-1
 172 0 l 1,15,-1
 56 0 l 1,0,-1
EndSplineSet
EndChar

StartChar: uni04A3
Encoding: 1187 1187 956
Width: 640
GlyphClass: 2
Flags: W
AnchorPoint: "Anchor-2" 320 560 basechar 0
AnchorPoint: "Anchor-0" 320 0 basechar 0
LayerCount: 2
Fore
SplineSet
56 0 m 1,0,-1
 56 560 l 1,1,-1
 172 560 l 1,2,-1
 172 334 l 1,3,-1
 448 334 l 1,4,-1
 448 560 l 1,5,-1
 564 560 l 1,6,-1
 564 102 l 1,7,-1
 630 102 l 1,8,-1
 630 -140 l 1,9,-1
 526 -140 l 1,10,-1
 526 0 l 1,11,-1
 448 0 l 1,12,-1
 448 230 l 1,13,-1
 172 230 l 1,14,-1
 172 0 l 1,15,-1
 56 0 l 1,0,-1
EndSplineSet
EndChar

StartChar: uni04A4
Encoding: 1188 1188 957
Width: 753
GlyphClass: 2
Flags: W
AnchorPoint: "Anchor-2" 376 700 basechar 0
AnchorPoint: "Anchor-0" 376 0 basechar 0
LayerCount: 2
Fore
SplineSet
56 0 m 1,0,-1
 56 700 l 1,1,-1
 172 700 l 1,2,-1
 172 412 l 1,3,-1
 478 412 l 1,4,-1
 478 700 l 1,5,-1
 743 700 l 1,6,-1
 743 602 l 1,7,-1
 594 602 l 1,8,-1
 594 0 l 1,9,-1
 478 0 l 1,10,-1
 478 308 l 1,11,-1
 172 308 l 1,12,-1
 172 0 l 1,13,-1
 56 0 l 1,0,-1
EndSplineSet
EndChar

StartChar: uni04A5
Encoding: 1189 1189 958
Width: 723
GlyphClass: 2
Flags: W
AnchorPoint: "Anchor-2" 361 560 basechar 0
AnchorPoint: "Anchor-0" 361 0 basechar 0
LayerCount: 2
Fore
SplineSet
56 0 m 1,0,-1
 56 560 l 1,1,-1
 172 560 l 1,2,-1
 172 334 l 1,3,-1
 448 334 l 1,4,-1
 448 560 l 1,5,-1
 713 560 l 1,6,-1
 713 462 l 1,7,-1
 564 462 l 1,8,-1
 564 0 l 1,9,-1
 448 0 l 1,10,-1
 448 230 l 1,11,-1
 172 230 l 1,12,-1
 172 0 l 1,13,-1
 56 0 l 1,0,-1
EndSplineSet
EndChar

StartChar: uni040A
Encoding: 1034 1034 959
Width: 1008
GlyphClass: 2
Flags: W
AnchorPoint: "Anchor-2" 504 700 basechar 0
AnchorPoint: "Anchor-0" 504 0 basechar 0
LayerCount: 2
Fore
SplineSet
56 0 m 1,0,-1
 56 700 l 1,1,-1
 172 700 l 1,2,-1
 172 412 l 1,3,-1
 478 412 l 1,4,-1
 478 700 l 1,5,-1
 594 700 l 1,6,-1
 594 550 l 1,7,-1
 878 550 l 1,8,-1
 972 456 l 1,9,-1
 972 94 l 1,10,-1
 878 0 l 1,11,-1
 478 0 l 1,12,-1
 478 308 l 1,13,-1
 172 308 l 1,14,-1
 172 0 l 1,15,-1
 56 0 l 1,0,-1
856 452 m 1,16,-1
 594 452 l 1,17,-1
 594 98 l 1,18,-1
 856 98 l 1,19,-1
 856 452 l 1,16,-1
EndSplineSet
EndChar

StartChar: uni045A
Encoding: 1114 1114 960
Width: 966
GlyphClass: 2
Flags: W
AnchorPoint: "Anchor-2" 483 560 basechar 0
AnchorPoint: "Anchor-0" 483 0 basechar 0
LayerCount: 2
Fore
SplineSet
448 0 m 1,0,-1
 448 230 l 1,1,-1
 172 230 l 1,2,-1
 172 0 l 1,3,-1
 56 0 l 1,4,-1
 56 560 l 1,5,-1
 172 560 l 1,6,-1
 172 334 l 1,7,-1
 448 334 l 1,8,-1
 448 560 l 1,9,-1
 564 560 l 1,10,-1
 564 424 l 1,11,-1
 828 424 l 1,12,-1
 926 326 l 1,13,-1
 926 98 l 1,14,-1
 828 0 l 1,15,-1
 448 0 l 1,0,-1
564 98 m 1,16,-1
 810 98 l 1,17,-1
 810 326 l 1,18,-1
 564 326 l 1,19,-1
 564 98 l 1,16,-1
EndSplineSet
EndChar

StartChar: uni04E9
Encoding: 1257 1257 964
Width: 592
GlyphClass: 2
Flags: W
AnchorPoint: "Anchor-2" 296 560 basechar 0
AnchorPoint: "Anchor-0" 296 0 basechar 0
LayerCount: 2
Fore
SplineSet
50 90 m 1,0,-1
 50 470 l 1,1,-1
 140 560 l 1,2,-1
 452 560 l 1,3,-1
 542 470 l 1,4,-1
 542 90 l 1,5,-1
 452 0 l 1,6,-1
 140 0 l 1,7,-1
 50 90 l 1,0,-1
165 468 m 1,8,-1
 165 328 l 1,9,-1
 427 328 l 1,10,-1
 427 468 l 1,11,-1
 165 468 l 1,8,-1
165 94 m 1,12,-1
 427 94 l 1,13,-1
 427 250 l 1,14,-1
 165 250 l 1,15,-1
 165 94 l 1,12,-1
EndSplineSet
EndChar

StartChar: uni04AA
Encoding: 1194 1194 965
Width: 550
GlyphClass: 2
Flags: W
AnchorPoint: "Anchor-2" 323 700 basechar 0
AnchorPoint: "Anchor-0" 323 0 basechar 0
LayerCount: 2
Fore
SplineSet
55 94 m 1,0,-1
 55 606 l 1,1,-1
 149 700 l 1,2,-1
 513 700 l 1,3,-1
 513 593 l 1,4,-1
 175 593 l 1,5,-1
 175 107 l 1,6,-1
 523 107 l 1,7,-1
 523 0 l 1,8,-1
 398 0 l 1,9,-1
 398 -140 l 1,10,-1
 294 -140 l 1,11,-1
 294 0 l 1,12,-1
 149 0 l 1,13,-1
 55 94 l 1,0,-1
EndSplineSet
Substitution2: "'ss03' +MLkwvzCkMOswuzDDMMgA-3 lookup 25 +MLUw1jDGMPww1jDr" uni04AA.ss03
Substitution2: "'ss02' +MLkwvzCkMOswuzDDMMgA-2 lookup 24 +MLUw1jDGMPww1jDr" uni04AA.ss02
EndChar

StartChar: uni04AB
Encoding: 1195 1195 966
Width: 540
GlyphClass: 2
Flags: W
AnchorPoint: "Anchor-2" 330 560 basechar 0
AnchorPoint: "Anchor-0" 330 0 basechar 0
LayerCount: 2
Fore
SplineSet
50 98 m 1,0,-1
 50 462 l 1,1,-1
 148 560 l 1,2,-1
 512 560 l 1,3,-1
 512 456 l 1,4,-1
 166 456 l 1,5,-1
 166 104 l 1,6,-1
 512 104 l 1,7,-1
 512 0 l 1,8,-1
 390 0 l 1,9,-1
 390 -140 l 1,10,-1
 286 -140 l 1,11,-1
 286 0 l 1,12,-1
 148 0 l 1,13,-1
 50 98 l 1,0,-1
EndSplineSet
EndChar

StartChar: uni040B
Encoding: 1035 1035 967
Width: 782
GlyphClass: 2
Flags: W
AnchorPoint: "Anchor-2" 391 700 basechar 0
AnchorPoint: "Anchor-0" 391 0 basechar 0
LayerCount: 2
Fore
SplineSet
218 0 m 1,0,-1
 218 600 l 1,1,-1
 20 600 l 1,2,-1
 20 700 l 1,3,-1
 616 700 l 1,4,-1
 616 600 l 1,5,-1
 334 600 l 1,6,-1
 334 424 l 1,7,-1
 626 424 l 1,8,-1
 726 324 l 1,9,-1
 726 0 l 1,10,-1
 610 0 l 1,11,-1
 610 324 l 1,12,-1
 334 324 l 1,13,-1
 334 0 l 1,14,-1
 218 0 l 1,0,-1
EndSplineSet
EndChar

StartChar: uni04B0
Encoding: 1200 1200 979
Width: 640
GlyphClass: 2
Flags: W
AnchorPoint: "Anchor-2" 320 700 basechar 0
AnchorPoint: "Anchor-0" 320 0 basechar 0
LayerCount: 2
Fore
SplineSet
262 0 m 1,0,-1
 262 186 l 1,1,-1
 182 186 l 1,2,-1
 21 700 l 1,3,-1
 144 700 l 1,4,-1
 259 284 l 1,5,-1
 381 284 l 1,6,-1
 496 700 l 1,7,-1
 619 700 l 1,8,-1
 458 186 l 1,9,-1
 378 186 l 1,10,-1
 378 0 l 1,11,-1
 262 0 l 1,0,-1
46 186 m 1,12,-1
 46 284 l 1,13,-1
 594 284 l 1,14,-1
 594 186 l 1,15,-1
 46 186 l 1,12,-1
EndSplineSet
EndChar

StartChar: uni04B1
Encoding: 1201 1201 980
Width: 580
GlyphClass: 2
Flags: W
AnchorPoint: "Anchor-2" 290 560 basechar 0
AnchorPoint: "Anchor-0" 290 -140 basechar 0
LayerCount: 2
Fore
SplineSet
30 30 m 1,0,-1
 30 129 l 1,1,-1
 182 129 l 1,2,-1
 10 560 l 1,3,-1
 128 560 l 1,4,-1
 284 129 l 1,5,-1
 297 129 l 1,6,-1
 453 560 l 1,7,-1
 570 560 l 1,8,-1
 398 129 l 1,9,-1
 550 129 l 1,10,-1
 550 30 l 1,11,-1
 350 30 l 1,12,-1
 350 -140 l 1,13,-1
 230 -140 l 1,14,-1
 230 30 l 1,15,-1
 30 30 l 1,0,-1
EndSplineSet
EndChar

StartChar: uni04B2
Encoding: 1202 1202 981
Width: 680
GlyphClass: 2
Flags: W
AnchorPoint: "Anchor-2" 340 700 basechar 0
AnchorPoint: "Anchor-0" 340 0 basechar 0
LayerCount: 2
Fore
SplineSet
16 0 m 1,0,-1
 188 370 l 1,1,-1
 31 700 l 1,2,-1
 156 700 l 1,3,-1
 287 412 l 1,4,-1
 373 412 l 1,5,-1
 504 700 l 1,6,-1
 629 700 l 1,7,-1
 472 370 l 1,8,-1
 598 102 l 1,9,-1
 670 102 l 1,10,-1
 670 -140 l 1,11,-1
 566 -140 l 1,12,-1
 566 0 l 1,13,-1
 518 0 l 1,14,-1
 382 308 l 1,15,-1
 278 308 l 1,16,-1
 142 0 l 1,17,-1
 16 0 l 1,0,-1
EndSplineSet
EndChar

StartChar: uni04B3
Encoding: 1203 1203 982
Width: 650
GlyphClass: 2
Flags: W
AnchorPoint: "Anchor-2" 325 560 basechar 0
AnchorPoint: "Anchor-0" 325 0 basechar 0
LayerCount: 2
Fore
SplineSet
22 0 m 1,0,-1
 174 298 l 1,1,-1
 35 560 l 1,2,-1
 165 560 l 1,3,-1
 273 338 l 1,4,-1
 357 338 l 1,5,-1
 465 560 l 1,6,-1
 595 560 l 1,7,-1
 456 298 l 1,8,-1
 558 102 l 1,9,-1
 640 102 l 1,10,-1
 640 -140 l 1,11,-1
 536 -140 l 1,12,-1
 536 0 l 1,13,-1
 478 0 l 1,14,-1
 366 238 l 1,15,-1
 264 238 l 1,16,-1
 152 0 l 1,17,-1
 22 0 l 1,0,-1
EndSplineSet
EndChar

StartChar: uni04BA
Encoding: 1210 1210 983
Width: 640
GlyphClass: 2
Flags: W
AnchorPoint: "Anchor-2" 320 0 basechar 0
AnchorPoint: "Anchor-0" 244 700 basechar 0
LayerCount: 2
Fore
SplineSet
56 0 m 1,0,-1
 56 700 l 1,1,-1
 172 700 l 1,2,-1
 172 560 l 1,3,-1
 484 560 l 1,4,-1
 584 460 l 1,5,-1
 584 0 l 1,6,-1
 468 0 l 1,7,-1
 468 460 l 1,8,-1
 172 460 l 1,9,-1
 172 0 l 1,10,-1
 56 0 l 1,0,-1
EndSplineSet
EndChar

StartChar: uni04B6
Encoding: 1206 1206 987
Width: 660
GlyphClass: 2
Flags: W
AnchorPoint: "Anchor-2" 320 700 basechar 0
AnchorPoint: "Anchor-0" 396 0 basechar 0
LayerCount: 2
Fore
SplineSet
584 700 m 1,0,-1
 584 102 l 1,1,-1
 650 102 l 1,2,-1
 650 -140 l 1,3,-1
 546 -140 l 1,4,-1
 546 0 l 1,5,-1
 468 0 l 1,6,-1
 468 140 l 1,7,-1
 156 140 l 1,8,-1
 56 240 l 1,9,-1
 56 700 l 1,10,-1
 172 700 l 1,11,-1
 172 240 l 1,12,-1
 468 240 l 1,13,-1
 468 700 l 1,14,-1
 584 700 l 1,0,-1
EndSplineSet
EndChar

StartChar: uni04B7
Encoding: 1207 1207 988
Width: 640
GlyphClass: 2
Flags: W
AnchorPoint: "Anchor-2" 310 560 basechar 0
AnchorPoint: "Anchor-0" 376 0 basechar 0
LayerCount: 2
Fore
SplineSet
564 560 m 1,0,-1
 564 102 l 1,1,-1
 630 102 l 1,2,-1
 630 -140 l 1,3,-1
 526 -140 l 1,4,-1
 526 0 l 1,5,-1
 448 0 l 1,6,-1
 448 136 l 1,7,-1
 156 136 l 1,8,-1
 56 236 l 1,9,-1
 56 560 l 1,10,-1
 172 560 l 1,11,-1
 172 236 l 1,12,-1
 448 236 l 1,13,-1
 448 560 l 1,14,-1
 564 560 l 1,0,-1
EndSplineSet
EndChar

StartChar: uni04CB
Encoding: 1227 1227 989
Width: 640
GlyphClass: 2
Flags: W
AnchorPoint: "Anchor-2" 320 700 basechar 0
AnchorPoint: "Anchor-0" 396 0 basechar 0
LayerCount: 2
Fore
SplineSet
584 700 m 1,0,-1
 584 0 l 1,1,-1
 468 0 l 1,2,-1
 468 184 l 1,3,-1
 156 184 l 1,4,-1
 56 284 l 1,5,-1
 56 700 l 1,6,-1
 172 700 l 1,7,-1
 172 284 l 1,8,-1
 468 284 l 1,9,-1
 468 700 l 1,10,-1
 584 700 l 1,0,-1
406 -140 m 1,11,-1
 406 94 l 1,12,-1
 510 94 l 1,13,-1
 510 -140 l 1,14,-1
 406 -140 l 1,11,-1
EndSplineSet
EndChar

StartChar: uni04CC
Encoding: 1228 1228 990
Width: 620
GlyphClass: 2
Flags: W
AnchorPoint: "Anchor-2" 310 560 basechar 0
AnchorPoint: "Anchor-0" 376 0 basechar 0
LayerCount: 2
Fore
SplineSet
564 560 m 1,0,-1
 564 0 l 1,1,-1
 448 0 l 1,2,-1
 448 184 l 1,3,-1
 156 184 l 1,4,-1
 56 284 l 1,5,-1
 56 560 l 1,6,-1
 172 560 l 1,7,-1
 172 284 l 1,8,-1
 448 284 l 1,9,-1
 448 560 l 1,10,-1
 564 560 l 1,0,-1
370 -140 m 1,11,-1
 370 94 l 1,12,-1
 474 94 l 1,13,-1
 474 -140 l 1,14,-1
 370 -140 l 1,11,-1
EndSplineSet
EndChar

StartChar: uni04B8
Encoding: 1208 1208 991
Width: 644
GlyphClass: 2
Flags: W
AnchorPoint: "Anchor-2" 324 700 basechar 0
AnchorPoint: "Anchor-0" 400 0 basechar 0
LayerCount: 2
Fore
SplineSet
588 700 m 1,0,-1
 588 0 l 1,1,-1
 472 0 l 1,2,-1
 472 140 l 1,3,-1
 156 140 l 1,4,-1
 56 240 l 1,5,-1
 56 700 l 1,6,-1
 172 700 l 1,7,-1
 172 240 l 1,8,-1
 472 240 l 1,9,-1
 472 700 l 1,10,-1
 588 700 l 1,0,-1
360 42 m 1,11,-1
 284 42 l 1,12,-1
 284 490 l 1,13,-1
 360 490 l 1,14,-1
 360 42 l 1,11,-1
EndSplineSet
EndChar

StartChar: uni04B9
Encoding: 1209 1209 992
Width: 624
GlyphClass: 2
Flags: W
AnchorPoint: "Anchor-2" 312 560 basechar 0
AnchorPoint: "Anchor-0" 378 0 basechar 0
LayerCount: 2
Fore
SplineSet
568 560 m 1,0,-1
 568 0 l 1,1,-1
 454 0 l 1,2,-1
 454 136 l 1,3,-1
 156 136 l 1,4,-1
 56 236 l 1,5,-1
 56 560 l 1,6,-1
 170 560 l 1,7,-1
 170 236 l 1,8,-1
 454 236 l 1,9,-1
 454 560 l 1,10,-1
 568 560 l 1,0,-1
350 42 m 1,11,-1
 274 42 l 1,12,-1
 274 432 l 1,13,-1
 350 432 l 1,14,-1
 350 42 l 1,11,-1
EndSplineSet
EndChar

StartChar: uni040F
Encoding: 1039 1039 993
Width: 650
GlyphClass: 2
Flags: W
AnchorPoint: "Anchor-2" 325 0 basechar 0
AnchorPoint: "Anchor-0" 325 700 basechar 0
LayerCount: 2
Fore
SplineSet
594 700 m 1,0,-1
 594 0 l 1,1,-1
 377 0 l 1,2,-1
 377 -140 l 1,3,-1
 273 -140 l 1,4,-1
 273 0 l 1,5,-1
 56 0 l 1,6,-1
 56 700 l 1,7,-1
 172 700 l 1,8,-1
 172 102 l 1,9,-1
 478 102 l 1,10,-1
 478 700 l 1,11,-1
 594 700 l 1,0,-1
EndSplineSet
EndChar

StartChar: uni045F
Encoding: 1119 1119 994
Width: 628
GlyphClass: 2
Flags: W
AnchorPoint: "Anchor-2" 314 0 basechar 0
AnchorPoint: "Anchor-0" 314 560 basechar 0
LayerCount: 2
Fore
SplineSet
568 560 m 1,0,-1
 568 0 l 1,1,-1
 366 0 l 1,2,-1
 366 -140 l 1,3,-1
 262 -140 l 1,4,-1
 262 0 l 1,5,-1
 60 0 l 1,6,-1
 60 560 l 1,7,-1
 176 560 l 1,8,-1
 176 102 l 1,9,-1
 452 102 l 1,10,-1
 452 560 l 1,11,-1
 568 560 l 1,0,-1
EndSplineSet
EndChar

StartChar: uni0462
Encoding: 1122 1122 997
Width: 644
GlyphClass: 2
Flags: W
AnchorPoint: "Anchor-2" 244 700 basechar 0
AnchorPoint: "Anchor-0" 310 0 basechar 0
LayerCount: 2
Fore
SplineSet
56 0 m 1,0,-1
 56 700 l 1,1,-1
 172 700 l 1,2,-1
 172 632 l 1,3,-1
 435 632 l 1,4,-1
 435 561 l 1,5,-1
 172 561 l 1,6,-1
 172 486 l 1,7,-1
 494 486 l 1,8,-1
 594 386 l 1,9,-1
 594 100 l 1,10,-1
 494 0 l 1,11,-1
 56 0 l 1,0,-1
172 98 m 1,12,-1
 478 98 l 1,13,-1
 478 388 l 1,14,-1
 172 388 l 1,15,-1
 172 98 l 1,12,-1
EndSplineSet
EndChar

StartChar: uni0463
Encoding: 1123 1123 998
Width: 614
GlyphClass: 2
Flags: W
AnchorPoint: "Anchor-2" 244 700 basechar 0
AnchorPoint: "Anchor-0" 310 0 basechar 0
LayerCount: 2
Fore
SplineSet
56 0 m 1,0,-1
 56 700 l 1,1,-1
 172 700 l 1,2,-1
 172 622 l 1,3,-1
 413 622 l 1,4,-1
 413 551 l 1,5,-1
 172 551 l 1,6,-1
 172 476 l 1,7,-1
 464 476 l 1,8,-1
 564 376 l 1,9,-1
 564 100 l 1,10,-1
 464 0 l 1,11,-1
 56 0 l 1,0,-1
172 98 m 1,12,-1
 448 98 l 1,13,-1
 448 378 l 1,14,-1
 172 378 l 1,15,-1
 172 98 l 1,12,-1
EndSplineSet
EndChar

StartChar: uni046A
Encoding: 1130 1130 999
Width: 850
GlyphClass: 2
Flags: W
AnchorPoint: "Anchor-2" 425 700 basechar 0
AnchorPoint: "Anchor-0" 425 0 basechar 0
LayerCount: 2
Fore
SplineSet
483 0 m 1,0,-1
 367 0 l 1,1,-1
 367 304 l 1,2,-1
 282 304 l 1,3,-1
 138 0 l 1,4,-1
 5 0 l 1,5,-1
 187 370 l 1,6,-1
 20 700 l 1,7,-1
 830 700 l 1,8,-1
 663 370 l 1,9,-1
 845 0 l 1,10,-1
 712 0 l 1,11,-1
 567 304 l 1,12,-1
 483 304 l 1,13,-1
 483 0 l 1,0,-1
294 402 m 1,14,-1
 556 402 l 1,15,-1
 656 602 l 1,16,-1
 194 602 l 1,17,-1
 294 402 l 1,14,-1
EndSplineSet
EndChar

StartChar: uni046B
Encoding: 1131 1131 1000
Width: 820
GlyphClass: 2
Flags: W
AnchorPoint: "Anchor-2" 410 560 basechar 0
AnchorPoint: "Anchor-0" 410 0 basechar 0
LayerCount: 2
Fore
SplineSet
466 0 m 1,0,-1
 354 0 l 1,1,-1
 354 201 l 1,2,-1
 268 201 l 1,3,-1
 139 0 l 1,4,-1
 8 0 l 1,5,-1
 184 262 l 1,6,-1
 17 560 l 1,7,-1
 803 560 l 1,8,-1
 636 262 l 1,9,-1
 812 0 l 1,10,-1
 681 0 l 1,11,-1
 552 201 l 1,12,-1
 466 201 l 1,13,-1
 466 0 l 1,0,-1
281 297 m 1,14,-1
 539 297 l 1,15,-1
 627 464 l 1,16,-1
 193 464 l 1,17,-1
 281 297 l 1,14,-1
EndSplineSet
EndChar

StartChar: uni0474
Encoding: 1140 1140 1003
Width: 739
GlyphClass: 2
Flags: W
AnchorPoint: "Anchor-2" 369 700 basechar 0
AnchorPoint: "Anchor-0" 369 0 basechar 0
LayerCount: 2
Fore
SplineSet
188 0 m 1,0,-1
 17 700 l 1,1,-1
 138 700 l 1,2,-1
 278 104 l 1,3,-1
 370 104 l 1,4,-1
 510 700 l 1,5,-1
 721 700 l 1,6,-1
 721 602 l 1,7,-1
 609 602 l 1,8,-1
 460 0 l 1,9,-1
 188 0 l 1,0,-1
EndSplineSet
EndChar

StartChar: uni0475
Encoding: 1141 1141 1004
Width: 683
GlyphClass: 2
Flags: W
AnchorPoint: "Anchor-2" 341 560 basechar 0
AnchorPoint: "Anchor-0" 341 0 basechar 0
LayerCount: 2
Fore
SplineSet
157 0 m 1,0,-1
 10 560 l 1,1,-1
 128 560 l 1,2,-1
 242 100 l 1,3,-1
 339 100 l 1,4,-1
 453 560 l 1,5,-1
 673 560 l 1,6,-1
 673 462 l 1,7,-1
 546 462 l 1,8,-1
 423 0 l 1,9,-1
 157 0 l 1,0,-1
EndSplineSet
EndChar

StartChar: uni0414.loclBGR
Encoding: 65586 -1 1009
Width: 720
GlyphClass: 1
Flags: W
LayerCount: 2
Fore
SplineSet
15 -140 m 1,0,-1
 15 102 l 1,1,-1
 76 102 l 1,2,-1
 227 700 l 1,3,-1
 493 700 l 1,4,-1
 644 102 l 1,5,-1
 705 102 l 1,6,-1
 705 -140 l 1,7,-1
 601 -140 l 1,8,-1
 601 0 l 1,9,-1
 119 0 l 1,10,-1
 119 -140 l 1,11,-1
 15 -140 l 1,0,-1
193 98 m 1,12,-1
 527 98 l 1,13,-1
 405 602 l 1,14,-1
 315 602 l 1,15,-1
 193 98 l 1,12,-1
EndSplineSet
EndChar

StartChar: uni0424.loclBGR
Encoding: 65588 -1 1011
Width: 814
GlyphClass: 2
Flags: W
AnchorPoint: "Anchor-2" 407 700 basechar 0
AnchorPoint: "Anchor-0" 407 0 basechar 0
LayerCount: 2
Fore
SplineSet
55 112 m 1,0,-1
 55 588 l 1,1,-1
 147 680 l 1,2,-1
 667 680 l 1,3,-1
 759 588 l 1,4,-1
 759 112 l 1,5,-1
 667 20 l 1,6,-1
 147 20 l 1,7,-1
 55 112 l 1,0,-1
169 582 m 1,8,-1
 169 118 l 1,9,-1
 645 118 l 1,10,-1
 645 582 l 1,11,-1
 169 582 l 1,8,-1
463 -48 m 1,12,-1
 351 -48 l 1,13,-1
 351 748 l 1,14,-1
 463 748 l 1,15,-1
 463 -48 l 1,12,-1
EndSplineSet
EndChar

